<svg width="24" height="24" viewBox="0 0 24 24" fill="none" xmlns="http://www.w3.org/2000/svg">
<path d="M7.99987 21H15.0259C15.656 21 16.2773 20.8511 16.839 20.5654C17.4007 20.2798 17.8869 19.8654 18.2581 19.3562C18.6293 18.847 18.875 18.2573 18.975 17.6351C19.0751 17.0129 19.0267 16.3759 18.8339 15.776L17.1279 10.47C16.8039 9.4622 16.1685 8.58321 15.3131 7.95963C14.4577 7.33604 13.4265 7.00003 12.3679 7H10.6579C9.5993 7.00003 8.56804 7.33604 7.71263 7.95963C6.85722 8.58321 6.2218 9.4622 5.89787 10.47L4.19187 15.776C3.99905 16.3759 3.95069 17.0129 4.05074 17.6351C4.15079 18.2573 4.39643 18.847 4.76763 19.3562C5.13882 19.8654 5.62508 20.2798 6.18678 20.5654C6.74848 20.8511 7.36972 21 7.99987 21ZM14.5129 3C13.8462 5.66667 12.8462 7 11.5129 7C10.1795 7 9.17954 5.66667 8.51287 3H14.5129Z" stroke="#FFFFFF" stroke-width="2" stroke-linecap="round" stroke-linejoin="round"/>
<path d="M13.5117 11H11.0117C10.6139 11 10.2324 11.158 9.95106 11.4393C9.66975 11.7206 9.51172 12.1022 9.51172 12.5C9.51172 12.8978 9.66975 13.2794 9.95106 13.5607C10.2324 13.842 10.6139 14 11.0117 14H12.0117C12.4095 14 12.7911 14.158 13.0724 14.4393C13.3537 14.7206 13.5117 15.1022 13.5117 15.5C13.5117 15.8978 13.3537 16.2794 13.0724 16.5607C12.7911 16.842 12.4095 17 12.0117 17H9.51172M11.5117 10V11M11.5117 17V18" stroke="#FFFFFF" stroke-width="2" stroke-linecap="round" stroke-linejoin="round"/>
</svg>
