<svg width="24" height="24" viewBox="0 0 24 24" fill="none" xmlns="http://www.w3.org/2000/svg">
<path d="M20.0435 12.6599C19.8831 12.4774 19.7947 12.2428 19.7947 11.9999C19.7947 11.757 19.8831 11.5224 20.0435 11.3399L21.3235 9.89989C21.4645 9.74256 21.5521 9.5446 21.5736 9.3344C21.5952 9.12421 21.5496 8.91258 21.4435 8.72989L19.4435 5.2699C19.3384 5.08742 19.1783 4.94277 18.9862 4.85658C18.7941 4.77039 18.5796 4.74705 18.3735 4.7899L16.4935 5.1699C16.2542 5.21932 16.0052 5.17948 15.7933 5.0579C15.5815 4.93631 15.4214 4.74138 15.3435 4.5099L14.7335 2.6799C14.6664 2.48127 14.5386 2.30876 14.3681 2.18674C14.1976 2.06471 13.9931 1.99935 13.7835 1.9999H9.78345C9.56538 1.98851 9.34959 2.04882 9.16902 2.17161C8.98845 2.2944 8.85303 2.47291 8.78345 2.6799L8.22345 4.5099C8.14545 4.74138 7.98542 4.93631 7.77356 5.0579C7.5617 5.17948 7.31267 5.21932 7.07345 5.1699L5.14345 4.7899C4.948 4.76228 4.74875 4.79312 4.5708 4.87853C4.39285 4.96395 4.24415 5.10012 4.14345 5.2699L2.14345 8.72989C2.03461 8.91054 1.98567 9.12098 2.00363 9.33112C2.02159 9.54126 2.10553 9.74034 2.24345 9.89989L3.51345 11.3399C3.67377 11.5224 3.76219 11.757 3.76219 11.9999C3.76219 12.2428 3.67377 12.4774 3.51345 12.6599L2.24345 14.0999C2.10553 14.2595 2.02159 14.4585 2.00363 14.6687C1.98567 14.8788 2.03461 15.0892 2.14345 15.2699L4.14345 18.7299C4.24855 18.9124 4.40857 19.057 4.6007 19.1432C4.79284 19.2294 5.00728 19.2527 5.21345 19.2099L7.09345 18.8299C7.33267 18.7805 7.5817 18.8203 7.79356 18.9419C8.00542 19.0635 8.16545 19.2584 8.24345 19.4899L8.85345 21.3199C8.92303 21.5269 9.05845 21.7054 9.23902 21.8282C9.41959 21.951 9.63538 22.0113 9.85345 21.9999H13.8535C14.0631 22.0004 14.2676 21.9351 14.4381 21.8131C14.6086 21.691 14.7364 21.5185 14.8035 21.3199L15.4135 19.4899C15.4915 19.2584 15.6515 19.0635 15.8633 18.9419C16.0752 18.8203 16.3242 18.7805 16.5635 18.8299L18.4435 19.2099C18.6496 19.2527 18.8641 19.2294 19.0562 19.1432C19.2483 19.057 19.4084 18.9124 19.5135 18.7299L21.5135 15.2699C21.6196 15.0872 21.6652 14.8756 21.6436 14.6654C21.6221 14.4552 21.5345 14.2572 21.3935 14.0999L20.0435 12.6599ZM18.5535 13.9999L19.3535 14.8999L18.0735 17.1199L16.8935 16.8799C16.1732 16.7327 15.424 16.855 14.788 17.2237C14.1521 17.5924 13.6736 18.1817 13.4435 18.8799L13.0635 19.9999H10.5035L10.1435 18.8599C9.91331 18.1617 9.43483 17.5724 8.79886 17.2037C8.16288 16.835 7.41367 16.7127 6.69345 16.8599L5.51345 17.0999L4.21345 14.8899L5.01345 13.9899C5.50541 13.4399 5.77738 12.7278 5.77738 11.9899C5.77738 11.252 5.50541 10.5399 5.01345 9.98989L4.21345 9.0899L5.49345 6.88989L6.67345 7.1299C7.39367 7.27712 8.14288 7.15478 8.77886 6.78609C9.41483 6.41741 9.89331 5.82805 10.1235 5.1299L10.5035 3.9999H13.0635L13.4435 5.13989C13.6736 5.83805 14.1521 6.42741 14.788 6.79609C15.424 7.16478 16.1732 7.28712 16.8935 7.13989L18.0735 6.8999L19.3535 9.11989L18.5535 10.0199C18.067 10.5687 17.7984 11.2766 17.7984 12.0099C17.7984 12.7432 18.067 13.4511 18.5535 13.9999ZM11.7835 7.9999C10.9923 7.9999 10.219 8.23449 9.56117 8.67402C8.90337 9.11354 8.39068 9.73826 8.08793 10.4692C7.78518 11.2001 7.70597 12.0043 7.86031 12.7803C8.01465 13.5562 8.39561 14.2689 8.95502 14.8283C9.51443 15.3877 10.2272 15.7687 11.0031 15.923C11.779 16.0774 12.5833 15.9982 13.3142 15.6954C14.0451 15.3927 14.6698 14.88 15.1093 14.2222C15.5489 13.5644 15.7835 12.791 15.7835 11.9999C15.7835 10.939 15.362 9.92161 14.6119 9.17147C13.8617 8.42132 12.8443 7.9999 11.7835 7.9999ZM11.7835 13.9999C11.3879 13.9999 11.0012 13.8826 10.6723 13.6628C10.3434 13.4431 10.0871 13.1307 9.93569 12.7653C9.78432 12.3998 9.74471 11.9977 9.82188 11.6097C9.89905 11.2218 10.0895 10.8654 10.3692 10.5857C10.6489 10.306 11.0053 10.1155 11.3933 10.0383C11.7812 9.96115 12.1834 10.0008 12.5488 10.1521C12.9143 10.3035 13.2266 10.5599 13.4464 10.8888C13.6662 11.2177 13.7835 11.6043 13.7835 11.9999C13.7835 12.5303 13.5727 13.039 13.1977 13.4141C12.8226 13.7892 12.3139 13.9999 11.7835 13.9999Z" fill="white"/>
</svg>
