<svg width="27" height="27" viewBox="0 0 27 27" fill="none" xmlns="http://www.w3.org/2000/svg">
<path d="M17.5137 2.13184C16.3487 2.13157 15.1998 2.4042 14.1591 2.92788C13.1185 3.45156 12.2149 4.21173 11.5209 5.14748C10.8269 6.08322 10.3618 7.16852 10.1628 8.31639C9.96372 9.46427 10.0363 10.6428 10.3748 11.7576L1.76367 20.3687V25.3424H6.73736L15.3485 16.7313C16.3746 17.0427 17.4559 17.1293 18.5185 16.9851C19.5812 16.841 20.6002 16.4694 21.5063 15.8957C22.4123 15.3221 23.1841 14.5598 23.7689 13.6609C24.3537 12.762 24.7379 11.7476 24.8952 10.6868C25.0525 9.62606 24.9793 8.54383 24.6806 7.5139C24.3818 6.48397 23.8645 5.53055 23.1639 4.71862C22.4634 3.90669 21.596 3.25533 20.621 2.80893C19.6459 2.36253 18.5861 2.13159 17.5137 2.13184ZM17.5137 15.395C16.9429 15.3948 16.3754 15.3105 15.8293 15.1447L14.8784 14.8562L14.1763 15.5583L11.5394 18.1952L10.3963 17.0529L9.2242 18.225L10.3673 19.3681L9.05261 20.6828L7.90949 19.5397L6.73736 20.7119L7.88047 21.855L6.05099 23.6845H3.42157V21.055L11.5469 12.9297L12.2499 12.2276L11.9614 11.2768C11.6071 10.1088 11.6301 8.85881 12.0272 7.70466C12.4242 6.5505 13.1751 5.55094 14.173 4.84815C15.171 4.14537 16.3651 3.77515 17.5855 3.79017C18.806 3.80519 19.9906 4.20467 20.971 4.93179C21.9513 5.65891 22.6774 6.67664 23.0459 7.84022C23.4145 9.00379 23.4067 10.254 23.0238 11.4129C22.6409 12.5718 21.9022 13.5805 20.913 14.2954C19.9237 15.0103 18.7342 15.3951 17.5137 15.395Z" fill="#545454"/>
<path d="M18.3415 10.4213C19.2571 10.4213 19.9994 9.67899 19.9994 8.76336C19.9994 7.84773 19.2571 7.10547 18.3415 7.10547C17.4259 7.10547 16.6836 7.84773 16.6836 8.76336C16.6836 9.67899 17.4259 10.4213 18.3415 10.4213Z" fill="#545454"/>
</svg>
