<svg width="33" height="32" viewBox="0 0 33 32" fill="none" xmlns="http://www.w3.org/2000/svg">
<path d="M20.5013 9.33333H27.8346L20.5013 2V9.33333ZM11.168 0H21.8346L29.8346 8V24C29.8346 24.7072 29.5537 25.3855 29.0536 25.8856C28.5535 26.3857 27.8752 26.6667 27.168 26.6667H11.168C10.4607 26.6667 9.78245 26.3857 9.28235 25.8856C8.78225 25.3855 8.5013 24.7072 8.5013 24V2.66667C8.5013 1.95942 8.78225 1.28115 9.28235 0.781049C9.78245 0.280952 10.4607 0 11.168 0ZM5.83464 5.33333V29.3333H27.168V32H5.83464C5.12739 32 4.44911 31.719 3.94902 31.219C3.44892 30.7189 3.16797 30.0406 3.16797 29.3333V5.33333H5.83464Z" fill="#453823"/>
</svg>
