<svg width="100" height="101" viewBox="0 0 100 101" fill="none" xmlns="http://www.w3.org/2000/svg">
<rect y="0.5" width="100" height="100" rx="50" fill="#8A4FFF"/>
<g clip-path="url(#clip0_2501_3242)">
<path d="M73.9804 44.6305C73.9804 46.5041 73.9601 48.3743 73.9838 50.2479C74.0413 54.8604 72.7187 59.0709 70.3274 62.9646C67.6214 67.3727 64.009 70.9121 59.8723 73.9439C57.1494 75.9401 54.2947 77.7047 51.2572 79.1764C50.4421 79.5715 49.6438 79.6226 48.8253 79.2207C43.3694 76.5363 38.3905 73.1638 34.1557 68.7557C31.0033 65.4752 28.4766 61.7757 27.0729 57.3812C26.4269 55.3543 26.0277 53.2832 26.021 51.1506C26.0041 46.6676 25.9838 42.188 26.021 37.705C26.0446 34.898 27.083 32.4453 28.8588 30.2957C30.3539 28.4868 32.248 27.3014 34.4567 26.5621C39.2598 24.9611 44.0527 23.3361 48.8456 21.7112C49.5593 21.4693 50.2425 21.408 50.9799 21.6601C56.0197 23.377 61.1035 24.9747 66.1027 26.804C70.5912 28.446 73.2329 31.8116 73.8349 36.5842C74.1089 38.7644 73.9465 40.9991 73.977 43.21C73.9838 43.6835 73.977 44.157 73.977 44.6271L73.9804 44.6305ZM30.7225 44.5828C30.7225 46.4939 30.6752 48.405 30.7394 50.3126C30.7834 51.5731 30.8917 52.8437 31.142 54.0769C32.0214 58.4407 34.3586 62.0142 37.3589 65.1788C40.9341 68.9465 45.1114 71.9 49.6844 74.2948C49.8468 74.3799 50.1241 74.3834 50.2899 74.3016C51.0103 73.9405 51.724 73.5556 52.4174 73.1434C57.0547 70.3807 61.2625 67.1001 64.628 62.8113C67.7094 58.8835 69.3938 54.4823 69.2856 49.4099C69.2078 45.7444 69.2754 42.0722 69.2687 38.4067C69.2653 34.9559 67.3238 32.1966 64.0834 31.0997C59.5374 29.5599 54.9847 28.0474 50.4285 26.5417C50.1681 26.4565 49.8299 26.4531 49.5694 26.5417C45.0133 28.0474 40.4605 29.5633 35.9146 31.0997C32.6708 32.1966 30.7293 34.9525 30.7225 38.4033C30.7192 40.4643 30.7225 42.5253 30.7225 44.5862V44.5828Z" fill="#D8DBE2"/>
<path d="M47.851 51.866C48.2772 51.3891 48.5647 51.0416 48.8826 50.718C51.8186 47.7372 54.7613 44.7667 57.7006 41.7894C58.4921 40.9888 59.3817 40.6141 60.4979 41.0468C61.8475 41.568 62.4258 43.227 61.6682 44.4703C61.5126 44.7258 61.313 44.9609 61.1033 45.1721C57.8427 48.4662 54.5719 51.7536 51.3078 55.0443C49.9007 56.4648 48.2501 57.0099 46.339 56.3354C45.7573 56.131 45.1789 55.7597 44.7425 55.3202C42.8213 53.3819 40.9373 51.3993 39.0668 49.4099C38.069 48.347 38.0859 46.872 39.0465 45.959C40.0782 44.9779 41.5123 45.0733 42.6015 46.2077C44.1371 47.8156 45.6626 49.4303 47.188 51.045C47.3944 51.263 47.5669 51.5083 47.8544 51.866H47.851Z" fill="#D8DBE2"/>
</g>
<defs>
<clipPath id="clip0_2501_3242">
<rect width="48" height="58" fill="white" transform="translate(26 21.5)"/>
</clipPath>
</defs>
</svg>
