<svg width="32" height="32" viewBox="0 0 32 32" fill="none" xmlns="http://www.w3.org/2000/svg">
<g clip-path="url(#clip0_31_47)">
<path fill-rule="evenodd" clip-rule="evenodd" d="M6.66625 11.9998C6.66625 9.52448 7.64958 7.15051 9.39992 5.40017C11.1503 3.64983 13.5242 2.6665 15.9996 2.6665C18.4749 2.6665 20.8489 3.64983 22.5992 5.40017C24.3496 7.15051 25.3329 9.52448 25.3329 11.9998V17.0185L27.7622 21.8772C27.8741 22.1008 27.9269 22.3493 27.9157 22.5991C27.9044 22.8489 27.8295 23.0916 27.6981 23.3043C27.5666 23.517 27.383 23.6925 27.1646 23.8143C26.9462 23.936 26.7003 23.9999 26.4502 23.9998H21.1649C20.8683 25.1442 20.2002 26.1576 19.2653 26.8811C18.3304 27.6045 17.1817 27.9971 15.9996 27.9971C14.8175 27.9971 13.6688 27.6045 12.7339 26.8811C11.799 26.1576 11.1308 25.1442 10.8342 23.9998H5.54892C5.29889 23.9999 5.053 23.936 4.8346 23.8143C4.61621 23.6925 4.43257 23.517 4.30111 23.3043C4.16965 23.0916 4.09475 22.8489 4.08351 22.5991C4.07228 22.3493 4.12508 22.1008 4.23691 21.8772L6.66625 17.0185V11.9998ZM13.6902 23.9998C13.9243 24.4052 14.2609 24.7418 14.6663 24.9758C15.0717 25.2098 15.5315 25.3331 15.9996 25.3331C16.4677 25.3331 16.9275 25.2098 17.3329 24.9758C17.7382 24.7418 18.0749 24.4052 18.3089 23.9998H13.6902ZM15.9996 5.33317C14.2315 5.33317 12.5358 6.03555 11.2855 7.28579C10.0353 8.53603 9.33291 10.2317 9.33291 11.9998V17.0185C9.33289 17.4323 9.23657 17.8404 9.05158 18.2105L7.49158 21.3332H24.5089L22.9489 18.2105C22.7635 17.8405 22.6667 17.4324 22.6662 17.0185V11.9998C22.6662 10.2317 21.9639 8.53603 20.7136 7.28579C19.4634 6.03555 17.7677 5.33317 15.9996 5.33317Z" fill="#8A4FFF"/>
</g>
<defs>
<clipPath id="clip0_31_47">
<rect width="32" height="32" fill="white"/>
</clipPath>
</defs>
</svg>
