<svg width="90" height="63" viewBox="0 0 90 63" fill="none" xmlns="http://www.w3.org/2000/svg">
<path d="M4.03125 32.1463V11.0415C4.03125 5.28115 8.62542 0.613281 14.2948 0.613281H79.7375C85.4069 0.613281 90.0011 5.28115 90.0011 11.0415V32.1463C90.0011 37.9066 85.4069 42.5745 79.7375 42.5745H14.3071C8.63765 42.5869 4.03125 37.9066 4.03125 32.1463Z" fill="#8A4FFF"/>
<path d="M31.6705 31.04L0 62.3868L51.3302 36.0307" fill="#8A4FFF"/>
<path d="M11.9727 10.5239V10.4122C11.9727 9.55557 12.6569 8.86035 13.5 8.86035H45.8548C46.6978 8.86035 47.3821 9.55557 47.3821 10.4122V10.5239C47.3821 11.3805 46.6978 12.0757 45.8548 12.0757H13.5C12.6569 12.0757 11.9727 11.3805 11.9727 10.5239Z" fill="white"/>
<path d="M48.8359 10.5239V10.4122C48.8359 9.55557 49.5202 8.86035 50.3633 8.86035H78.6003C79.4434 8.86035 80.1277 9.55557 80.1277 10.4122V10.5239C80.1277 11.3805 79.4434 12.0757 78.6003 12.0757H50.3633C49.5202 12.0757 48.8359 11.3805 48.8359 10.5239Z" fill="white"/>
<path d="M36.5078 17.5874V17.4756C36.5078 16.619 37.1921 15.9238 38.0351 15.9238H78.6008C79.4439 15.9238 80.1281 16.619 80.1281 17.4756V17.5874C80.1281 18.444 79.4439 19.1392 78.6008 19.1392H38.0351C37.1921 19.1392 36.5078 18.444 36.5078 17.5874Z" fill="white"/>
<path d="M11.9727 17.5874V17.4756C11.9727 16.619 12.6569 15.9238 13.5 15.9238H31.6201C32.4632 15.9238 33.1474 16.619 33.1474 17.4756V17.5874C33.1474 18.444 32.4632 19.1392 31.6201 19.1392H13.5C12.6569 19.1392 11.9727 18.444 11.9727 17.5874Z" fill="white"/>
<path d="M42.1406 24.6518V24.5401C42.1406 23.6835 42.8249 22.9883 43.6679 22.9883H78.6008C79.4439 22.9883 80.1281 23.6835 80.1281 24.5401V24.6518C80.1281 25.5084 79.4439 26.2036 78.6008 26.2036H43.6679C42.8249 26.2036 42.1406 25.5084 42.1406 24.6518Z" fill="white"/>
<path d="M11.9727 24.6518V24.5401C11.9727 23.6835 12.6569 22.9883 13.5 22.9883H37.6316C38.4747 22.9883 39.159 23.6835 39.159 24.5401V24.6518C39.159 25.5084 38.4747 26.2036 37.6316 26.2036H13.5C12.6569 26.2036 11.9727 25.5084 11.9727 24.6518Z" fill="white"/>
<path d="M11.9727 31.7173V31.6055C11.9727 30.7489 12.6569 30.0537 13.5 30.0537H22.4562C23.2993 30.0537 23.9835 30.7489 23.9835 31.6055V31.7173C23.9835 32.5739 23.2993 33.2691 22.4562 33.2691H13.5C12.6569 33.2691 11.9727 32.5739 11.9727 31.7173Z" fill="white"/>
<path d="M27.1484 31.7173V31.6055C27.1484 30.7489 27.8327 30.0537 28.6758 30.0537H78.6008C79.4439 30.0537 80.1281 30.7489 80.1281 31.6055V31.7173C80.1281 32.5739 79.4439 33.2691 78.6008 33.2691H28.6758C27.8327 33.2691 27.1484 32.5739 27.1484 31.7173Z" fill="white"/>
</svg>
