<svg width="32" height="32" viewBox="0 0 32 32" fill="none" xmlns="http://www.w3.org/2000/svg">
<path d="M16.0007 16.667C14.763 16.667 13.576 17.1587 12.7008 18.0338C11.8256 18.909 11.334 20.096 11.334 21.3337C11.334 22.5713 11.8256 23.7583 12.7008 24.6335C13.576 25.5087 14.763 26.0003 16.0007 26.0003C17.2383 26.0003 18.4253 25.5087 19.3005 24.6335C20.1757 23.7583 20.6673 22.5713 20.6673 21.3337C20.6673 20.096 20.1757 18.909 19.3005 18.0338C18.4253 17.1587 17.2383 16.667 16.0007 16.667ZM14.0007 21.3337C14.0007 20.8032 14.2114 20.2945 14.5864 19.9194C14.9615 19.5444 15.4702 19.3337 16.0007 19.3337C16.5311 19.3337 17.0398 19.5444 17.4149 19.9194C17.7899 20.2945 18.0007 20.8032 18.0007 21.3337C18.0007 21.8641 17.7899 22.3728 17.4149 22.7479C17.0398 23.1229 16.5311 23.3337 16.0007 23.3337C15.4702 23.3337 14.9615 23.1229 14.5864 22.7479C14.2114 22.3728 14.0007 21.8641 14.0007 21.3337Z" fill="#453823"/>
<path d="M23.368 6.82157L19.1293 0.878906L3.544 13.3296L2.68 13.3202V13.3336H2V29.3336H30V13.3336H28.7173L26.1653 5.86824L23.368 6.82157ZM25.9 13.3336H12.5293L22.488 9.93891L24.5173 9.28957L25.9 13.3336ZM20.7333 7.72024L10.4533 11.2242L18.5947 4.72024L20.7333 7.72024ZM4.66667 24.2256V18.4389C5.22957 18.2402 5.74087 17.9181 6.16308 17.4961C6.58528 17.0742 6.90769 16.563 7.10667 16.0002H24.8933C25.0921 16.5633 25.4145 17.0747 25.8367 17.4969C26.2589 17.9191 26.7703 18.2414 27.3333 18.4402V24.2269C26.7703 24.4257 26.2589 24.748 25.8367 25.1703C25.4145 25.5925 25.0921 26.1039 24.8933 26.6669H7.10933C6.90958 26.1038 6.58662 25.5924 6.16403 25.1701C5.74143 24.7477 5.22987 24.425 4.66667 24.2256Z" fill="#453823"/>
</svg>
