<svg width="316" height="258" viewBox="0 0 316 258" fill="none" xmlns="http://www.w3.org/2000/svg">
<path d="M226.336 44.9371C226.336 52.8149 222.711 59.8366 217.075 64.369C212.925 67.7144 207.678 69.7 201.957 69.7C196.236 69.7 191.003 67.7144 186.84 64.369C181.196 59.8294 177.578 52.8077 177.578 44.9371C177.578 31.2607 188.49 20.167 201.957 20.167C215.425 20.167 226.336 31.2535 226.336 44.9371Z" fill="#8A4FFF" stroke="#8A4FFF" stroke-miterlimit="10"/>
<path d="M202.938 44.8305C207.312 44.2817 210.42 40.2341 209.88 35.7899C209.34 31.3457 205.356 28.1879 200.982 28.7367C196.608 29.2856 193.5 33.3332 194.041 37.7774C194.581 42.2215 198.564 45.3793 202.938 44.8305Z" fill="white"/>
<path d="M217.075 61.2482C212.925 64.5935 207.679 66.5792 201.957 66.5792C196.236 66.5792 191.003 64.5935 186.84 61.2482C188.398 54.2768 189.835 48.2624 191.329 46.7372C193.439 44.5933 199.04 43.3486 201.95 43.3486C204.86 43.3486 210.723 44.8666 211.807 45.9674C214.016 48.2048 215.921 54.3848 217.068 61.2482H217.075Z" fill="white"/>
<path d="M166.93 105.987V93.7571C166.93 90.4189 169.592 87.7139 172.878 87.7139H210.802C214.088 87.7139 216.75 90.4189 216.75 93.7571V105.987C216.75 109.326 214.088 112.031 210.802 112.031H172.885C169.599 112.038 166.93 109.326 166.93 105.987Z" fill="#8A4FFF"/>
<path d="M182.947 105.348L164.594 123.513L194.34 108.24" fill="#8A4FFF"/>
<path d="M171.531 93.4553V93.3905C171.531 92.8941 171.928 92.4912 172.416 92.4912H191.166C191.655 92.4912 192.051 92.8941 192.051 93.3905V93.4553C192.051 93.9517 191.655 94.3545 191.166 94.3545H172.416C171.928 94.3545 171.531 93.9517 171.531 93.4553Z" fill="white"/>
<path d="M192.895 93.4553V93.3905C192.895 92.8941 193.291 92.4912 193.78 92.4912H210.143C210.632 92.4912 211.028 92.8941 211.028 93.3905V93.4553C211.028 93.9517 210.632 94.3545 210.143 94.3545H193.78C193.291 94.3545 192.895 93.9517 192.895 93.4553Z" fill="white"/>
<path d="M185.75 97.549V97.4843C185.75 96.9878 186.147 96.585 186.635 96.585H210.143C210.632 96.585 211.028 96.9878 211.028 97.4843V97.549C211.028 98.0454 210.632 98.4483 210.143 98.4483H186.635C186.147 98.4483 185.75 98.0454 185.75 97.549Z" fill="white"/>
<path d="M171.531 97.549V97.4843C171.531 96.9878 171.928 96.585 172.416 96.585H182.917C183.406 96.585 183.802 96.9878 183.802 97.4843V97.549C183.802 98.0454 183.406 98.4483 182.917 98.4483H172.416C171.928 98.4483 171.531 98.0454 171.531 97.549Z" fill="white"/>
<path d="M189.016 101.643V101.578C189.016 101.082 189.412 100.679 189.901 100.679H210.145C210.633 100.679 211.03 101.082 211.03 101.578V101.643C211.03 102.139 210.633 102.542 210.145 102.542H189.901C189.412 102.542 189.016 102.139 189.016 101.643Z" fill="white"/>
<path d="M171.531 101.643V101.578C171.531 101.082 171.928 100.679 172.416 100.679H186.401C186.889 100.679 187.286 101.082 187.286 101.578V101.643C187.286 102.139 186.889 102.542 186.401 102.542H172.416C171.928 102.542 171.531 102.139 171.531 101.643Z" fill="white"/>
<path d="M171.531 105.737V105.672C171.531 105.175 171.928 104.772 172.416 104.772H177.607C178.095 104.772 178.492 105.175 178.492 105.672V105.737C178.492 106.233 178.095 106.636 177.607 106.636H172.416C171.928 106.636 171.531 106.233 171.531 105.737Z" fill="white"/>
<path d="M180.328 105.737V105.672C180.328 105.175 180.725 104.772 181.213 104.772H210.145C210.634 104.772 211.03 105.175 211.03 105.672V105.737C211.03 106.233 210.634 106.636 210.145 106.636H181.213C180.725 106.636 180.328 106.233 180.328 105.737Z" fill="white"/>
<path d="M52.0569 102.454C65.0088 102.454 75.5084 91.7861 75.5084 78.6265C75.5084 65.4668 65.0088 54.7988 52.0569 54.7988C39.105 54.7988 28.6055 65.4668 28.6055 78.6265C28.6055 91.7861 39.105 102.454 52.0569 102.454Z" fill="#8A4FFF"/>
<path d="M46.5296 96.0951C49.6698 96.0951 52.2154 93.5087 52.2154 90.3181C52.2154 87.1275 49.6698 84.541 46.5296 84.541C43.3894 84.541 40.8438 87.1275 40.8438 90.3181C40.8438 93.5087 43.3894 96.0951 46.5296 96.0951Z" fill="white"/>
<path d="M43.5418 92.3892L43.2656 88.7272L46.2537 86.6553L49.5109 88.2452L49.787 91.9071L46.7989 93.9791L43.5418 92.3892Z" fill="#8A4FFF"/>
<path d="M57.5687 72.7045C60.7089 72.7045 63.2545 70.118 63.2545 66.9275C63.2545 63.7369 60.7089 61.1504 57.5687 61.1504C54.4285 61.1504 51.8828 63.7369 51.8828 66.9275C51.8828 70.118 54.4285 72.7045 57.5687 72.7045Z" fill="white"/>
<path d="M54.7578 68.6535L54.9561 63.9915L58.4115 60.9268L61.6686 62.5167L61.4704 67.1714L58.015 70.2434L54.7578 68.6535Z" fill="#8A4FFF"/>
<path d="M50.457 87.6463L46.1094 85.5239L49.324 77.9915C49.5294 77.5166 49.7489 77.0418 49.9896 76.5814L53.7637 69.3223L58.1113 71.4446L55.0099 78.862C54.7691 79.4375 54.5071 79.9987 54.2168 80.5454L50.457 87.6391V87.6463Z" fill="white"/>
<path d="M68.3359 91.4472C69.1715 91.0515 82.632 91.6774 82.632 91.6774L72.9313 82.627L68.3359 91.4472Z" fill="#8A4FFF"/>
<path d="M106.563 52.4543C119.292 52.4543 129.611 41.9699 129.611 29.0367C129.611 16.1036 119.292 5.61914 106.563 5.61914C93.8345 5.61914 83.5156 16.1036 83.5156 29.0367C83.5156 41.9699 93.8345 52.4543 106.563 52.4543Z" fill="#8A4FFF"/>
<path d="M107.333 9.08008H105.797V28.7494H107.333V9.08008Z" fill="white"/>
<path d="M105.688 28.7555L89.5547 40.1016L90.4292 41.3852L106.562 30.0392L105.688 28.7555Z" fill="white"/>
<path d="M108.686 29.0362C108.686 30.2233 107.737 31.1945 106.562 31.1945C105.386 31.1945 104.438 30.2305 104.438 29.0362C104.438 27.842 105.386 26.8779 106.562 26.8779C107.737 26.8779 108.686 27.842 108.686 29.0362Z" fill="white"/>
<path d="M148.387 190.91C148.387 190.91 149.938 205.349 151.672 206.507C154.774 208.587 190.673 213.392 190.673 213.392L189.498 222.882C189.498 222.882 140.329 227.371 138.24 224.875C134.615 220.544 128.242 199.651 128.242 199.651L148.387 190.91Z" fill="#E06A58"/>
<path d="M124.68 153.737L128.652 144.046C128.652 144.046 139.429 149.19 142.983 155.542C146.786 162.334 151.438 198.442 151.438 198.442C151.438 198.442 132.412 202.896 128.914 201.004C125.416 199.111 124.68 153.737 124.68 153.737Z" fill="#9747FF"/>
<path d="M94.422 108.759C91.6393 107.723 88.6937 106.817 85.7127 107.047C82.7317 107.277 79.687 108.881 78.6744 111.543C77.9522 113.428 78.285 115.651 77.145 117.349C76.0545 118.975 73.8878 119.651 71.8627 119.788C69.8306 119.932 67.7842 119.659 65.7662 119.925C59.5351 120.766 55.0884 127.644 57.1348 133.277C57.9491 135.522 59.6201 137.666 59.2378 140.004C58.8342 142.508 56.2497 144.155 55.1876 146.479C53.7785 149.573 55.4637 153.321 58.2464 155.429C61.0292 157.53 64.6475 158.328 68.1595 158.86C72.9957 159.594 77.9876 159.94 82.7671 158.904C87.5466 157.868 92.1137 155.306 94.5849 151.306C95.6824 149.537 96.348 147.537 97.6225 145.875C100.257 142.443 104.923 141.112 108.598 138.68C112.612 136.011 115.558 130.817 113.193 126.752C110.913 122.846 104.979 121.975 102.6 118.126C101.616 116.536 101.382 114.644 100.745 112.91C100.094 111.169 98.536 110.291 94.422 108.759Z" fill="#0A2240"/>
<path d="M110.637 156.68C111.338 157.5 112.167 158.4 113.314 158.479C114.525 158.565 115.537 157.695 116.316 156.853C120.338 152.529 122.993 147.22 124.07 141.745C123.071 141.169 122.108 140.615 121.237 140.097C120.43 139.608 119.821 138.925 119.474 138.126C119.233 137.536 119.148 136.917 119.212 136.27C119.779 130.86 120.281 127.845 122.151 122.356C113.271 120.32 104.895 117.903 100.08 113.816C99.4922 116.334 98.7983 121.263 97.3184 126.148C95.7394 131.32 93.2753 136.435 89.0977 138.637C97.2972 143.558 104.612 149.673 110.637 156.68Z" fill="#F9A07B"/>
<path d="M119.214 136.277C119.15 136.924 119.235 137.55 119.476 138.133C114.222 144.608 102.475 136.147 97.3203 126.154C98.8002 121.269 99.4941 116.341 100.082 113.823C104.89 117.91 113.273 120.334 122.153 122.363C120.283 127.852 119.78 130.859 119.214 136.277Z" fill="#E06A58"/>
<path d="M133.841 214.551C132.68 222.364 140.978 230.774 141.183 234.947C123.559 234.947 86.6404 236.04 67.841 233.443C66.9842 228.623 76.2671 217.781 76.2671 207.076C76.2671 205.659 76.2105 204.105 76.0972 202.436C75.7998 197.658 75.1059 191.975 74.3341 186.148C72.2382 170.514 69.4483 153.795 71.5088 150.327C75.5449 143.571 84.9835 138.981 89.6639 137.01C91.2712 136.334 92.3192 135.967 92.3971 135.924C98.267 146.097 110.212 154.773 114.723 154.385C115.976 154.284 119.693 152.967 122.15 140.399C123.106 140.953 124.062 141.463 125.011 141.96C129.677 144.428 134.053 146.464 135.314 149.636C138.641 157.989 141.906 179.047 141.183 186.536C140.454 194.09 137.466 199.86 135.37 207.443C134.882 209.22 134.436 211.105 134.074 213.133C133.982 213.587 133.912 214.062 133.841 214.551Z" fill="#8A4FFF"/>
<path d="M141.183 234.947C123.559 234.947 86.6404 236.041 67.841 233.444C66.9842 228.623 76.2671 217.781 76.2671 207.076C76.2671 205.659 76.2105 204.105 76.0972 202.436C75.7998 197.659 75.1059 191.975 74.3341 186.148C77.6691 189.724 82.5336 174.615 84.6861 179.04C96.334 202.925 105.518 209.206 121.478 209.206C126.236 209.206 130.626 208.537 135.37 207.443C134.882 209.22 134.436 211.105 134.074 213.134C133.989 213.594 133.912 214.069 133.841 214.558C132.68 222.357 140.978 230.767 141.183 234.947Z" fill="#8A4FFF"/>
<path d="M125.011 141.96C124.254 147.55 122.009 155.082 115.48 157.068C106.658 159.751 93.8913 143.003 89.6641 137.01C91.2714 136.334 92.3194 135.967 92.3972 135.924C98.2672 146.097 110.212 154.773 114.723 154.385C115.976 154.284 119.694 152.967 122.151 140.399C123.106 140.945 124.062 141.456 125.011 141.96Z" fill="white"/>
<path d="M128.634 226.539L128.57 232.776L238.322 233.438L238.549 226.366L128.634 226.539Z" fill="#453823"/>
<path d="M285.888 170.89L283.446 168.372L203.504 167.84L163.398 226.769L165.494 228.481L285.888 170.89Z" fill="#453823"/>
<path d="M205.045 170.02L165.492 228.481L241.044 228.862L285.886 170.89L205.045 170.02Z" fill="#0B2D50"/>
<path d="M224.138 207.337C228.995 207.337 232.932 205.336 232.932 202.869C232.932 200.402 228.995 198.401 224.138 198.401C219.281 198.401 215.344 200.402 215.344 202.869C215.344 205.336 219.281 207.337 224.138 207.337Z" fill="white"/>
<path d="M130.256 112.314C131.503 105.522 136.084 100.695 140.495 101.529C144.906 102.364 147.47 108.551 146.223 115.342C144.977 122.134 140.396 126.961 135.985 126.127C131.573 125.292 129.01 119.105 130.256 112.314Z" fill="#561F37"/>
<path d="M146.24 94.0115C145.418 99.9252 142.82 106.443 139.032 113.645C137.7 107.745 136.851 100.558 135.675 93.3712C134.479 86.1696 132.956 78.9681 130.315 73.0831C129.72 71.781 129.076 70.5363 128.375 69.3852C129.94 69.2342 131.526 69.3852 133.034 69.8097C135.392 70.45 137.601 71.6874 139.407 73.3421C142.409 76.0544 144.42 79.7523 145.617 83.6516C146.601 86.8891 146.778 90.328 146.24 94.0115Z" fill="#0B2D50"/>
<path d="M141.793 100.127C141.75 101.292 141.672 102.479 141.566 103.659C139.952 122.796 132.042 135.926 119.941 135.926C102.856 135.926 91.7812 116.458 91.7812 97.3859C91.7812 78.3137 103.125 64.9538 116.401 66.5294C124.055 67.4215 129.649 70.0042 133.621 73.7885C136.248 76.3065 138.146 79.3497 139.442 82.8102C140.922 86.6879 141.637 91.0765 141.786 95.8031C141.786 95.8175 141.8 95.8319 141.8 95.8463C141.856 97.242 141.842 98.6665 141.793 100.127Z" fill="#F9A07B"/>
<path d="M141.793 100.127C141.283 98.2776 140.525 96.4718 139.491 94.8531C129.415 100.206 117.406 102.27 106.021 100.314C103.854 102.148 101.737 103.954 99.6055 105.76C99.648 97.0546 99.7683 91.1624 103.11 86.9465C106.247 82.9896 111.48 81.5004 116.436 80.8529C122.016 80.1119 127.688 80.1407 133.253 80.9608C135.385 81.263 137.594 81.7306 139.449 82.8242C140.929 86.7019 141.644 91.0905 141.793 95.8171C141.793 95.8315 141.807 95.8459 141.807 95.8603C141.856 97.2416 141.842 98.6661 141.793 100.127Z" fill="#E06A58"/>
<path d="M144.255 88.3416C141.912 90.356 138.973 92.0251 135.673 93.3776C126.284 97.2266 114.084 98.5 104.575 98.0324C99.9015 108.464 98.0109 112.205 96.8143 121.306C92.2472 116.954 88.5298 108.982 87.4252 102.716C86.3348 96.4712 86.441 89.9172 88.1545 83.7804C90.8523 74.104 97.6569 68.9241 102.373 66.4061C103.548 65.7514 104.61 65.2981 105.432 64.9672C111.457 62.6003 118.248 62.8161 124.429 64.737C127.8 65.8017 130.639 67.6003 133.025 69.8162C137.847 74.2407 140.828 80.2336 142.754 84.7229C143.363 86.097 143.852 87.3416 144.255 88.3416Z" fill="#0B2D50"/>
<path d="M146.238 94.0111C145.848 91.9176 145.268 89.8887 144.446 87.9319C143.986 86.824 143.42 85.752 142.761 84.716C140.616 81.2915 137.493 78.4713 133.719 77.2267C132.643 75.6943 131.51 74.313 130.32 73.09C126.036 68.6654 121.009 66.133 115.684 65.2481C111.252 64.5215 106.642 64.9316 102.387 66.3992C103.562 65.7445 104.624 65.2913 105.446 64.9604C111.471 62.5934 118.262 62.8092 124.443 64.7301C127.814 65.7949 130.653 67.5935 133.039 69.8093C135.397 70.4496 137.606 71.6871 139.412 73.3418C142.414 76.054 144.425 79.7519 145.622 83.6513C146.599 86.8887 146.776 90.3276 146.238 94.0111Z" fill="#225570"/>
<path d="M110.02 105.743C113.178 103.908 116.456 103.081 121.051 104.786" stroke="#0B2D50" stroke-width="2" stroke-miterlimit="10" stroke-linecap="round"/>
<path d="M131.645 105.613C134.349 103.563 138.357 103.354 140.446 105.613" stroke="#0B2D50" stroke-width="2" stroke-miterlimit="10" stroke-linecap="round"/>
<path d="M128.38 116.073C128.657 117.526 128.508 120.742 127.828 122.188" stroke="#CC454E" stroke-width="2" stroke-miterlimit="10" stroke-linecap="round"/>
<path d="M117.709 117.052C118.429 117.052 119.012 116.118 119.012 114.965C119.012 113.813 118.429 112.879 117.709 112.879C116.99 112.879 116.406 113.813 116.406 114.965C116.406 116.118 116.99 117.052 117.709 117.052Z" fill="#262D40"/>
<path d="M134.74 116.08C135.46 116.08 136.043 115.146 136.043 113.994C136.043 112.841 135.46 111.907 134.74 111.907C134.021 111.907 133.438 112.841 133.438 113.994C133.438 115.146 134.021 116.08 134.74 116.08Z" fill="#262D40"/>
<path d="M126.767 125.031C126.767 125.031 126.512 125.534 126.023 126.218C125.259 127.261 123.956 128.7 122.179 129.261C121.428 129.506 120.614 129.592 119.707 129.427C117.045 128.945 116.344 126.448 116.217 124.527C116.188 124.153 116.188 123.808 116.195 123.491C116.21 122.714 116.294 122.196 116.294 122.196C120.536 124.57 126.774 125.031 126.774 125.031H126.767Z" fill="#CC454E"/>
<path d="M126.766 125.031C126.766 125.031 126.511 125.534 126.023 126.218C123.856 126.189 119.423 125.06 116.188 123.491C116.202 122.714 116.287 122.196 116.287 122.196C120.528 124.57 126.766 125.031 126.766 125.031Z" fill="white"/>
<path d="M122.173 129.254C121.422 129.499 120.608 129.585 119.702 129.42C117.039 128.938 116.338 126.441 116.211 124.521C117.5 124.679 118.746 125.182 119.78 125.981C120.863 126.823 121.691 127.967 122.173 129.254Z" fill="#E8729B"/>
<path d="M96.8587 102.442C96.8587 102.442 96.71 93.471 100.385 84.5572C104.994 73.37 114.391 68.5857 123.504 68.262C134.486 67.8663 141.361 75.3556 141.361 75.3556C141.361 75.3556 137.785 68.9455 130.733 67.1037C126.102 65.8951 119.113 65.7008 113.506 68.0174C107.728 70.3987 100.526 77.0103 97.9208 83.996C95.3221 90.9817 94.0547 101.86 94.0547 101.86L96.8587 102.442Z" fill="#561F37"/>
<path d="M96.6761 125.785C101.379 125.288 104.59 119.016 103.848 111.776C103.107 104.536 98.6938 99.0695 93.9912 99.5667C89.2887 100.064 86.0776 106.336 86.819 113.576C87.5604 120.816 91.9736 126.282 96.6761 125.785Z" fill="#561F37"/>
<path d="M91.6038 103.826C94.6414 103.366 97.7499 107.387 98.5571 112.812C99.3572 118.236 97.5516 123.013 94.514 123.474C91.4763 123.934 88.3679 119.912 87.5607 114.488C86.7605 109.063 88.5661 104.286 91.6038 103.826Z" fill="white"/>
<path d="M123.568 136.19C126.086 136.19 128.128 134.898 128.128 133.305C128.128 131.712 126.086 130.42 123.568 130.42C121.049 130.42 119.008 131.712 119.008 133.305C119.008 134.898 121.049 136.19 123.568 136.19Z" fill="#561F37"/>
<path d="M100.664 123.657C100.664 123.657 107.362 132.406 119.01 133.305" stroke="#561F37" stroke-width="2" stroke-miterlimit="10" stroke-linecap="round"/>
<path d="M128.578 209.88L128.139 221.384C128.139 221.384 87.1911 233.852 80.4289 229.909C77.1293 227.981 74.0492 217.377 71.7479 207.024C69.3405 196.146 67.7969 185.556 67.7969 185.556L91.8006 180.779C91.8006 180.779 91.8148 195.65 92.6291 204.247C92.9194 207.449 93.3372 209.78 93.8966 210.161C96.0137 211.578 128.578 209.88 128.578 209.88Z" fill="#F9A07B"/>
<path d="M92.6291 204.233C88.2673 205.672 79.8483 207.895 71.7479 207.017C69.3405 196.14 67.7969 185.55 67.7969 185.55L91.8006 180.772C91.8006 180.772 91.8148 195.636 92.6291 204.233Z" fill="#E06A58"/>
<path d="M127.408 209.995C133.498 208.672 143.807 205.492 148.084 204.398C151.122 203.621 159.031 207.779 161.12 211.7C162.033 213.413 162.897 223.111 159.732 222.111C158.146 221.607 158.408 217.449 157.912 215.751C157.509 214.37 156.22 213.031 154.259 211.88C155.569 215.197 155.519 218.089 155.377 221.672C155.349 222.463 155.299 223.29 154.924 223.974C154.542 224.657 153.72 225.147 153.012 224.844C152.29 224.542 152.042 223.629 151.88 222.83C151.32 220.067 150.754 217.305 150.527 214.182C150.584 217.254 150.527 220.334 150.329 223.398C150.187 225.744 149.04 227.032 147.631 226.621C147.001 226.442 146.746 225.852 146.477 225.075C146.052 226.578 144.99 228.24 143.616 227.607C142.781 227.226 142.264 224.161 142.413 221.01C139.778 222.672 136.805 223.377 133.377 223.535C130.304 223.679 127.161 223.096 125.312 220.974C125.497 217.657 126.573 212.751 127.408 209.995Z" fill="#F9A07B"/>
<path d="M146.54 224.6C146.746 222.111 146.54 219.586 145.91 217.183" stroke="#CC454E" stroke-miterlimit="10" stroke-linecap="round"/>
<path d="M89.1001 156.65C87.3583 151.664 80.9785 141.463 80.9785 141.463C80.9785 141.463 71.2425 145.578 67.7871 152.564C61.9384 164.391 64.9123 198.349 64.9123 198.349C72.7932 201.701 88.6116 201.751 95.3454 200.787C95.3454 200.787 92.591 166.614 89.1001 156.65Z" fill="#8A4FFF"/>
<path d="M90.3398 158.737C92.9951 171.651 94.4184 183.694 94.8715 195.493" stroke="#9747FF" stroke-miterlimit="10" stroke-linecap="round"/>
<path d="M298.723 231.385H19.543V238.5H298.723V231.385Z" fill="#0B2D50"/>
</svg>
