<svg width="24" height="24" viewBox="0 0 24 24" fill="none" xmlns="http://www.w3.org/2000/svg">
<path d="M11.7357 14.7141C12.6779 13.9221 13.3538 12.8595 13.6716 11.6703C13.9894 10.4812 13.9338 9.22305 13.5124 8.06658C13.0909 6.91011 12.3239 5.91124 11.3155 5.20545C10.3071 4.49966 9.10597 4.12109 7.87508 4.12109C6.6442 4.12109 5.4431 4.49966 4.43467 5.20545C3.42624 5.91124 2.65928 6.91011 2.2378 8.06658C1.81632 9.22305 1.76072 10.4812 2.07854 11.6703C2.39636 12.8595 3.07222 13.9221 4.01446 14.7141C2.54313 15.3794 1.26807 16.4126 0.312273 17.7141C0.135738 17.9546 0.0619957 18.2555 0.107268 18.5504C0.152541 18.8453 0.313119 19.1102 0.553679 19.2867C0.794239 19.4633 1.09507 19.537 1.39 19.4917C1.68493 19.4465 1.9498 19.2859 2.12634 19.0453C2.78797 18.1417 3.6533 17.4068 4.65212 16.9002C5.65095 16.3936 6.75513 16.1296 7.87508 16.1296C8.99504 16.1296 10.0992 16.3936 11.098 16.9002C12.0969 17.4068 12.9622 18.1417 13.6238 19.0453C13.8004 19.286 14.0653 19.4467 14.3603 19.4921C14.6553 19.5374 14.9563 19.4637 15.197 19.2872C15.4376 19.1107 15.5983 18.8458 15.6437 18.5507C15.6891 18.2557 15.6154 17.9548 15.4388 17.7141C14.4825 16.4128 13.2072 15.3796 11.7357 14.7141ZM4.12508 10.126C4.12508 9.38428 4.34502 8.65926 4.75707 8.04257C5.16913 7.42589 5.7548 6.94524 6.44002 6.66141C7.12525 6.37758 7.87924 6.30332 8.60667 6.44802C9.3341 6.59271 10.0023 6.94986 10.5267 7.47431C11.0512 7.99876 11.4083 8.66694 11.553 9.39437C11.6977 10.1218 11.6235 10.8758 11.3396 11.561C11.0558 12.2462 10.5752 12.8319 9.95847 13.244C9.34179 13.656 8.61677 13.876 7.87508 13.876C6.88052 13.876 5.9267 13.4809 5.22343 12.7776C4.52017 12.0743 4.12508 11.1205 4.12508 10.126ZM23.447 19.2825C23.3279 19.37 23.1927 19.4332 23.0492 19.4685C22.9056 19.5037 22.7566 19.5104 22.6105 19.488C22.4644 19.4656 22.3241 19.4147 22.1977 19.3381C22.0713 19.2615 21.9613 19.1607 21.8738 19.0416C21.2106 18.1397 20.3449 17.406 19.3464 16.8996C18.348 16.3932 17.2446 16.1282 16.1251 16.126C15.8267 16.126 15.5406 16.0074 15.3296 15.7965C15.1186 15.5855 15.0001 15.2993 15.0001 15.001C15.0001 14.7026 15.1186 14.4164 15.3296 14.2055C15.5406 13.9945 15.8267 13.876 16.1251 13.876C16.6581 13.875 17.1848 13.7604 17.67 13.5399C18.1552 13.3194 18.5879 12.9979 18.9391 12.597C19.2903 12.1961 19.5521 11.7249 19.7068 11.2149C19.8616 10.7048 19.9059 10.1676 19.8367 9.63915C19.7675 9.11065 19.5864 8.60298 19.3056 8.14997C19.0247 7.69697 18.6505 7.30904 18.2079 7.01205C17.7653 6.71506 17.2645 6.51583 16.7388 6.42765C16.2132 6.33946 15.6747 6.36435 15.1595 6.50065C15.0155 6.54228 14.8648 6.55476 14.716 6.53733C14.5672 6.5199 14.4233 6.47293 14.2929 6.39917C14.1625 6.32541 14.0482 6.22635 13.9566 6.10779C13.865 5.98924 13.798 5.85358 13.7595 5.70879C13.7211 5.56399 13.7119 5.41297 13.7326 5.26459C13.7533 5.1162 13.8034 4.97345 13.88 4.8447C13.9566 4.71595 14.0582 4.6038 14.1787 4.51483C14.2993 4.42585 14.4364 4.36186 14.582 4.32659C15.8996 3.97746 17.2968 4.08739 18.5436 4.63828C19.7904 5.18916 20.8125 6.14817 21.4416 7.35742C22.0706 8.56666 22.2692 9.95407 22.0046 11.2912C21.74 12.6284 21.0279 13.8356 19.9857 14.7141C21.457 15.3794 22.7321 16.4126 23.6879 17.7141C23.8632 17.9543 23.9362 18.2541 23.8911 18.548C23.8459 18.8419 23.6862 19.106 23.447 19.2825Z" fill="#545454"/>
</svg>
