<svg width="548" height="89" viewBox="0 0 548 89" fill="none" xmlns="http://www.w3.org/2000/svg">
<mask id="mask0_1814_5887" style="mask-type:alpha" maskUnits="userSpaceOnUse" x="0" y="1" width="547" height="80">
<rect y="1" width="547" height="80" fill="#C4C4C4"/>
</mask>
<g mask="url(#mask0_1814_5887)">
<g filter="url(#filter0_i_1814_5887)">
<rect x="36.7031" y="11.9473" width="474.302" height="11.7895" fill="#F0EBFF"/>
</g>
</g>
<g clip-path="url(#clip0_1814_5887)">
<g filter="url(#filter1_i_1814_5887)">
<circle cx="40.2185" cy="17.7165" r="16.9333" fill="#F0EBFF"/>
</g>
<mask id="mask1_1814_5887" style="mask-type:alpha" maskUnits="userSpaceOnUse" x="23" y="0" width="35" height="35">
<circle cx="40.2185" cy="17.7165" r="16.9333" fill="#F0F0F0"/>
</mask>
<g mask="url(#mask1_1814_5887)">
</g>
<rect x="30.9057" y="8.4028" width="18.6277" height="18.6277" rx="9.31383" fill="white"/>
<rect x="30.9057" y="8.4028" width="18.6277" height="18.6277" rx="9.31383" stroke="#8A4FFF" stroke-width="4.23333"/>
</g>
<path d="M40.2167 44.8096L44.6161 51.1596H35.8173L40.2167 44.8096Z" fill="#F0EBFF"/>
<mask id="mask2_1814_5887" style="mask-type:alpha" maskUnits="userSpaceOnUse" x="35" y="44" width="10" height="8">
<path d="M40.2167 44.8096L44.6161 51.1596H35.8173L40.2167 44.8096Z" fill="#D9D9D9"/>
</mask>
<g mask="url(#mask2_1814_5887)">
<circle cx="40.2172" cy="49.4662" r="6.35" fill="#8A4FFF"/>
</g>
<g clip-path="url(#clip1_1814_5887)">
<g filter="url(#filter2_i_1814_5887)">
<circle cx="195.742" cy="17.7165" r="16.9333" fill="#F0EBFF"/>
</g>
<mask id="mask3_1814_5887" style="mask-type:alpha" maskUnits="userSpaceOnUse" x="178" y="0" width="35" height="35">
<circle cx="195.742" cy="17.7165" r="16.9333" fill="#F0F0F0"/>
</mask>
<g mask="url(#mask3_1814_5887)">
</g>
<rect x="184.312" y="6.28613" width="22.861" height="22.861" rx="11.4305" fill="#C3BEF7"/>
<path d="M199.911 22.1288V23.9756H191.736V22.3997L195.602 18.2548C195.991 17.8225 196.297 17.4422 196.522 17.1139C196.746 16.7801 196.907 16.4819 197.006 16.2192C197.11 15.9511 197.162 15.6967 197.162 15.4559C197.162 15.0948 197.102 14.7856 196.981 14.5284C196.861 14.2658 196.683 14.0633 196.448 13.921C196.218 13.7788 195.933 13.7076 195.594 13.7076C195.233 13.7076 194.921 13.7952 194.658 13.9703C194.401 14.1454 194.204 14.3889 194.067 14.7008C193.936 15.0127 193.87 15.3656 193.87 15.7596H191.498C191.498 15.0482 191.668 14.3971 192.007 13.8061C192.347 13.2097 192.825 12.7364 193.444 12.3862C194.062 12.0305 194.795 11.8527 195.643 11.8527C196.481 11.8527 197.186 11.9895 197.761 12.2631C198.341 12.5312 198.779 12.9197 199.074 13.4286C199.375 13.932 199.526 14.5339 199.526 15.2343C199.526 15.6283 199.463 16.014 199.337 16.3916C199.211 16.7637 199.03 17.1358 198.795 17.5078C198.565 17.8745 198.286 18.2465 197.958 18.6241C197.63 19.0017 197.266 19.3929 196.866 19.7978L194.79 22.1288H199.911Z" fill="white"/>
</g>
<path d="M195.74 44.8096L200.14 51.1596H191.341L195.74 44.8096Z" fill="#F0EBFF"/>
<mask id="mask4_1814_5887" style="mask-type:alpha" maskUnits="userSpaceOnUse" x="191" y="44" width="10" height="8">
<path d="M195.74 44.8096L200.14 51.1596H191.341L195.74 44.8096Z" fill="#D9D9D9"/>
</mask>
<g mask="url(#mask4_1814_5887)">
</g>
<g clip-path="url(#clip2_1814_5887)">
<g filter="url(#filter3_i_1814_5887)">
<circle cx="351.261" cy="17.7165" r="16.9333" fill="#F0EBFF"/>
</g>
<mask id="mask5_1814_5887" style="mask-type:alpha" maskUnits="userSpaceOnUse" x="334" y="0" width="35" height="35">
<circle cx="351.261" cy="17.7165" r="16.9333" fill="#F0F0F0"/>
</mask>
<g mask="url(#mask5_1814_5887)">
</g>
<rect x="339.832" y="6.28613" width="22.861" height="22.861" rx="11.4305" fill="#C3BEF7"/>
<path d="M349.677 16.9743H350.941C351.346 16.9743 351.68 16.9059 351.943 16.7691C352.205 16.6269 352.4 16.4299 352.525 16.1782C352.657 15.921 352.722 15.6228 352.722 15.2835C352.722 14.9771 352.662 14.7063 352.542 14.471C352.427 14.2302 352.249 14.0442 352.008 13.9128C351.768 13.776 351.464 13.7076 351.097 13.7076C350.807 13.7076 350.539 13.7651 350.293 13.88C350.047 13.9949 349.85 14.1563 349.702 14.3643C349.554 14.5722 349.48 14.8239 349.48 15.1194H347.108C347.108 14.4628 347.283 13.8909 347.634 13.404C347.989 12.917 348.465 12.5367 349.062 12.2631C349.658 11.9895 350.315 11.8527 351.032 11.8527C351.841 11.8527 352.55 11.984 353.157 12.2467C353.765 12.5038 354.238 12.8841 354.577 13.3875C354.917 13.8909 355.086 14.5147 355.086 15.2589C355.086 15.6365 354.999 16.0031 354.824 16.3588C354.648 16.709 354.397 17.0263 354.068 17.3109C353.746 17.5899 353.352 17.8143 352.887 17.9839C352.421 18.1481 351.899 18.2301 351.319 18.2301H349.677V16.9743ZM349.677 18.7718V17.5489H351.319C351.97 17.5489 352.542 17.6228 353.034 17.7705C353.527 17.9182 353.94 18.1316 354.274 18.4107C354.607 18.6843 354.859 19.0099 355.029 19.3874C355.198 19.7595 355.283 20.1726 355.283 20.6268C355.283 21.1849 355.176 21.6829 354.963 22.1206C354.75 22.5529 354.449 22.9195 354.06 23.2205C353.677 23.5214 353.228 23.7512 352.714 23.9099C352.2 24.0631 351.639 24.1397 351.032 24.1397C350.528 24.1397 350.033 24.0713 349.546 23.9345C349.064 23.7923 348.627 23.5816 348.233 23.3025C347.844 23.018 347.532 22.6623 347.297 22.2355C347.067 21.8033 346.952 21.2916 346.952 20.7007H349.324C349.324 21.0071 349.401 21.2807 349.554 21.5215C349.707 21.7622 349.918 21.951 350.186 22.0878C350.46 22.2246 350.763 22.293 351.097 22.293C351.475 22.293 351.798 22.2246 352.066 22.0878C352.339 21.9455 352.547 21.7485 352.69 21.4968C352.837 21.2397 352.911 20.9414 352.911 20.6022C352.911 20.1644 352.832 19.8142 352.673 19.5516C352.514 19.2835 352.287 19.0865 351.992 18.9606C351.696 18.8348 351.346 18.7718 350.941 18.7718H349.677Z" fill="white"/>
</g>
<path d="M351.26 44.8096L355.659 51.1596H346.86L351.26 44.8096Z" fill="#F0EBFF"/>
<mask id="mask6_1814_5887" style="mask-type:alpha" maskUnits="userSpaceOnUse" x="346" y="44" width="10" height="8">
<path d="M351.26 44.8096L355.659 51.1596H346.86L351.26 44.8096Z" fill="#D9D9D9"/>
</mask>
<g mask="url(#mask6_1814_5887)">
</g>
<g clip-path="url(#clip3_1814_5887)">
<g filter="url(#filter4_i_1814_5887)">
<circle cx="506.785" cy="17.7165" r="16.9333" fill="#F0EBFF"/>
</g>
<mask id="mask7_1814_5887" style="mask-type:alpha" maskUnits="userSpaceOnUse" x="489" y="0" width="35" height="35">
<circle cx="506.785" cy="17.7165" r="16.9333" fill="#F0F0F0"/>
</mask>
<g mask="url(#mask7_1814_5887)">
</g>
<rect x="495.355" y="6.28613" width="22.861" height="22.861" rx="11.4305" fill="#C3BEF7"/>
<path d="M511.151 19.5105V21.3655H502.541L502.426 19.9291L507.409 12.025H509.288L507.253 15.4313L504.774 19.5105H511.151ZM509.797 12.025V23.9756H507.433V12.025H509.797Z" fill="white"/>
</g>
<path d="M506.783 44.8096L511.183 51.1596H502.384L506.783 44.8096Z" fill="#F0EBFF"/>
<mask id="mask8_1814_5887" style="mask-type:alpha" maskUnits="userSpaceOnUse" x="502" y="44" width="10" height="8">
<path d="M506.783 44.8096L511.183 51.1596H502.384L506.783 44.8096Z" fill="#D9D9D9"/>
</mask>
<g mask="url(#mask8_1814_5887)">
</g>
<rect x="0.890625" y="61.6396" width="87.3918" height="26.7526" rx="13.3763" fill="#8A4FFF"/>
<path d="M16.5041 75.0254H14.342L14.3302 74.1172H16.2931C16.6173 74.1172 16.9005 74.0625 17.1427 73.9531C17.3849 73.8438 17.5724 73.6875 17.7052 73.4844C17.842 73.2773 17.9103 73.0312 17.9103 72.7461C17.9103 72.4336 17.8498 72.1797 17.7287 71.9844C17.6115 71.7852 17.4298 71.6406 17.1838 71.5508C16.9416 71.457 16.633 71.4102 16.258 71.4102H14.5939V79.0156H13.463V70.4844H16.258C16.6955 70.4844 17.0861 70.5293 17.4298 70.6191C17.7736 70.7051 18.0646 70.8418 18.3029 71.0293C18.5451 71.2129 18.7287 71.4473 18.8537 71.7324C18.9787 72.0176 19.0412 72.3594 19.0412 72.7578C19.0412 73.1094 18.9513 73.4277 18.7716 73.7129C18.592 73.9941 18.342 74.2246 18.0216 74.4043C17.7052 74.584 17.3341 74.6992 16.9084 74.75L16.5041 75.0254ZM16.4513 79.0156H13.8966L14.5353 78.0957H16.4513C16.8107 78.0957 17.1154 78.0332 17.3654 77.9082C17.6193 77.7832 17.8127 77.6074 17.9455 77.3809C18.0783 77.1504 18.1447 76.8789 18.1447 76.5664C18.1447 76.25 18.088 75.9766 17.9748 75.7461C17.8615 75.5156 17.6838 75.3379 17.4416 75.2129C17.1994 75.0879 16.8869 75.0254 16.5041 75.0254H14.8927L14.9045 74.1172H17.1076L17.3478 74.4453C17.758 74.4805 18.1056 74.5977 18.3908 74.7969C18.6759 74.9922 18.8927 75.2422 19.0412 75.5469C19.1935 75.8516 19.2697 76.1875 19.2697 76.5547C19.2697 77.0859 19.1525 77.5352 18.9181 77.9023C18.6877 78.2656 18.3615 78.543 17.9396 78.7344C17.5177 78.9219 17.0216 79.0156 16.4513 79.0156ZM24.6338 77.9316V74.668C24.6338 74.418 24.583 74.2012 24.4815 74.0176C24.3838 73.8301 24.2354 73.6855 24.0362 73.584C23.837 73.4824 23.5909 73.4316 23.2979 73.4316C23.0245 73.4316 22.7842 73.4785 22.5772 73.5723C22.3741 73.666 22.2139 73.7891 22.0967 73.9414C21.9834 74.0938 21.9268 74.2578 21.9268 74.4336H20.8428C20.8428 74.207 20.9014 73.9824 21.0186 73.7598C21.1358 73.5371 21.3038 73.3359 21.5225 73.1562C21.7452 72.9727 22.0108 72.8281 22.3194 72.7227C22.6319 72.6133 22.9795 72.5586 23.3623 72.5586C23.8233 72.5586 24.2295 72.6367 24.5811 72.793C24.9366 72.9492 25.2139 73.1855 25.4131 73.502C25.6163 73.8145 25.7178 74.207 25.7178 74.6797V77.6328C25.7178 77.8438 25.7354 78.0684 25.7705 78.3066C25.8096 78.5449 25.8663 78.75 25.9405 78.9219V79.0156H24.8096C24.7549 78.8906 24.712 78.7246 24.6807 78.5176C24.6495 78.3066 24.6338 78.1113 24.6338 77.9316ZM24.8213 75.1719L24.833 75.9336H23.7373C23.4288 75.9336 23.1534 75.959 22.9112 76.0098C22.669 76.0566 22.4659 76.1289 22.3018 76.2266C22.1377 76.3242 22.0127 76.4473 21.9268 76.5957C21.8409 76.7402 21.7979 76.9102 21.7979 77.1055C21.7979 77.3047 21.8428 77.4863 21.9327 77.6504C22.0225 77.8145 22.1573 77.9453 22.337 78.043C22.5205 78.1367 22.7452 78.1836 23.0108 78.1836C23.3428 78.1836 23.6358 78.1133 23.8897 77.9727C24.1436 77.832 24.3448 77.6602 24.4932 77.457C24.6455 77.2539 24.7276 77.0566 24.7393 76.8652L25.2022 77.3867C25.1748 77.5508 25.1006 77.7324 24.9795 77.9316C24.8584 78.1309 24.6963 78.3223 24.4932 78.5059C24.294 78.6855 24.0557 78.8359 23.7784 78.957C23.5049 79.0742 23.1963 79.1328 22.8526 79.1328C22.4229 79.1328 22.0459 79.0488 21.7217 78.8809C21.4014 78.7129 21.1514 78.4883 20.9717 78.207C20.7959 77.9219 20.708 77.6035 20.708 77.252C20.708 76.9121 20.7745 76.6133 20.9073 76.3555C21.0401 76.0938 21.2315 75.877 21.4815 75.7051C21.7315 75.5293 22.0323 75.3965 22.3838 75.3066C22.7354 75.2168 23.128 75.1719 23.5616 75.1719H24.8213ZM31.2343 77.334C31.2343 77.1777 31.1991 77.0332 31.1288 76.9004C31.0624 76.7637 30.9237 76.6406 30.7128 76.5312C30.5058 76.418 30.1933 76.3203 29.7753 76.2383C29.4237 76.1641 29.1054 76.0762 28.8202 75.9746C28.539 75.873 28.2987 75.75 28.0995 75.6055C27.9042 75.4609 27.7538 75.291 27.6484 75.0957C27.5429 74.9004 27.4902 74.6719 27.4902 74.4102C27.4902 74.1602 27.5448 73.9238 27.6542 73.7012C27.7675 73.4785 27.9257 73.2812 28.1288 73.1094C28.3359 72.9375 28.5839 72.8027 28.873 72.7051C29.162 72.6074 29.4843 72.5586 29.8398 72.5586C30.3476 72.5586 30.7812 72.6484 31.1405 72.8281C31.4999 73.0078 31.7753 73.248 31.9667 73.5488C32.1581 73.8457 32.2538 74.1758 32.2538 74.5391H31.1698C31.1698 74.3633 31.1171 74.1934 31.0116 74.0293C30.9101 73.8613 30.7597 73.7227 30.5605 73.6133C30.3652 73.5039 30.1249 73.4492 29.8398 73.4492C29.539 73.4492 29.2948 73.4961 29.1073 73.5898C28.9237 73.6797 28.789 73.7949 28.703 73.9355C28.621 74.0762 28.58 74.2246 28.58 74.3809C28.58 74.498 28.5995 74.6035 28.6386 74.6973C28.6816 74.7871 28.7558 74.8711 28.8612 74.9492C28.9667 75.0234 29.1152 75.0938 29.3066 75.1602C29.498 75.2266 29.7421 75.293 30.039 75.3594C30.5585 75.4766 30.9862 75.6172 31.3222 75.7812C31.6581 75.9453 31.9081 76.1465 32.0722 76.3848C32.2362 76.623 32.3183 76.9121 32.3183 77.252C32.3183 77.5293 32.2597 77.7832 32.1425 78.0137C32.0292 78.2441 31.8632 78.4434 31.6445 78.6113C31.4296 78.7754 31.1718 78.9043 30.871 78.998C30.5741 79.0879 30.2402 79.1328 29.8691 79.1328C29.3105 79.1328 28.8378 79.0332 28.4511 78.834C28.0644 78.6348 27.7714 78.377 27.5722 78.0605C27.373 77.7441 27.2734 77.4102 27.2734 77.0586H28.3632C28.3788 77.3555 28.4648 77.5918 28.621 77.7676C28.7773 77.9395 28.9687 78.0625 29.1952 78.1367C29.4218 78.207 29.6464 78.2422 29.8691 78.2422C30.1659 78.2422 30.414 78.2031 30.6132 78.125C30.8163 78.0469 30.9706 77.9395 31.0761 77.8027C31.1816 77.666 31.2343 77.5098 31.2343 77.334ZM35.0398 72.6758V79.0156H33.95V72.6758H35.0398ZM33.868 70.9941C33.868 70.8184 33.9207 70.6699 34.0262 70.5488C34.1355 70.4277 34.2957 70.3672 34.5066 70.3672C34.7137 70.3672 34.8719 70.4277 34.9813 70.5488C35.0945 70.6699 35.1512 70.8184 35.1512 70.9941C35.1512 71.1621 35.0945 71.3066 34.9813 71.4277C34.8719 71.5449 34.7137 71.6035 34.5066 71.6035C34.2957 71.6035 34.1355 71.5449 34.0262 71.4277C33.9207 71.3066 33.868 71.1621 33.868 70.9941ZM39.4372 78.2422C39.695 78.2422 39.9333 78.1895 40.152 78.084C40.3708 77.9785 40.5505 77.834 40.6911 77.6504C40.8317 77.4629 40.9118 77.25 40.9313 77.0117H41.9626C41.943 77.3867 41.8161 77.7363 41.5817 78.0605C41.3512 78.3809 41.0485 78.6406 40.6735 78.8398C40.2985 79.0352 39.8864 79.1328 39.4372 79.1328C38.9606 79.1328 38.5446 79.0488 38.1891 78.8809C37.8376 78.7129 37.5446 78.4824 37.3102 78.1895C37.0798 77.8965 36.9059 77.5605 36.7887 77.1816C36.6755 76.7988 36.6188 76.3945 36.6188 75.9688V75.7227C36.6188 75.2969 36.6755 74.8945 36.7887 74.5156C36.9059 74.1328 37.0798 73.7949 37.3102 73.502C37.5446 73.209 37.8376 72.9785 38.1891 72.8105C38.5446 72.6426 38.9606 72.5586 39.4372 72.5586C39.9333 72.5586 40.3669 72.6602 40.738 72.8633C41.1091 73.0625 41.4001 73.3359 41.611 73.6836C41.8259 74.0273 41.943 74.418 41.9626 74.8555H40.9313C40.9118 74.5938 40.8376 74.3574 40.7087 74.1465C40.5837 73.9355 40.4118 73.7676 40.193 73.6426C39.9782 73.5137 39.7262 73.4492 39.4372 73.4492C39.1052 73.4492 38.8259 73.5156 38.5993 73.6484C38.3766 73.7773 38.1989 73.9531 38.0661 74.1758C37.9372 74.3945 37.8434 74.6387 37.7848 74.9082C37.7302 75.1738 37.7028 75.4453 37.7028 75.7227V75.9688C37.7028 76.2461 37.7302 76.5195 37.7848 76.7891C37.8395 77.0586 37.9313 77.3027 38.0602 77.5215C38.193 77.7402 38.3708 77.916 38.5934 78.0488C38.82 78.1777 39.1012 78.2422 39.4372 78.2422ZM48.8705 79.0156H47.0893L47.101 78.0957H48.8705C49.4799 78.0957 49.9877 77.9688 50.394 77.7148C50.8002 77.457 51.1049 77.0977 51.308 76.6367C51.5151 76.1719 51.6186 75.6289 51.6186 75.0078V74.4863C51.6186 73.998 51.56 73.5645 51.4428 73.1855C51.3256 72.8027 51.1538 72.4805 50.9272 72.2188C50.7006 71.9531 50.4233 71.752 50.0952 71.6152C49.7709 71.4785 49.3979 71.4102 48.976 71.4102H47.0541V70.4844H48.976C49.5346 70.4844 50.0444 70.5781 50.5053 70.7656C50.9663 70.9492 51.3627 71.2168 51.6948 71.5684C52.0307 71.916 52.2885 72.3379 52.4682 72.834C52.6479 73.3262 52.7377 73.8809 52.7377 74.498V75.0078C52.7377 75.625 52.6479 76.1816 52.4682 76.6777C52.2885 77.1699 52.0288 77.5898 51.6889 77.9375C51.353 78.2852 50.9467 78.5527 50.4702 78.7402C49.9975 78.9238 49.4643 79.0156 48.8705 79.0156ZM47.6928 70.4844V79.0156H46.562V70.4844H47.6928ZM57.0238 79.1328C56.5823 79.1328 56.182 79.0586 55.8226 78.9102C55.4671 78.7578 55.1605 78.5449 54.9027 78.2715C54.6488 77.998 54.4534 77.6738 54.3167 77.2988C54.18 76.9238 54.1116 76.5137 54.1116 76.0684V75.8223C54.1116 75.3066 54.1878 74.8477 54.3402 74.4453C54.4925 74.0391 54.6995 73.6953 54.9613 73.4141C55.223 73.1328 55.5198 72.9199 55.8519 72.7754C56.1839 72.6309 56.5277 72.5586 56.8831 72.5586C57.3363 72.5586 57.7269 72.6367 58.055 72.793C58.387 72.9492 58.6585 73.168 58.8695 73.4492C59.0804 73.7266 59.2366 74.0547 59.3382 74.4336C59.4398 74.8086 59.4905 75.2188 59.4905 75.6641V76.1504H54.7562V75.2656H58.4066V75.1836C58.3909 74.9023 58.3323 74.6289 58.2308 74.3633C58.1331 74.0977 57.9769 73.8789 57.762 73.707C57.5472 73.5352 57.2542 73.4492 56.8831 73.4492C56.637 73.4492 56.4105 73.502 56.2034 73.6074C55.9964 73.709 55.8187 73.8613 55.6702 74.0645C55.5218 74.2676 55.4066 74.5156 55.3245 74.8086C55.2425 75.1016 55.2015 75.4395 55.2015 75.8223V76.0684C55.2015 76.3691 55.2425 76.6523 55.3245 76.918C55.4105 77.1797 55.5335 77.4102 55.6937 77.6094C55.8577 77.8086 56.055 77.9648 56.2855 78.0781C56.5198 78.1914 56.7855 78.248 57.0823 78.248C57.4652 78.248 57.7894 78.1699 58.055 78.0137C58.3206 77.8574 58.553 77.6484 58.7523 77.3867L59.4085 77.9082C59.2718 78.1152 59.098 78.3125 58.887 78.5C58.6761 78.6875 58.4163 78.8398 58.1077 78.957C57.803 79.0742 57.4417 79.1328 57.0238 79.1328ZM63.5305 72.6758V73.5078H60.1027V72.6758H63.5305ZM61.2629 71.1348H62.3469V77.4453C62.3469 77.6602 62.3801 77.8223 62.4465 77.9316C62.5129 78.041 62.5988 78.1133 62.7043 78.1484C62.8098 78.1836 62.923 78.2012 63.0441 78.2012C63.134 78.2012 63.2277 78.1934 63.3254 78.1777C63.427 78.1582 63.5031 78.1426 63.5539 78.1309L63.5598 79.0156C63.4738 79.043 63.3605 79.0684 63.2199 79.0918C63.0832 79.1191 62.9172 79.1328 62.7219 79.1328C62.4562 79.1328 62.2121 79.0801 61.9895 78.9746C61.7668 78.8691 61.5891 78.6934 61.4562 78.4473C61.3273 78.1973 61.2629 77.8613 61.2629 77.4395V71.1348ZM68.6602 77.9316V74.668C68.6602 74.418 68.6095 74.2012 68.5079 74.0176C68.4102 73.8301 68.2618 73.6855 68.0626 73.584C67.8634 73.4824 67.6173 73.4316 67.3243 73.4316C67.0509 73.4316 66.8106 73.4785 66.6036 73.5723C66.4005 73.666 66.2403 73.7891 66.1231 73.9414C66.0098 74.0938 65.9532 74.2578 65.9532 74.4336H64.8692C64.8692 74.207 64.9278 73.9824 65.045 73.7598C65.1622 73.5371 65.3302 73.3359 65.5489 73.1562C65.7716 72.9727 66.0372 72.8281 66.3458 72.7227C66.6583 72.6133 67.0059 72.5586 67.3888 72.5586C67.8497 72.5586 68.2559 72.6367 68.6075 72.793C68.963 72.9492 69.2403 73.1855 69.4395 73.502C69.6427 73.8145 69.7442 74.207 69.7442 74.6797V77.6328C69.7442 77.8438 69.7618 78.0684 69.797 78.3066C69.836 78.5449 69.8927 78.75 69.9669 78.9219V79.0156H68.836C68.7813 78.8906 68.7384 78.7246 68.7071 78.5176C68.6759 78.3066 68.6602 78.1113 68.6602 77.9316ZM68.8477 75.1719L68.8595 75.9336H67.7638C67.4552 75.9336 67.1798 75.959 66.9376 76.0098C66.6954 76.0566 66.4923 76.1289 66.3282 76.2266C66.1641 76.3242 66.0391 76.4473 65.9532 76.5957C65.8673 76.7402 65.8243 76.9102 65.8243 77.1055C65.8243 77.3047 65.8692 77.4863 65.9591 77.6504C66.0489 77.8145 66.1837 77.9453 66.3634 78.043C66.547 78.1367 66.7716 78.1836 67.0372 78.1836C67.3692 78.1836 67.6622 78.1133 67.9161 77.9727C68.17 77.832 68.3712 77.6602 68.5196 77.457C68.672 77.2539 68.754 77.0566 68.7657 76.8652L69.2286 77.3867C69.2013 77.5508 69.127 77.7324 69.0059 77.9316C68.8848 78.1309 68.7227 78.3223 68.5196 78.5059C68.3204 78.6855 68.0821 78.8359 67.8048 78.957C67.5313 79.0742 67.2227 79.1328 66.879 79.1328C66.4493 79.1328 66.0723 79.0488 65.7481 78.8809C65.4278 78.7129 65.1778 78.4883 64.9981 78.207C64.8223 77.9219 64.7345 77.6035 64.7345 77.252C64.7345 76.9121 64.8009 76.6133 64.9337 76.3555C65.0665 76.0938 65.2579 75.877 65.5079 75.7051C65.7579 75.5293 66.0587 75.3965 66.4102 75.3066C66.7618 75.2168 67.1544 75.1719 67.588 75.1719H68.8477ZM72.747 72.6758V79.0156H71.6572V72.6758H72.747ZM71.5752 70.9941C71.5752 70.8184 71.6279 70.6699 71.7334 70.5488C71.8427 70.4277 72.0029 70.3672 72.2138 70.3672C72.4209 70.3672 72.5791 70.4277 72.6884 70.5488C72.8017 70.6699 72.8584 70.8184 72.8584 70.9941C72.8584 71.1621 72.8017 71.3066 72.6884 71.4277C72.5791 71.5449 72.4209 71.6035 72.2138 71.6035C72.0029 71.6035 71.8427 71.5449 71.7334 71.4277C71.6279 71.3066 71.5752 71.1621 71.5752 70.9941ZM75.785 70.0156V79.0156H74.6952V70.0156H75.785Z" fill="white"/>
<rect x="147.554" y="60.5541" width="96.3093" height="27.6443" rx="13.8222" fill="white"/>
<rect x="147.554" y="60.5541" width="96.3093" height="27.6443" rx="13.8222" stroke="#8A4FFF" stroke-width="0.891753"/>
<path d="M160.481 69.8447V78.376H159.35V69.8447H160.481ZM163.578 73.3896V78.376H162.494V72.0361H163.519L163.578 73.3896ZM163.32 74.9658L162.869 74.9482C162.873 74.5146 162.937 74.1143 163.062 73.7471C163.187 73.376 163.363 73.0537 163.589 72.7803C163.816 72.5068 164.086 72.2959 164.398 72.1475C164.714 71.9951 165.064 71.9189 165.447 71.9189C165.759 71.9189 166.041 71.9619 166.291 72.0479C166.541 72.1299 166.754 72.2627 166.929 72.4463C167.109 72.6299 167.246 72.8682 167.339 73.1611C167.433 73.4502 167.48 73.8037 167.48 74.2217V78.376H166.39V74.21C166.39 73.8779 166.341 73.6123 166.244 73.4131C166.146 73.21 166.004 73.0635 165.816 72.9736C165.629 72.8799 165.398 72.833 165.125 72.833C164.855 72.833 164.609 72.8896 164.386 73.0029C164.168 73.1162 163.978 73.2725 163.818 73.4717C163.662 73.6709 163.539 73.8994 163.449 74.1572C163.363 74.4111 163.32 74.6807 163.32 74.9658ZM171.784 77.6025C172.041 77.6025 172.28 77.5498 172.499 77.4443C172.717 77.3389 172.897 77.1943 173.038 77.0107C173.178 76.8232 173.258 76.6104 173.278 76.3721H174.309C174.29 76.7471 174.163 77.0967 173.928 77.4209C173.698 77.7412 173.395 78.001 173.02 78.2002C172.645 78.3955 172.233 78.4932 171.784 78.4932C171.307 78.4932 170.891 78.4092 170.536 78.2412C170.184 78.0732 169.891 77.8428 169.657 77.5498C169.426 77.2568 169.252 76.9209 169.135 76.542C169.022 76.1592 168.965 75.7549 168.965 75.3291V75.083C168.965 74.6572 169.022 74.2549 169.135 73.876C169.252 73.4932 169.426 73.1553 169.657 72.8623C169.891 72.5693 170.184 72.3389 170.536 72.1709C170.891 72.0029 171.307 71.9189 171.784 71.9189C172.28 71.9189 172.713 72.0205 173.084 72.2236C173.456 72.4229 173.747 72.6963 173.957 73.0439C174.172 73.3877 174.29 73.7783 174.309 74.2158H173.278C173.258 73.9541 173.184 73.7178 173.055 73.5068C172.93 73.2959 172.758 73.1279 172.54 73.0029C172.325 72.874 172.073 72.8096 171.784 72.8096C171.452 72.8096 171.172 72.876 170.946 73.0088C170.723 73.1377 170.545 73.3135 170.413 73.5361C170.284 73.7549 170.19 73.999 170.131 74.2686C170.077 74.5342 170.049 74.8057 170.049 75.083V75.3291C170.049 75.6064 170.077 75.8799 170.131 76.1494C170.186 76.4189 170.278 76.6631 170.407 76.8818C170.54 77.1006 170.717 77.2764 170.94 77.4092C171.166 77.5381 171.448 77.6025 171.784 77.6025ZM175.361 75.2764V75.1416C175.361 74.6846 175.427 74.2607 175.56 73.8701C175.693 73.4756 175.884 73.1338 176.134 72.8447C176.384 72.5518 176.687 72.3252 177.042 72.165C177.398 72.001 177.796 71.9189 178.238 71.9189C178.683 71.9189 179.083 72.001 179.439 72.165C179.798 72.3252 180.103 72.5518 180.353 72.8447C180.607 73.1338 180.8 73.4756 180.933 73.8701C181.066 74.2607 181.132 74.6846 181.132 75.1416V75.2764C181.132 75.7334 181.066 76.1572 180.933 76.5479C180.8 76.9385 180.607 77.2803 180.353 77.5732C180.103 77.8623 179.8 78.0889 179.445 78.2529C179.093 78.4131 178.695 78.4932 178.249 78.4932C177.804 78.4932 177.404 78.4131 177.048 78.2529C176.693 78.0889 176.388 77.8623 176.134 77.5732C175.884 77.2803 175.693 76.9385 175.56 76.5479C175.427 76.1572 175.361 75.7334 175.361 75.2764ZM176.445 75.1416V75.2764C176.445 75.5928 176.482 75.8916 176.556 76.1729C176.63 76.4502 176.742 76.6963 176.89 76.9111C177.042 77.126 177.232 77.2959 177.458 77.4209C177.685 77.542 177.949 77.6025 178.249 77.6025C178.546 77.6025 178.806 77.542 179.029 77.4209C179.255 77.2959 179.443 77.126 179.591 76.9111C179.74 76.6963 179.851 76.4502 179.925 76.1729C180.003 75.8916 180.042 75.5928 180.042 75.2764V75.1416C180.042 74.8291 180.003 74.5342 179.925 74.2568C179.851 73.9756 179.738 73.7275 179.585 73.5127C179.437 73.2939 179.249 73.1221 179.023 72.9971C178.8 72.8721 178.538 72.8096 178.238 72.8096C177.941 72.8096 177.679 72.8721 177.452 72.9971C177.23 73.1221 177.042 73.2939 176.89 73.5127C176.742 73.7275 176.63 73.9756 176.556 74.2568C176.482 74.5342 176.445 74.8291 176.445 75.1416ZM183.69 73.2959V78.376H182.6V72.0361H183.631L183.69 73.2959ZM183.467 74.9658L182.963 74.9482C182.967 74.5146 183.024 74.1143 183.133 73.7471C183.242 73.376 183.405 73.0537 183.619 72.7803C183.834 72.5068 184.102 72.2959 184.422 72.1475C184.742 71.9951 185.114 71.9189 185.535 71.9189C185.832 71.9189 186.106 71.9619 186.356 72.0479C186.606 72.1299 186.822 72.2607 187.006 72.4404C187.19 72.6201 187.332 72.8506 187.434 73.1318C187.535 73.4131 187.586 73.7529 187.586 74.1514V78.376H186.502V74.2041C186.502 73.8721 186.446 73.6064 186.332 73.4072C186.223 73.208 186.067 73.0635 185.864 72.9736C185.66 72.8799 185.422 72.833 185.149 72.833C184.828 72.833 184.561 72.8896 184.346 73.0029C184.131 73.1162 183.959 73.2725 183.83 73.4717C183.701 73.6709 183.608 73.8994 183.549 74.1572C183.494 74.4111 183.467 74.6807 183.467 74.9658ZM187.574 74.3682L186.848 74.5908C186.852 74.2432 186.908 73.9092 187.018 73.5889C187.131 73.2686 187.293 72.9834 187.504 72.7334C187.719 72.4834 187.983 72.2861 188.295 72.1416C188.608 71.9932 188.965 71.9189 189.367 71.9189C189.707 71.9189 190.008 71.9639 190.27 72.0537C190.535 72.1436 190.758 72.2822 190.938 72.4697C191.121 72.6533 191.26 72.8896 191.354 73.1787C191.447 73.4678 191.494 73.8115 191.494 74.21V78.376H190.405V74.1982C190.405 73.8428 190.348 73.5674 190.235 73.3721C190.125 73.1729 189.969 73.0342 189.766 72.9561C189.567 72.874 189.328 72.833 189.051 72.833C188.813 72.833 188.602 72.874 188.418 72.9561C188.235 73.0381 188.08 73.1514 187.955 73.2959C187.83 73.4365 187.735 73.5986 187.668 73.7822C187.606 73.9658 187.574 74.1611 187.574 74.3682ZM195.886 78.4932C195.444 78.4932 195.044 78.4189 194.685 78.2705C194.329 78.1182 194.023 77.9053 193.765 77.6318C193.511 77.3584 193.316 77.0342 193.179 76.6592C193.042 76.2842 192.974 75.874 192.974 75.4287V75.1826C192.974 74.667 193.05 74.208 193.202 73.8057C193.355 73.3994 193.562 73.0557 193.823 72.7744C194.085 72.4932 194.382 72.2803 194.714 72.1357C195.046 71.9912 195.39 71.9189 195.745 71.9189C196.198 71.9189 196.589 71.9971 196.917 72.1533C197.249 72.3096 197.521 72.5283 197.732 72.8096C197.942 73.0869 198.099 73.415 198.2 73.7939C198.302 74.1689 198.353 74.5791 198.353 75.0244V75.5107H193.618V74.626H197.269V74.5439C197.253 74.2627 197.194 73.9893 197.093 73.7236C196.995 73.458 196.839 73.2393 196.624 73.0674C196.409 72.8955 196.116 72.8096 195.745 72.8096C195.499 72.8096 195.273 72.8623 195.066 72.9678C194.859 73.0693 194.681 73.2217 194.532 73.4248C194.384 73.6279 194.269 73.876 194.187 74.1689C194.105 74.4619 194.064 74.7998 194.064 75.1826V75.4287C194.064 75.7295 194.105 76.0127 194.187 76.2783C194.273 76.54 194.396 76.7705 194.556 76.9697C194.72 77.1689 194.917 77.3252 195.148 77.4385C195.382 77.5518 195.648 77.6084 195.944 77.6084C196.327 77.6084 196.651 77.5303 196.917 77.374C197.183 77.2178 197.415 77.0088 197.614 76.7471L198.271 77.2686C198.134 77.4756 197.96 77.6729 197.749 77.8604C197.538 78.0479 197.278 78.2002 196.97 78.3174C196.665 78.4346 196.304 78.4932 195.886 78.4932ZM205.307 78.376H203.526L203.538 77.4561H205.307C205.917 77.4561 206.425 77.3291 206.831 77.0752C207.237 76.8174 207.542 76.458 207.745 75.9971C207.952 75.5322 208.056 74.9893 208.056 74.3682V73.8467C208.056 73.3584 207.997 72.9248 207.88 72.5459C207.763 72.1631 207.591 71.8408 207.364 71.5791C207.138 71.3135 206.86 71.1123 206.532 70.9756C206.208 70.8389 205.835 70.7705 205.413 70.7705H203.491V69.8447H205.413C205.972 69.8447 206.481 69.9385 206.942 70.126C207.403 70.3096 207.8 70.5771 208.132 70.9287C208.468 71.2764 208.725 71.6982 208.905 72.1943C209.085 72.6865 209.175 73.2412 209.175 73.8584V74.3682C209.175 74.9854 209.085 75.542 208.905 76.0381C208.725 76.5303 208.466 76.9502 208.126 77.2979C207.79 77.6455 207.384 77.9131 206.907 78.1006C206.434 78.2842 205.901 78.376 205.307 78.376ZM204.13 69.8447V78.376H202.999V69.8447H204.13ZM213.461 78.4932C213.019 78.4932 212.619 78.4189 212.26 78.2705C211.904 78.1182 211.597 77.9053 211.34 77.6318C211.086 77.3584 210.89 77.0342 210.754 76.6592C210.617 76.2842 210.549 75.874 210.549 75.4287V75.1826C210.549 74.667 210.625 74.208 210.777 73.8057C210.929 73.3994 211.136 73.0557 211.398 72.7744C211.66 72.4932 211.957 72.2803 212.289 72.1357C212.621 71.9912 212.965 71.9189 213.32 71.9189C213.773 71.9189 214.164 71.9971 214.492 72.1533C214.824 72.3096 215.095 72.5283 215.306 72.8096C215.517 73.0869 215.674 73.415 215.775 73.7939C215.877 74.1689 215.927 74.5791 215.927 75.0244V75.5107H211.193V74.626H214.844V74.5439C214.828 74.2627 214.769 73.9893 214.668 73.7236C214.57 73.458 214.414 73.2393 214.199 73.0674C213.984 72.8955 213.691 72.8096 213.32 72.8096C213.074 72.8096 212.847 72.8623 212.64 72.9678C212.433 73.0693 212.256 73.2217 212.107 73.4248C211.959 73.6279 211.844 73.876 211.761 74.1689C211.679 74.4619 211.638 74.7998 211.638 75.1826V75.4287C211.638 75.7295 211.679 76.0127 211.761 76.2783C211.847 76.54 211.97 76.7705 212.131 76.9697C212.295 77.1689 212.492 77.3252 212.722 77.4385C212.957 77.5518 213.222 77.6084 213.519 77.6084C213.902 77.6084 214.226 77.5303 214.492 77.374C214.758 77.2178 214.99 77.0088 215.189 76.7471L215.845 77.2686C215.709 77.4756 215.535 77.6729 215.324 77.8604C215.113 78.0479 214.853 78.2002 214.545 78.3174C214.24 78.4346 213.879 78.4932 213.461 78.4932ZM219.967 72.0361V72.8682H216.54V72.0361H219.967ZM217.7 70.4951H218.784V76.8057C218.784 77.0205 218.817 77.1826 218.883 77.292C218.95 77.4014 219.036 77.4736 219.141 77.5088C219.247 77.5439 219.36 77.5615 219.481 77.5615C219.571 77.5615 219.665 77.5537 219.762 77.5381C219.864 77.5186 219.94 77.5029 219.991 77.4912L219.997 78.376C219.911 78.4033 219.798 78.4287 219.657 78.4521C219.52 78.4795 219.354 78.4932 219.159 78.4932C218.893 78.4932 218.649 78.4404 218.426 78.335C218.204 78.2295 218.026 78.0537 217.893 77.8076C217.764 77.5576 217.7 77.2217 217.7 76.7998V70.4951ZM225.097 77.292V74.0283C225.097 73.7783 225.046 73.5615 224.945 73.3779C224.847 73.1904 224.699 73.0459 224.5 72.9443C224.3 72.8428 224.054 72.792 223.761 72.792C223.488 72.792 223.248 72.8389 223.041 72.9326C222.837 73.0264 222.677 73.1494 222.56 73.3018C222.447 73.4541 222.39 73.6182 222.39 73.7939H221.306C221.306 73.5674 221.365 73.3428 221.482 73.1201C221.599 72.8975 221.767 72.6963 221.986 72.5166C222.209 72.333 222.474 72.1885 222.783 72.083C223.095 71.9736 223.443 71.9189 223.826 71.9189C224.287 71.9189 224.693 71.9971 225.044 72.1533C225.4 72.3096 225.677 72.5459 225.876 72.8623C226.08 73.1748 226.181 73.5674 226.181 74.04V76.9932C226.181 77.2041 226.199 77.4287 226.234 77.667C226.273 77.9053 226.33 78.1104 226.404 78.2822V78.376H225.273C225.218 78.251 225.175 78.085 225.144 77.8779C225.113 77.667 225.097 77.4717 225.097 77.292ZM225.285 74.5322L225.296 75.2939H224.201C223.892 75.2939 223.617 75.3193 223.375 75.3701C223.132 75.417 222.929 75.4893 222.765 75.5869C222.601 75.6846 222.476 75.8076 222.39 75.9561C222.304 76.1006 222.261 76.2705 222.261 76.4658C222.261 76.665 222.306 76.8467 222.396 77.0107C222.486 77.1748 222.621 77.3057 222.8 77.4033C222.984 77.4971 223.209 77.5439 223.474 77.5439C223.806 77.5439 224.099 77.4736 224.353 77.333C224.607 77.1924 224.808 77.0205 224.957 76.8174C225.109 76.6143 225.191 76.417 225.203 76.2256L225.666 76.7471C225.638 76.9111 225.564 77.0928 225.443 77.292C225.322 77.4912 225.16 77.6826 224.957 77.8662C224.757 78.0459 224.519 78.1963 224.242 78.3174C223.968 78.4346 223.66 78.4932 223.316 78.4932C222.886 78.4932 222.509 78.4092 222.185 78.2412C221.865 78.0732 221.615 77.8486 221.435 77.5674C221.259 77.2822 221.171 76.9639 221.171 76.6123C221.171 76.2725 221.238 75.9736 221.371 75.7158C221.503 75.4541 221.695 75.2373 221.945 75.0654C222.195 74.8896 222.496 74.7568 222.847 74.667C223.199 74.5771 223.591 74.5322 224.025 74.5322H225.285ZM229.184 72.0361V78.376H228.094V72.0361H229.184ZM228.012 70.3545C228.012 70.1787 228.065 70.0303 228.17 69.9092C228.28 69.7881 228.44 69.7275 228.651 69.7275C228.858 69.7275 229.016 69.7881 229.125 69.9092C229.239 70.0303 229.295 70.1787 229.295 70.3545C229.295 70.5225 229.239 70.667 229.125 70.7881C229.016 70.9053 228.858 70.9639 228.651 70.9639C228.44 70.9639 228.28 70.9053 228.17 70.7881C228.065 70.667 228.012 70.5225 228.012 70.3545ZM232.222 69.376V78.376H231.132V69.376H232.222Z" fill="#8A4FFF"/>
<rect x="308.554" y="60.5541" width="84.7165" height="27.6443" rx="13.8222" fill="white"/>
<rect x="308.554" y="60.5541" width="84.7165" height="27.6443" rx="13.8222" stroke="#8A4FFF" stroke-width="0.891753"/>
<path d="M323.454 78.2422H321.672L321.684 77.3223H323.454C324.063 77.3223 324.571 77.1953 324.977 76.9414C325.383 76.6836 325.688 76.3242 325.891 75.8633C326.098 75.3984 326.202 74.8555 326.202 74.2344V73.7129C326.202 73.2246 326.143 72.791 326.026 72.4121C325.909 72.0293 325.737 71.707 325.51 71.4453C325.284 71.1797 325.006 70.9785 324.678 70.8418C324.354 70.7051 323.981 70.6367 323.559 70.6367H321.637V69.7109H323.559C324.118 69.7109 324.628 69.8047 325.088 69.9922C325.549 70.1758 325.946 70.4434 326.278 70.7949C326.614 71.1426 326.872 71.5645 327.051 72.0605C327.231 72.5527 327.321 73.1074 327.321 73.7246V74.2344C327.321 74.8516 327.231 75.4082 327.051 75.9043C326.872 76.3965 326.612 76.8164 326.272 77.1641C325.936 77.5117 325.53 77.7793 325.053 77.9668C324.581 78.1504 324.047 78.2422 323.454 78.2422ZM322.276 69.7109V78.2422H321.145V69.7109H322.276ZM331.607 78.3594C331.166 78.3594 330.765 78.2852 330.406 78.1367C330.05 77.9844 329.744 77.7715 329.486 77.498C329.232 77.2246 329.037 76.9004 328.9 76.5254C328.763 76.1504 328.695 75.7402 328.695 75.2949V75.0488C328.695 74.5332 328.771 74.0742 328.923 73.6719C329.076 73.2656 329.283 72.9219 329.544 72.6406C329.806 72.3594 330.103 72.1465 330.435 72.002C330.767 71.8574 331.111 71.7852 331.466 71.7852C331.919 71.7852 332.31 71.8633 332.638 72.0195C332.97 72.1758 333.242 72.3945 333.453 72.6758C333.664 72.9531 333.82 73.2812 333.921 73.6602C334.023 74.0352 334.074 74.4453 334.074 74.8906V75.377H329.339V74.4922H332.99V74.4102C332.974 74.1289 332.916 73.8555 332.814 73.5898C332.716 73.3242 332.56 73.1055 332.345 72.9336C332.13 72.7617 331.837 72.6758 331.466 72.6758C331.22 72.6758 330.994 72.7285 330.787 72.834C330.58 72.9355 330.402 73.0879 330.253 73.291C330.105 73.4941 329.99 73.7422 329.908 74.0352C329.826 74.3281 329.785 74.666 329.785 75.0488V75.2949C329.785 75.5957 329.826 75.8789 329.908 76.1445C329.994 76.4062 330.117 76.6367 330.277 76.8359C330.441 77.0352 330.638 77.1914 330.869 77.3047C331.103 77.418 331.369 77.4746 331.666 77.4746C332.048 77.4746 332.373 77.3965 332.638 77.2402C332.904 77.084 333.136 76.875 333.335 76.6133L333.992 77.1348C333.855 77.3418 333.681 77.5391 333.47 77.7266C333.259 77.9141 333 78.0664 332.691 78.1836C332.386 78.3008 332.025 78.3594 331.607 78.3594ZM339.455 77.0117V69.2422H340.545V78.2422H339.549L339.455 77.0117ZM335.19 75.1426V75.0195C335.19 74.5352 335.248 74.0957 335.366 73.7012C335.487 73.3027 335.657 72.9609 335.875 72.6758C336.098 72.3906 336.362 72.1719 336.666 72.0195C336.975 71.8633 337.319 71.7852 337.698 71.7852C338.096 71.7852 338.444 71.8555 338.741 71.9961C339.041 72.1328 339.295 72.334 339.502 72.5996C339.713 72.8613 339.879 73.1777 340 73.5488C340.121 73.9199 340.205 74.3398 340.252 74.8086V75.3477C340.209 75.8125 340.125 76.2305 340 76.6016C339.879 76.9727 339.713 77.2891 339.502 77.5508C339.295 77.8125 339.041 78.0137 338.741 78.1543C338.44 78.291 338.088 78.3594 337.686 78.3594C337.315 78.3594 336.975 78.2793 336.666 78.1191C336.362 77.959 336.098 77.7344 335.875 77.4453C335.657 77.1562 335.487 76.8164 335.366 76.4258C335.248 76.0312 335.19 75.6035 335.19 75.1426ZM336.28 75.0195V75.1426C336.28 75.459 336.311 75.7559 336.373 76.0332C336.44 76.3105 336.541 76.5547 336.678 76.7656C336.815 76.9766 336.989 77.1426 337.2 77.2637C337.411 77.3809 337.662 77.4395 337.955 77.4395C338.315 77.4395 338.61 77.3633 338.84 77.2109C339.075 77.0586 339.262 76.8574 339.403 76.6074C339.543 76.3574 339.653 76.0859 339.731 75.793V74.3809C339.684 74.166 339.616 73.959 339.526 73.7598C339.44 73.5566 339.327 73.377 339.186 73.2207C339.049 73.0605 338.879 72.9336 338.676 72.8398C338.477 72.7461 338.241 72.6992 337.967 72.6992C337.67 72.6992 337.414 72.7617 337.2 72.8867C336.989 73.0078 336.815 73.1758 336.678 73.3906C336.541 73.6016 336.44 73.8477 336.373 74.1289C336.311 74.4062 336.28 74.7031 336.28 75.0195ZM346.232 76.7773V71.9023H347.322V78.2422H346.284L346.232 76.7773ZM346.437 75.4414L346.888 75.4297C346.888 75.8516 346.843 76.2422 346.753 76.6016C346.667 76.957 346.527 77.2656 346.331 77.5273C346.136 77.7891 345.88 77.9941 345.564 78.1426C345.247 78.2871 344.863 78.3594 344.409 78.3594C344.101 78.3594 343.818 78.3145 343.56 78.2246C343.306 78.1348 343.087 77.9961 342.904 77.8086C342.72 77.6211 342.577 77.377 342.476 77.0762C342.378 76.7754 342.329 76.4141 342.329 75.9922V71.9023H343.413V76.0039C343.413 76.2891 343.445 76.5254 343.507 76.7129C343.573 76.8965 343.661 77.043 343.771 77.1523C343.884 77.2578 344.009 77.332 344.146 77.375C344.286 77.418 344.431 77.4395 344.579 77.4395C345.04 77.4395 345.406 77.3516 345.675 77.1758C345.945 76.9961 346.138 76.7559 346.255 76.4551C346.376 76.1504 346.437 75.8125 346.437 75.4414ZM351.631 77.4688C351.889 77.4688 352.127 77.416 352.346 77.3105C352.565 77.2051 352.744 77.0605 352.885 76.877C353.026 76.6895 353.106 76.4766 353.125 76.2383H354.156C354.137 76.6133 354.01 76.9629 353.776 77.2871C353.545 77.6074 353.242 77.8672 352.867 78.0664C352.492 78.2617 352.08 78.3594 351.631 78.3594C351.154 78.3594 350.738 78.2754 350.383 78.1074C350.031 77.9395 349.738 77.709 349.504 77.416C349.274 77.123 349.1 76.7871 348.983 76.4082C348.869 76.0254 348.813 75.6211 348.813 75.1953V74.9492C348.813 74.5234 348.869 74.1211 348.983 73.7422C349.1 73.3594 349.274 73.0215 349.504 72.7285C349.738 72.4355 350.031 72.2051 350.383 72.0371C350.738 71.8691 351.154 71.7852 351.631 71.7852C352.127 71.7852 352.561 71.8867 352.932 72.0898C353.303 72.2891 353.594 72.5625 353.805 72.9102C354.02 73.2539 354.137 73.6445 354.156 74.082H353.125C353.106 73.8203 353.031 73.584 352.902 73.373C352.777 73.1621 352.606 72.9941 352.387 72.8691C352.172 72.7402 351.92 72.6758 351.631 72.6758C351.299 72.6758 351.02 72.7422 350.793 72.875C350.57 73.0039 350.393 73.1797 350.26 73.4023C350.131 73.6211 350.037 73.8652 349.979 74.1348C349.924 74.4004 349.897 74.6719 349.897 74.9492V75.1953C349.897 75.4727 349.924 75.7461 349.979 76.0156C350.033 76.2852 350.125 76.5293 350.254 76.748C350.387 76.9668 350.565 77.1426 350.787 77.2754C351.014 77.4043 351.295 77.4688 351.631 77.4688ZM358.149 71.9023V72.7344H354.722V71.9023H358.149ZM355.882 70.3613H356.966V76.6719C356.966 76.8867 356.999 77.0488 357.065 77.1582C357.132 77.2676 357.218 77.3398 357.323 77.375C357.429 77.4102 357.542 77.4277 357.663 77.4277C357.753 77.4277 357.847 77.4199 357.944 77.4043C358.046 77.3848 358.122 77.3691 358.173 77.3574L358.179 78.2422C358.093 78.2695 357.98 78.2949 357.839 78.3184C357.702 78.3457 357.536 78.3594 357.341 78.3594C357.075 78.3594 356.831 78.3066 356.608 78.2012C356.386 78.0957 356.208 77.9199 356.075 77.6738C355.946 77.4238 355.882 77.0879 355.882 76.666V70.3613ZM360.719 71.9023V78.2422H359.629V71.9023H360.719ZM359.547 70.2207C359.547 70.0449 359.6 69.8965 359.705 69.7754C359.814 69.6543 359.975 69.5938 360.185 69.5938C360.392 69.5938 360.551 69.6543 360.66 69.7754C360.773 69.8965 360.83 70.0449 360.83 70.2207C360.83 70.3887 360.773 70.5332 360.66 70.6543C360.551 70.7715 360.392 70.8301 360.185 70.8301C359.975 70.8301 359.814 70.7715 359.705 70.6543C359.6 70.5332 359.547 70.3887 359.547 70.2207ZM362.292 75.1426V75.0078C362.292 74.5508 362.358 74.127 362.491 73.7363C362.624 73.3418 362.815 73 363.065 72.7109C363.315 72.418 363.618 72.1914 363.973 72.0312C364.329 71.8672 364.727 71.7852 365.169 71.7852C365.614 71.7852 366.014 71.8672 366.37 72.0312C366.729 72.1914 367.034 72.418 367.284 72.7109C367.538 73 367.731 73.3418 367.864 73.7363C367.997 74.127 368.063 74.5508 368.063 75.0078V75.1426C368.063 75.5996 367.997 76.0234 367.864 76.4141C367.731 76.8047 367.538 77.1465 367.284 77.4395C367.034 77.7285 366.731 77.9551 366.376 78.1191C366.024 78.2793 365.626 78.3594 365.18 78.3594C364.735 78.3594 364.335 78.2793 363.979 78.1191C363.624 77.9551 363.319 77.7285 363.065 77.4395C362.815 77.1465 362.624 76.8047 362.491 76.4141C362.358 76.0234 362.292 75.5996 362.292 75.1426ZM363.376 75.0078V75.1426C363.376 75.459 363.413 75.7578 363.487 76.0391C363.561 76.3164 363.673 76.5625 363.821 76.7773C363.973 76.9922 364.163 77.1621 364.389 77.2871C364.616 77.4082 364.88 77.4688 365.18 77.4688C365.477 77.4688 365.737 77.4082 365.96 77.2871C366.186 77.1621 366.374 76.9922 366.522 76.7773C366.671 76.5625 366.782 76.3164 366.856 76.0391C366.934 75.7578 366.973 75.459 366.973 75.1426V75.0078C366.973 74.6953 366.934 74.4004 366.856 74.123C366.782 73.8418 366.669 73.5938 366.516 73.3789C366.368 73.1602 366.18 72.9883 365.954 72.8633C365.731 72.7383 365.47 72.6758 365.169 72.6758C364.872 72.6758 364.61 72.7383 364.384 72.8633C364.161 72.9883 363.973 73.1602 363.821 73.3789C363.673 73.5938 363.561 73.8418 363.487 74.123C363.413 74.4004 363.376 74.6953 363.376 75.0078ZM370.627 73.2559V78.2422H369.543V71.9023H370.568L370.627 73.2559ZM370.369 74.832L369.918 74.8145C369.922 74.3809 369.986 73.9805 370.111 73.6133C370.236 73.2422 370.412 72.9199 370.638 72.6465C370.865 72.373 371.134 72.1621 371.447 72.0137C371.763 71.8613 372.113 71.7852 372.496 71.7852C372.808 71.7852 373.09 71.8281 373.34 71.9141C373.59 71.9961 373.802 72.1289 373.978 72.3125C374.158 72.4961 374.295 72.7344 374.388 73.0273C374.482 73.3164 374.529 73.6699 374.529 74.0879V78.2422H373.439V74.0762C373.439 73.7441 373.39 73.4785 373.293 73.2793C373.195 73.0762 373.052 72.9297 372.865 72.8398C372.677 72.7461 372.447 72.6992 372.173 72.6992C371.904 72.6992 371.658 72.7559 371.435 72.8691C371.216 72.9824 371.027 73.1387 370.867 73.3379C370.711 73.5371 370.588 73.7656 370.498 74.0234C370.412 74.2773 370.369 74.5469 370.369 74.832ZM379.987 76.5605C379.987 76.4043 379.952 76.2598 379.881 76.127C379.815 75.9902 379.676 75.8672 379.465 75.7578C379.258 75.6445 378.946 75.5469 378.528 75.4648C378.176 75.3906 377.858 75.3027 377.573 75.2012C377.292 75.0996 377.051 74.9766 376.852 74.832C376.657 74.6875 376.506 74.5176 376.401 74.3223C376.295 74.127 376.243 73.8984 376.243 73.6367C376.243 73.3867 376.297 73.1504 376.407 72.9277C376.52 72.7051 376.678 72.5078 376.881 72.3359C377.088 72.1641 377.336 72.0293 377.626 71.9316C377.915 71.834 378.237 71.7852 378.592 71.7852C379.1 71.7852 379.534 71.875 379.893 72.0547C380.252 72.2344 380.528 72.4746 380.719 72.7754C380.911 73.0723 381.006 73.4023 381.006 73.7656H379.922C379.922 73.5898 379.87 73.4199 379.764 73.2559C379.663 73.0879 379.512 72.9492 379.313 72.8398C379.118 72.7305 378.877 72.6758 378.592 72.6758C378.292 72.6758 378.047 72.7227 377.86 72.8164C377.676 72.9062 377.542 73.0215 377.456 73.1621C377.374 73.3027 377.333 73.4512 377.333 73.6074C377.333 73.7246 377.352 73.8301 377.391 73.9238C377.434 74.0137 377.508 74.0977 377.614 74.1758C377.719 74.25 377.868 74.3203 378.059 74.3867C378.251 74.4531 378.495 74.5195 378.792 74.5859C379.311 74.7031 379.739 74.8438 380.075 75.0078C380.411 75.1719 380.661 75.373 380.825 75.6113C380.989 75.8496 381.071 76.1387 381.071 76.4785C381.071 76.7559 381.012 77.0098 380.895 77.2402C380.782 77.4707 380.616 77.6699 380.397 77.8379C380.182 78.002 379.924 78.1309 379.624 78.2246C379.327 78.3145 378.993 78.3594 378.622 78.3594C378.063 78.3594 377.59 78.2598 377.204 78.0605C376.817 77.8613 376.524 77.6035 376.325 77.2871C376.126 76.9707 376.026 76.6367 376.026 76.2852H377.116C377.131 76.582 377.217 76.8184 377.374 76.9941C377.53 77.166 377.721 77.2891 377.948 77.3633C378.174 77.4336 378.399 77.4688 378.622 77.4688C378.918 77.4688 379.167 77.4297 379.366 77.3516C379.569 77.2734 379.723 77.166 379.829 77.0293C379.934 76.8926 379.987 76.7363 379.987 76.5605Z" fill="#8A4FFF"/>
<rect x="467.554" y="60.5541" width="79.366" height="27.6443" rx="13.8222" fill="white"/>
<rect x="467.554" y="60.5541" width="79.366" height="27.6443" rx="13.8222" stroke="#8A4FFF" stroke-width="0.891753"/>
<path d="M486.827 76.2197C486.827 76.0205 486.796 75.8447 486.734 75.6924C486.675 75.5361 486.57 75.3955 486.417 75.2705C486.269 75.1455 486.062 75.0264 485.796 74.9131C485.535 74.7998 485.202 74.6846 484.8 74.5674C484.378 74.4424 483.997 74.3037 483.658 74.1514C483.318 73.9951 483.027 73.8174 482.785 73.6182C482.542 73.4189 482.357 73.1904 482.228 72.9326C482.099 72.6748 482.035 72.3799 482.035 72.0479C482.035 71.7158 482.103 71.4092 482.24 71.1279C482.376 70.8467 482.572 70.6025 482.826 70.3955C483.083 70.1846 483.39 70.0205 483.745 69.9033C484.101 69.7861 484.497 69.7275 484.935 69.7275C485.576 69.7275 486.119 69.8506 486.564 70.0967C487.013 70.3389 487.355 70.6572 487.589 71.0518C487.824 71.4424 487.941 71.8604 487.941 72.3057H486.816C486.816 71.9854 486.747 71.7021 486.611 71.4561C486.474 71.2061 486.267 71.0107 485.99 70.8701C485.712 70.7256 485.361 70.6533 484.935 70.6533C484.533 70.6533 484.201 70.7139 483.939 70.835C483.677 70.9561 483.482 71.1201 483.353 71.3271C483.228 71.5342 483.165 71.7705 483.165 72.0361C483.165 72.2158 483.202 72.3799 483.277 72.5283C483.355 72.6729 483.474 72.8076 483.634 72.9326C483.798 73.0576 484.005 73.1729 484.255 73.2783C484.509 73.3838 484.812 73.4854 485.163 73.583C485.648 73.7197 486.066 73.8721 486.417 74.04C486.769 74.208 487.058 74.3975 487.285 74.6084C487.515 74.8154 487.685 75.0518 487.794 75.3174C487.908 75.5791 487.964 75.876 487.964 76.208C487.964 76.5557 487.894 76.8701 487.753 77.1514C487.613 77.4326 487.411 77.6729 487.15 77.8721C486.888 78.0713 486.574 78.2256 486.206 78.335C485.843 78.4404 485.437 78.4932 484.988 78.4932C484.593 78.4932 484.204 78.4385 483.822 78.3291C483.443 78.2197 483.097 78.0557 482.785 77.8369C482.476 77.6182 482.228 77.3486 482.04 77.0283C481.857 76.7041 481.765 76.3291 481.765 75.9033H482.89C482.89 76.1963 482.947 76.4482 483.06 76.6592C483.173 76.8662 483.327 77.0381 483.523 77.1748C483.722 77.3115 483.947 77.4131 484.197 77.4795C484.451 77.542 484.714 77.5732 484.988 77.5732C485.382 77.5732 485.716 77.5186 485.99 77.4092C486.263 77.2998 486.47 77.1436 486.611 76.9404C486.755 76.7373 486.827 76.4971 486.827 76.2197ZM493.24 76.9111V72.0361H494.33V78.376H493.293L493.24 76.9111ZM493.446 75.5752L493.897 75.5635C493.897 75.9854 493.852 76.376 493.762 76.7354C493.676 77.0908 493.535 77.3994 493.34 77.6611C493.145 77.9229 492.889 78.1279 492.572 78.2764C492.256 78.4209 491.871 78.4932 491.418 78.4932C491.11 78.4932 490.826 78.4482 490.569 78.3584C490.315 78.2686 490.096 78.1299 489.912 77.9424C489.729 77.7549 489.586 77.5107 489.485 77.21C489.387 76.9092 489.338 76.5479 489.338 76.126V72.0361H490.422V76.1377C490.422 76.4229 490.453 76.6592 490.516 76.8467C490.582 77.0303 490.67 77.1768 490.78 77.2861C490.893 77.3916 491.018 77.4658 491.155 77.5088C491.295 77.5518 491.44 77.5732 491.588 77.5732C492.049 77.5732 492.414 77.4854 492.684 77.3096C492.953 77.1299 493.147 76.8896 493.264 76.5889C493.385 76.2842 493.446 75.9463 493.446 75.5752ZM497.181 73.2959V78.376H496.091V72.0361H497.122L497.181 73.2959ZM496.958 74.9658L496.454 74.9482C496.458 74.5146 496.515 74.1143 496.624 73.7471C496.734 73.376 496.896 73.0537 497.11 72.7803C497.325 72.5068 497.593 72.2959 497.913 72.1475C498.234 71.9951 498.605 71.9189 499.026 71.9189C499.323 71.9189 499.597 71.9619 499.847 72.0479C500.097 72.1299 500.314 72.2607 500.497 72.4404C500.681 72.6201 500.823 72.8506 500.925 73.1318C501.026 73.4131 501.077 73.7529 501.077 74.1514V78.376H499.993V74.2041C499.993 73.8721 499.937 73.6064 499.823 73.4072C499.714 73.208 499.558 73.0635 499.355 72.9736C499.151 72.8799 498.913 72.833 498.64 72.833C498.319 72.833 498.052 72.8896 497.837 73.0029C497.622 73.1162 497.45 73.2725 497.321 73.4717C497.192 73.6709 497.099 73.8994 497.04 74.1572C496.985 74.4111 496.958 74.6807 496.958 74.9658ZM501.066 74.3682L500.339 74.5908C500.343 74.2432 500.4 73.9092 500.509 73.5889C500.622 73.2686 500.784 72.9834 500.995 72.7334C501.21 72.4834 501.474 72.2861 501.786 72.1416C502.099 71.9932 502.456 71.9189 502.859 71.9189C503.198 71.9189 503.499 71.9639 503.761 72.0537C504.026 72.1436 504.249 72.2822 504.429 72.4697C504.612 72.6533 504.751 72.8896 504.845 73.1787C504.939 73.4678 504.985 73.8115 504.985 74.21V78.376H503.896V74.1982C503.896 73.8428 503.839 73.5674 503.726 73.3721C503.616 73.1729 503.46 73.0342 503.257 72.9561C503.058 72.874 502.819 72.833 502.542 72.833C502.304 72.833 502.093 72.874 501.909 72.9561C501.726 73.0381 501.571 73.1514 501.446 73.2959C501.321 73.4365 501.226 73.5986 501.159 73.7822C501.097 73.9658 501.066 74.1611 501.066 74.3682ZM507.824 73.2959V78.376H506.734V72.0361H507.766L507.824 73.2959ZM507.602 74.9658L507.098 74.9482C507.102 74.5146 507.158 74.1143 507.268 73.7471C507.377 73.376 507.539 73.0537 507.754 72.7803C507.969 72.5068 508.236 72.2959 508.557 72.1475C508.877 71.9951 509.248 71.9189 509.67 71.9189C509.967 71.9189 510.24 71.9619 510.49 72.0479C510.74 72.1299 510.957 72.2607 511.141 72.4404C511.324 72.6201 511.467 72.8506 511.568 73.1318C511.67 73.4131 511.721 73.7529 511.721 74.1514V78.376H510.637V74.2041C510.637 73.8721 510.58 73.6064 510.467 73.4072C510.357 73.208 510.201 73.0635 509.998 72.9736C509.795 72.8799 509.557 72.833 509.283 72.833C508.963 72.833 508.695 72.8896 508.48 73.0029C508.266 73.1162 508.094 73.2725 507.965 73.4717C507.836 73.6709 507.742 73.8994 507.684 74.1572C507.629 74.4111 507.602 74.6807 507.602 74.9658ZM511.709 74.3682L510.982 74.5908C510.986 74.2432 511.043 73.9092 511.152 73.5889C511.266 73.2686 511.428 72.9834 511.639 72.7334C511.854 72.4834 512.117 72.2861 512.43 72.1416C512.742 71.9932 513.1 71.9189 513.502 71.9189C513.842 71.9189 514.143 71.9639 514.404 72.0537C514.67 72.1436 514.893 72.2822 515.072 72.4697C515.256 72.6533 515.395 72.8896 515.488 73.1787C515.582 73.4678 515.629 73.8115 515.629 74.21V78.376H514.539V74.1982C514.539 73.8428 514.482 73.5674 514.369 73.3721C514.26 73.1729 514.104 73.0342 513.9 72.9561C513.701 72.874 513.463 72.833 513.186 72.833C512.947 72.833 512.736 72.874 512.553 72.9561C512.369 73.0381 512.215 73.1514 512.09 73.2959C511.965 73.4365 511.869 73.5986 511.803 73.7822C511.74 73.9658 511.709 74.1611 511.709 74.3682ZM521.128 77.292V74.0283C521.128 73.7783 521.077 73.5615 520.975 73.3779C520.878 73.1904 520.729 73.0459 520.53 72.9443C520.331 72.8428 520.085 72.792 519.792 72.792C519.518 72.792 519.278 72.8389 519.071 72.9326C518.868 73.0264 518.708 73.1494 518.591 73.3018C518.477 73.4541 518.421 73.6182 518.421 73.7939H517.337C517.337 73.5674 517.395 73.3428 517.513 73.1201C517.63 72.8975 517.798 72.6963 518.016 72.5166C518.239 72.333 518.505 72.1885 518.813 72.083C519.126 71.9736 519.474 71.9189 519.856 71.9189C520.317 71.9189 520.724 71.9971 521.075 72.1533C521.431 72.3096 521.708 72.5459 521.907 72.8623C522.11 73.1748 522.212 73.5674 522.212 74.04V76.9932C522.212 77.2041 522.229 77.4287 522.265 77.667C522.304 77.9053 522.36 78.1104 522.434 78.2822V78.376H521.304C521.249 78.251 521.206 78.085 521.175 77.8779C521.143 77.667 521.128 77.4717 521.128 77.292ZM521.315 74.5322L521.327 75.2939H520.231C519.923 75.2939 519.647 75.3193 519.405 75.3701C519.163 75.417 518.96 75.4893 518.796 75.5869C518.632 75.6846 518.507 75.8076 518.421 75.9561C518.335 76.1006 518.292 76.2705 518.292 76.4658C518.292 76.665 518.337 76.8467 518.427 77.0107C518.516 77.1748 518.651 77.3057 518.831 77.4033C519.015 77.4971 519.239 77.5439 519.505 77.5439C519.837 77.5439 520.13 77.4736 520.384 77.333C520.638 77.1924 520.839 77.0205 520.987 76.8174C521.14 76.6143 521.222 76.417 521.233 76.2256L521.696 76.7471C521.669 76.9111 521.595 77.0928 521.474 77.292C521.352 77.4912 521.19 77.6826 520.987 77.8662C520.788 78.0459 520.55 78.1963 520.272 78.3174C519.999 78.4346 519.69 78.4932 519.347 78.4932C518.917 78.4932 518.54 78.4092 518.216 78.2412C517.895 78.0732 517.645 77.8486 517.466 77.5674C517.29 77.2822 517.202 76.9639 517.202 76.6123C517.202 76.2725 517.268 75.9736 517.401 75.7158C517.534 75.4541 517.725 75.2373 517.975 75.0654C518.225 74.8896 518.526 74.7568 518.878 74.667C519.229 74.5771 519.622 74.5322 520.056 74.5322H521.315ZM525.121 73.0322V78.376H524.037V72.0361H525.092L525.121 73.0322ZM527.101 72.001L527.095 73.0088C527.006 72.9893 526.92 72.9775 526.838 72.9736C526.76 72.9658 526.67 72.9619 526.568 72.9619C526.318 72.9619 526.097 73.001 525.906 73.0791C525.715 73.1572 525.552 73.2666 525.42 73.4072C525.287 73.5479 525.181 73.7158 525.103 73.9111C525.029 74.1025 524.98 74.3135 524.957 74.5439L524.652 74.7197C524.652 74.3369 524.689 73.9775 524.763 73.6416C524.842 73.3057 524.961 73.0088 525.121 72.751C525.281 72.4893 525.484 72.2861 525.73 72.1416C525.98 71.9932 526.277 71.9189 526.621 71.9189C526.699 71.9189 526.789 71.9287 526.89 71.9482C526.992 71.9639 527.062 71.9814 527.101 72.001ZM530.11 77.7197L531.874 72.0361H533.034L530.491 79.3545C530.432 79.5107 530.354 79.6787 530.256 79.8584C530.163 80.042 530.042 80.2158 529.893 80.3799C529.745 80.5439 529.565 80.6768 529.354 80.7783C529.147 80.8838 528.899 80.9365 528.61 80.9365C528.524 80.9365 528.415 80.9248 528.282 80.9014C528.149 80.8779 528.055 80.8584 528.001 80.8428L527.995 79.9639C528.026 79.9678 528.075 79.9717 528.141 79.9756C528.212 79.9834 528.26 79.9873 528.288 79.9873C528.534 79.9873 528.743 79.9541 528.915 79.8877C529.087 79.8252 529.231 79.7178 529.348 79.5654C529.469 79.417 529.573 79.2119 529.659 78.9502L530.11 77.7197ZM528.815 72.0361L530.462 76.958L530.743 78.1006L529.964 78.499L527.631 72.0361H528.815Z" fill="#8A4FFF"/>
<defs>
<filter id="filter0_i_1814_5887" x="36.7031" y="11.9473" width="474.301" height="15.1757" filterUnits="userSpaceOnUse" color-interpolation-filters="sRGB">
<feFlood flood-opacity="0" result="BackgroundImageFix"/>
<feBlend mode="normal" in="SourceGraphic" in2="BackgroundImageFix" result="shape"/>
<feColorMatrix in="SourceAlpha" type="matrix" values="0 0 0 0 0 0 0 0 0 0 0 0 0 0 0 0 0 0 127 0" result="hardAlpha"/>
<feOffset dy="3.38667"/>
<feGaussianBlur stdDeviation="1.69333"/>
<feComposite in2="hardAlpha" operator="arithmetic" k2="-1" k3="1"/>
<feColorMatrix type="matrix" values="0 0 0 0 0 0 0 0 0 0 0 0 0 0 0 0 0 0 0.15 0"/>
<feBlend mode="normal" in2="shape" result="effect1_innerShadow_1814_5887"/>
</filter>
<filter id="filter1_i_1814_5887" x="23.2852" y="0.783203" width="33.8672" height="37.2529" filterUnits="userSpaceOnUse" color-interpolation-filters="sRGB">
<feFlood flood-opacity="0" result="BackgroundImageFix"/>
<feBlend mode="normal" in="SourceGraphic" in2="BackgroundImageFix" result="shape"/>
<feColorMatrix in="SourceAlpha" type="matrix" values="0 0 0 0 0 0 0 0 0 0 0 0 0 0 0 0 0 0 127 0" result="hardAlpha"/>
<feOffset dy="3.38667"/>
<feGaussianBlur stdDeviation="1.69333"/>
<feComposite in2="hardAlpha" operator="arithmetic" k2="-1" k3="1"/>
<feColorMatrix type="matrix" values="0 0 0 0 0 0 0 0 0 0 0 0 0 0 0 0 0 0 0.25 0"/>
<feBlend mode="normal" in2="shape" result="effect1_innerShadow_1814_5887"/>
</filter>
<filter id="filter2_i_1814_5887" x="178.809" y="0.783203" width="33.8672" height="37.2529" filterUnits="userSpaceOnUse" color-interpolation-filters="sRGB">
<feFlood flood-opacity="0" result="BackgroundImageFix"/>
<feBlend mode="normal" in="SourceGraphic" in2="BackgroundImageFix" result="shape"/>
<feColorMatrix in="SourceAlpha" type="matrix" values="0 0 0 0 0 0 0 0 0 0 0 0 0 0 0 0 0 0 127 0" result="hardAlpha"/>
<feOffset dy="3.38667"/>
<feGaussianBlur stdDeviation="1.69333"/>
<feComposite in2="hardAlpha" operator="arithmetic" k2="-1" k3="1"/>
<feColorMatrix type="matrix" values="0 0 0 0 0 0 0 0 0 0 0 0 0 0 0 0 0 0 0.25 0"/>
<feBlend mode="normal" in2="shape" result="effect1_innerShadow_1814_5887"/>
</filter>
<filter id="filter3_i_1814_5887" x="334.328" y="0.783203" width="33.8672" height="37.2529" filterUnits="userSpaceOnUse" color-interpolation-filters="sRGB">
<feFlood flood-opacity="0" result="BackgroundImageFix"/>
<feBlend mode="normal" in="SourceGraphic" in2="BackgroundImageFix" result="shape"/>
<feColorMatrix in="SourceAlpha" type="matrix" values="0 0 0 0 0 0 0 0 0 0 0 0 0 0 0 0 0 0 127 0" result="hardAlpha"/>
<feOffset dy="3.38667"/>
<feGaussianBlur stdDeviation="1.69333"/>
<feComposite in2="hardAlpha" operator="arithmetic" k2="-1" k3="1"/>
<feColorMatrix type="matrix" values="0 0 0 0 0 0 0 0 0 0 0 0 0 0 0 0 0 0 0.25 0"/>
<feBlend mode="normal" in2="shape" result="effect1_innerShadow_1814_5887"/>
</filter>
<filter id="filter4_i_1814_5887" x="489.852" y="0.783203" width="33.8672" height="37.2529" filterUnits="userSpaceOnUse" color-interpolation-filters="sRGB">
<feFlood flood-opacity="0" result="BackgroundImageFix"/>
<feBlend mode="normal" in="SourceGraphic" in2="BackgroundImageFix" result="shape"/>
<feColorMatrix in="SourceAlpha" type="matrix" values="0 0 0 0 0 0 0 0 0 0 0 0 0 0 0 0 0 0 127 0" result="hardAlpha"/>
<feOffset dy="3.38667"/>
<feGaussianBlur stdDeviation="1.69333"/>
<feComposite in2="hardAlpha" operator="arithmetic" k2="-1" k3="1"/>
<feColorMatrix type="matrix" values="0 0 0 0 0 0 0 0 0 0 0 0 0 0 0 0 0 0 0.25 0"/>
<feBlend mode="normal" in2="shape" result="effect1_innerShadow_1814_5887"/>
</filter>
<clipPath id="clip0_1814_5887">
<rect x="23.2852" y="0.783203" width="33.8667" height="33.8667" rx="16.9333" fill="white"/>
</clipPath>
<clipPath id="clip1_1814_5887">
<rect x="178.809" y="0.783203" width="33.8667" height="33.8667" rx="16.9333" fill="white"/>
</clipPath>
<clipPath id="clip2_1814_5887">
<rect x="334.328" y="0.783203" width="33.8667" height="33.8667" rx="16.9333" fill="white"/>
</clipPath>
<clipPath id="clip3_1814_5887">
<rect x="489.852" y="0.783203" width="33.8667" height="33.8667" rx="16.9333" fill="white"/>
</clipPath>
</defs>
</svg>
