<svg width="32" height="32" viewBox="0 0 32 32" fill="none" xmlns="http://www.w3.org/2000/svg">
<path d="M11.3156 28H20.6836C21.5238 28 22.3521 27.8014 23.101 27.4206C23.85 27.0397 24.4983 26.4873 24.9933 25.8083C25.4882 25.1293 25.8157 24.343 25.9491 23.5135C26.0825 22.6839 26.018 21.8346 25.7609 21.0347L23.4863 13.96C23.0544 12.6163 22.2071 11.4443 21.0666 10.6128C19.926 9.78139 18.551 9.33338 17.1396 9.33333H14.8596C13.4482 9.33338 12.0731 9.78139 10.9326 10.6128C9.79205 11.4443 8.94482 12.6163 8.51292 13.96L6.23825 21.0347C5.98115 21.8346 5.91667 22.6839 6.05008 23.5135C6.18348 24.343 6.51099 25.1293 7.00592 25.8083C7.50085 26.4873 8.1492 27.0397 8.89813 27.4206C9.64706 27.8014 10.4754 28 11.3156 28ZM19.9996 4C19.1107 7.55556 17.7774 9.33333 15.9996 9.33333C14.2218 9.33333 12.8885 7.55556 11.9996 4H19.9996Z" stroke="#453823" stroke-width="2.66667" stroke-linecap="round" stroke-linejoin="round"/>
<path d="M18.6654 14.6663H15.332C14.8016 14.6663 14.2929 14.8771 13.9178 15.2521C13.5427 15.6272 13.332 16.1359 13.332 16.6663C13.332 17.1968 13.5427 17.7055 13.9178 18.0806C14.2929 18.4556 14.8016 18.6663 15.332 18.6663H16.6654C17.1958 18.6663 17.7045 18.8771 18.0796 19.2521C18.4547 19.6272 18.6654 20.1359 18.6654 20.6663C18.6654 21.1968 18.4547 21.7055 18.0796 22.0806C17.7045 22.4556 17.1958 22.6663 16.6654 22.6663H13.332M15.9987 13.333V14.6663M15.9987 22.6663V23.9997" stroke="#453823" stroke-width="2.66667" stroke-linecap="round" stroke-linejoin="round"/>
</svg>
