<svg width="64" height="65" viewBox="0 0 64 65" fill="none" xmlns="http://www.w3.org/2000/svg">
<path d="M62.9997 32.505C62.9997 42.5222 58.3898 51.4508 51.2229 57.2142C45.9467 61.4681 39.2749 63.993 31.9999 63.993C24.7249 63.993 18.0711 61.4681 12.7769 57.2142C5.60091 51.4417 1 42.5131 1 32.505C1 15.1143 14.8748 1.00781 31.9999 1.00781C49.125 1.00781 62.9997 15.1051 62.9997 32.505Z" fill="#8A4FFF" stroke="#8A4FFF" stroke-miterlimit="10"/>
<path d="M33.2495 32.3698C38.8114 31.672 42.7634 26.5251 42.0765 20.874C41.3896 15.2229 36.324 11.2075 30.7621 11.9053C25.2002 12.6032 21.2482 17.7501 21.9351 23.4012C22.6219 29.0523 27.6876 33.0677 33.2495 32.3698Z" fill="white"/>
<path d="M51.2233 53.245C45.9471 57.4989 39.2753 60.0238 32.0003 60.0238C24.7253 60.0238 18.0715 57.4989 12.7773 53.245C14.7582 44.3804 16.5859 36.7326 18.4857 34.7932C21.1688 32.067 28.2908 30.4844 31.9913 30.4844C35.6919 30.4844 43.147 32.4146 44.5245 33.8143C47.3337 36.6594 49.7557 44.5177 51.2143 53.245H51.2233Z" fill="white"/>
</svg>
