<svg width="44" height="48" viewBox="0 0 44 48" fill="none" xmlns="http://www.w3.org/2000/svg">
<path d="M17.3043 34H25.7211C26.476 34 27.2202 33.8304 27.8931 33.5051C28.5659 33.1797 29.1484 32.7079 29.5931 32.1279C30.0378 31.548 30.3321 30.8763 30.4519 30.1678C30.5718 29.4592 30.5138 28.7337 30.2828 28.0504L28.2391 22.0075C27.8511 20.8597 27.0899 19.8587 26.0652 19.1485C25.0404 18.4383 23.8051 18.0556 22.5369 18.0556H20.4885C19.2203 18.0556 17.985 18.4383 16.9602 19.1485C15.9355 19.8587 15.1743 20.8597 14.7862 22.0075L12.7425 28.0504C12.5116 28.7337 12.4536 29.4592 12.5735 30.1678C12.6933 30.8763 12.9876 31.548 13.4323 32.1279C13.8769 32.7079 14.4595 33.1797 15.1323 33.5051C15.8052 33.8304 16.5494 34 17.3043 34ZM25.1065 13.5C24.3079 16.537 23.11 18.0556 21.5127 18.0556C19.9154 18.0556 18.7175 16.537 17.9189 13.5H25.1065Z" stroke="#545454" stroke-width="2" stroke-linecap="round" stroke-linejoin="round"/>
<path d="M23.9085 22.6115H20.9136C20.437 22.6115 19.98 22.7915 19.643 23.1119C19.306 23.4323 19.1167 23.8668 19.1167 24.3199C19.1167 24.773 19.306 25.2075 19.643 25.5279C19.98 25.8482 20.437 26.0282 20.9136 26.0282H22.1116C22.5881 26.0282 23.0452 26.2082 23.3822 26.5286C23.7192 26.8489 23.9085 27.2835 23.9085 27.7365C23.9085 28.1896 23.7192 28.6241 23.3822 28.9445C23.0452 29.2649 22.5881 29.4449 22.1116 29.4449H19.1167M21.5126 21.4727V22.6115M21.5126 29.4449V30.5838" stroke="#545454" stroke-width="2" stroke-linecap="round" stroke-linejoin="round"/>
</svg>
