<svg width="52" height="52" viewBox="0 0 52 52" fill="none" xmlns="http://www.w3.org/2000/svg">
<path d="M12 19.5C12 18.3065 12.4741 17.1619 13.318 16.318C14.1619 15.4741 15.3065 15 16.5 15H35.5C36.6935 15 37.8381 15.4741 38.682 16.318C39.5259 17.1619 40 18.3065 40 19.5V32.5C40 33.6935 39.5259 34.8381 38.682 35.682C37.8381 36.5259 36.6935 37 35.5 37H16.5C15.3065 37 14.1619 36.5259 13.318 35.682C12.4741 34.8381 12 33.6935 12 32.5V19.5ZM16.5 17C15.837 17 15.2011 17.2634 14.7322 17.7322C14.2634 18.2011 14 18.837 14 19.5V21H38V19.5C38 18.837 37.7366 18.2011 37.2678 17.7322C36.7989 17.2634 36.163 17 35.5 17H16.5ZM14 32.5C14 33.163 14.2634 33.7989 14.7322 34.2678C15.2011 34.7366 15.837 35 16.5 35H35.5C36.163 35 36.7989 34.7366 37.2678 34.2678C37.7366 33.7989 38 33.163 38 32.5V23H14V32.5ZM31 29H34C34.2652 29 34.5196 29.1054 34.7071 29.2929C34.8946 29.4804 35 29.7348 35 30C35 30.2652 34.8946 30.5196 34.7071 30.7071C34.5196 30.8946 34.2652 31 34 31H31C30.7348 31 30.4804 30.8946 30.2929 30.7071C30.1054 30.5196 30 30.2652 30 30C30 29.7348 30.1054 29.4804 30.2929 29.2929C30.4804 29.1054 30.7348 29 31 29Z" fill="#545454"/>
</svg>
