<svg width="224" height="217" viewBox="0 0 224 217" fill="none" xmlns="http://www.w3.org/2000/svg">
<g clip-path="url(#clip0_3749_1016)">
<g opacity="0.61">
<path d="M222.449 172.274H140.531C139.677 172.274 138.979 171.576 138.979 170.723V128.105C138.979 127.252 139.677 126.554 140.531 126.554H222.449C223.302 126.554 224.001 127.252 224.001 128.105V170.723C224.001 171.581 223.302 172.274 222.449 172.274ZM140.531 127.699C140.307 127.699 140.124 127.882 140.124 128.105V170.723C140.124 170.946 140.307 171.129 140.531 171.129H222.449C222.672 171.129 222.855 170.946 222.855 170.723V128.105C222.855 127.882 222.672 127.699 222.449 127.699H140.531Z" fill="#9192FF"/>
<path opacity="0.66" d="M222.449 172.274H140.531C139.677 172.274 138.979 171.576 138.979 170.723V128.105C138.979 127.252 139.677 126.554 140.531 126.554H222.449C223.302 126.554 224.001 127.252 224.001 128.105V170.723C224.001 171.581 223.302 172.274 222.449 172.274ZM140.531 127.699C140.307 127.699 140.124 127.882 140.124 128.105V170.723C140.124 170.946 140.307 171.129 140.531 171.129H222.449C222.672 171.129 222.855 170.946 222.855 170.723V128.105C222.855 127.882 222.672 127.699 222.449 127.699H140.531Z" fill="#9192FF"/>
<path d="M213.937 136.791H193.197C192.807 136.791 192.492 137.106 192.492 137.495V144.126C192.492 144.515 192.807 144.83 193.197 144.83H213.937C214.326 144.83 214.641 144.515 214.641 144.126V137.495C214.641 137.106 214.326 136.791 213.937 136.791Z" fill="#9192FF"/>
<path d="M213.937 151.317H193.197C192.807 151.317 192.492 151.632 192.492 152.022V158.652C192.492 159.041 192.807 159.356 193.197 159.356H213.937C214.326 159.356 214.641 159.041 214.641 158.652V152.022C214.641 151.632 214.326 151.317 213.937 151.317Z" fill="#9192FF"/>
<path d="M187.006 161.985H150.635C150.32 161.985 150.062 161.727 150.062 161.412C150.062 161.098 150.32 160.84 150.635 160.84H187.006C187.321 160.84 187.579 161.098 187.579 161.412C187.579 161.727 187.321 161.985 187.006 161.985Z" fill="#9192FF"/>
<path d="M187.006 148.65H150.635C150.32 148.65 150.062 148.392 150.062 148.077C150.062 147.763 150.32 147.505 150.635 147.505H187.006C187.321 147.505 187.579 147.763 187.579 148.077C187.579 148.392 187.321 148.65 187.006 148.65Z" fill="#9192FF"/>
<path d="M187.005 155.314H167.393C167.078 155.314 166.82 155.056 166.82 154.742C166.82 154.427 167.078 154.169 167.393 154.169H186.999C187.314 154.169 187.572 154.427 187.572 154.742C187.572 155.056 187.314 155.314 186.999 155.314H187.005Z" fill="#9192FF"/>
<path d="M187.005 141.573H167.393C167.078 141.573 166.82 141.315 166.82 141C166.82 140.685 167.078 140.428 167.393 140.428H186.999C187.314 140.428 187.572 140.685 187.572 141C187.572 141.315 187.314 141.573 186.999 141.573H187.005Z" fill="#9192FF"/>
<path d="M187.005 135.212H173.78C173.465 135.212 173.207 134.954 173.207 134.639C173.207 134.324 173.465 134.066 173.78 134.066H187.005C187.32 134.066 187.578 134.324 187.578 134.639C187.578 134.954 187.32 135.212 187.005 135.212Z" fill="#9192FF"/>
</g>
<g opacity="0.61">
<path d="M83.4702 125.855H1.55221C0.698783 125.855 0 125.157 0 124.304V81.6865C0 80.8333 0.698783 80.1348 1.55221 80.1348H83.4702C84.3236 80.1348 85.0224 80.8333 85.0224 81.6865V124.304C85.0224 125.162 84.3293 125.855 83.4702 125.855ZM1.55221 81.2799C1.32883 81.2799 1.14555 81.4631 1.14555 81.6865V124.304C1.14555 124.527 1.32883 124.71 1.55221 124.71H83.4702C83.6936 124.71 83.8769 124.527 83.8769 124.304V81.6865C83.8769 81.4631 83.6936 81.2799 83.4702 81.2799H1.55221Z" fill="#9192FF"/>
<path opacity="0.66" d="M83.4702 125.855H1.55221C0.698783 125.855 0 125.157 0 124.304V81.6865C0 80.8333 0.698783 80.1348 1.55221 80.1348H83.4702C84.3236 80.1348 85.0224 80.8333 85.0224 81.6865V124.304C85.0224 125.162 84.3293 125.855 83.4702 125.855ZM1.55221 81.2799C1.32883 81.2799 1.14555 81.4631 1.14555 81.6865V124.304C1.14555 124.527 1.32883 124.71 1.55221 124.71H83.4702C83.6936 124.71 83.8769 124.527 83.8769 124.304V81.6865C83.8769 81.4631 83.6936 81.2799 83.4702 81.2799H1.55221Z" fill="#9192FF"/>
<path d="M10.0639 115.617H30.804C31.1935 115.617 31.5142 115.302 31.5142 114.913V108.288C31.5142 107.899 31.1992 107.584 30.804 107.584H10.0639C9.6744 107.584 9.35938 107.899 9.35938 108.288V114.913C9.35938 115.302 9.6744 115.617 10.0639 115.617Z" fill="#9192FF"/>
<path d="M10.0639 101.097H30.804C31.1935 101.097 31.5142 100.782 31.5142 100.392V93.7618C31.5142 93.3724 31.1992 93.0518 30.804 93.0518H10.0639C9.6744 93.0518 9.35938 93.3667 9.35938 93.7618V100.387C9.35938 100.776 9.6744 101.091 10.0639 101.091V101.097Z" fill="#9192FF"/>
<path d="M73.3657 91.569H36.9946C36.6796 91.569 36.4219 91.3113 36.4219 90.9964C36.4219 90.6815 36.6796 90.4238 36.9946 90.4238H73.3657C73.6807 90.4238 73.9385 90.6815 73.9385 90.9964C73.9385 91.3113 73.6807 91.569 73.3657 91.569Z" fill="#9192FF"/>
<path d="M73.3657 104.911H36.9946C36.6796 104.911 36.4219 104.653 36.4219 104.338C36.4219 104.023 36.6796 103.766 36.9946 103.766H73.3657C73.6807 103.766 73.9385 104.023 73.9385 104.338C73.9385 104.653 73.6807 104.911 73.3657 104.911Z" fill="#9192FF"/>
<path d="M56.6005 98.2399H36.9888C36.6738 98.2399 36.416 97.9822 36.416 97.6673C36.416 97.3524 36.6738 97.0947 36.9888 97.0947H56.6005C56.9156 97.0947 57.1733 97.3524 57.1733 97.6673C57.1733 97.9822 56.9156 98.2399 56.6005 98.2399Z" fill="#9192FF"/>
<path d="M56.6005 111.982H36.9888C36.6738 111.982 36.416 111.724 36.416 111.409C36.416 111.095 36.6738 110.837 36.9888 110.837H56.6005C56.9156 110.837 57.1733 111.095 57.1733 111.409C57.1733 111.724 56.9156 111.982 56.6005 111.982Z" fill="#9192FF"/>
<path d="M50.22 118.348H36.9946C36.6796 118.348 36.4219 118.091 36.4219 117.776C36.4219 117.461 36.6796 117.203 36.9946 117.203H50.22C50.535 117.203 50.7927 117.461 50.7927 117.776C50.7927 118.091 50.535 118.348 50.22 118.348Z" fill="#9192FF"/>
</g>
<g opacity="0.5">
<path d="M201.547 113.447C201.49 113.447 201.439 113.436 201.387 113.413C201.244 113.35 201.147 113.207 201.147 113.046V109.754H194.205C193.3 109.754 192.566 109.015 192.566 108.116V98.6229C192.566 97.7183 193.3 96.9854 194.205 96.9854H210.299C211.204 96.9854 211.938 97.724 211.938 98.6229V108.116C211.938 109.021 211.204 109.754 210.299 109.754H205.74L201.817 113.344C201.742 113.413 201.645 113.447 201.547 113.447ZM194.21 97.5522C193.62 97.5522 193.145 98.0332 193.145 98.6172V108.111C193.145 108.7 193.626 109.176 194.21 109.176H201.324C201.547 109.176 201.725 109.353 201.725 109.576V112.651L205.408 109.284C205.482 109.216 205.58 109.181 205.677 109.181H210.305C210.895 109.181 211.371 108.7 211.371 108.116V98.6229C211.371 98.0332 210.889 97.5579 210.305 97.5579H194.21V97.5522Z" fill="#9192FF"/>
<path d="M197.871 105.15C197.109 105.15 196.49 104.532 196.49 103.771C196.49 103.009 197.109 102.391 197.871 102.391C198.632 102.391 199.251 103.009 199.251 103.771C199.251 104.532 198.632 105.15 197.871 105.15ZM197.871 102.969C197.43 102.969 197.063 103.33 197.063 103.776C197.063 104.223 197.424 104.584 197.871 104.584C198.317 104.584 198.678 104.223 198.678 103.776C198.678 103.335 198.317 102.969 197.871 102.969Z" fill="#9192FF"/>
<path d="M202.121 105.15C201.359 105.15 200.74 104.532 200.74 103.771C200.74 103.009 201.359 102.391 202.121 102.391C202.882 102.391 203.501 103.009 203.501 103.771C203.501 104.532 202.882 105.15 202.121 105.15ZM202.121 102.969C201.68 102.969 201.313 103.33 201.313 103.776C201.313 104.223 201.674 104.584 202.121 104.584C202.567 104.584 202.928 104.223 202.928 103.776C202.928 103.335 202.567 102.969 202.121 102.969Z" fill="#9192FF"/>
<path d="M206.365 105.15C205.603 105.15 204.984 104.532 204.984 103.771C204.984 103.009 205.603 102.391 206.365 102.391C207.127 102.391 207.745 103.009 207.745 103.771C207.745 104.532 207.127 105.15 206.365 105.15ZM206.365 102.969C205.924 102.969 205.557 103.33 205.557 103.776C205.557 104.223 205.918 104.584 206.365 104.584C206.812 104.584 207.172 104.223 207.172 103.776C207.172 103.33 206.812 102.969 206.365 102.969Z" fill="#9192FF"/>
</g>
<g opacity="0.5">
<path d="M20.9174 173.929C20.82 173.929 20.7227 173.895 20.6425 173.82L16.656 170.173H12.0165C11.1001 170.173 10.3555 169.429 10.3555 168.513V158.865C10.3555 157.948 11.1001 157.204 12.0165 157.204H28.3692C29.2856 157.204 30.0302 157.948 30.0302 158.865V168.513C30.0302 169.429 29.2856 170.173 28.3692 170.173H21.3126V173.523C21.3126 173.683 21.221 173.826 21.072 173.889C21.0205 173.912 20.9632 173.923 20.9117 173.923L20.9174 173.929ZM12.0222 157.782C11.4208 157.782 10.934 158.269 10.934 158.87V168.518C10.934 169.119 11.4208 169.606 12.0222 169.606H16.7247C16.8278 169.606 16.9252 169.646 16.9939 169.709L20.7456 173.139V170.007C20.7456 169.784 20.9289 169.606 21.1465 169.606H28.3749C28.9763 169.606 29.4632 169.119 29.4632 168.518V158.87C29.4632 158.269 28.9763 157.782 28.3749 157.782H12.0222Z" fill="#9192FF"/>
<path d="M24.6515 165.506C23.884 165.506 23.2539 164.882 23.2539 164.109C23.2539 163.336 23.8782 162.712 24.6515 162.712C25.4247 162.712 26.049 163.336 26.049 164.109C26.049 164.882 25.4247 165.506 24.6515 165.506ZM24.6515 163.284C24.199 163.284 23.8267 163.651 23.8267 164.109C23.8267 164.567 24.1933 164.934 24.6515 164.934C25.1097 164.934 25.4763 164.567 25.4763 164.109C25.4763 163.651 25.104 163.284 24.6515 163.284Z" fill="#9192FF"/>
<path d="M20.339 165.506C19.5715 165.506 18.9414 164.882 18.9414 164.109C18.9414 163.336 19.5657 162.712 20.339 162.712C21.1122 162.712 21.7365 163.336 21.7365 164.109C21.7365 164.882 21.1122 165.506 20.339 165.506ZM20.339 163.284C19.8865 163.284 19.5142 163.651 19.5142 164.109C19.5142 164.567 19.8808 164.934 20.339 164.934C20.7972 164.934 21.1638 164.567 21.1638 164.109C21.1638 163.651 20.7915 163.284 20.339 163.284Z" fill="#9192FF"/>
<path d="M16.0265 165.506C15.259 165.506 14.6289 164.882 14.6289 164.109C14.6289 163.336 15.2532 162.712 16.0265 162.712C16.7997 162.712 17.424 163.336 17.424 164.109C17.424 164.882 16.7997 165.506 16.0265 165.506ZM16.0265 163.284C15.574 163.284 15.2017 163.651 15.2017 164.109C15.2017 164.567 15.5683 164.934 16.0265 164.934C16.4847 164.934 16.8513 164.567 16.8513 164.109C16.8513 163.651 16.4847 163.284 16.0265 163.284Z" fill="#9192FF"/>
</g>
<path opacity="0.43" d="M191.57 116.133C190.671 116.133 189.943 115.406 189.943 114.507C189.943 113.608 190.671 112.881 191.57 112.881C192.469 112.881 193.197 113.608 193.197 114.507C193.197 115.406 192.469 116.133 191.57 116.133ZM191.57 113.459C190.992 113.459 190.516 113.929 190.516 114.513C190.516 115.097 190.986 115.566 191.57 115.566C192.154 115.566 192.624 115.097 192.624 114.513C192.624 113.929 192.154 113.459 191.57 113.459Z" fill="#9192FF"/>
<path opacity="0.43" d="M203.352 82.4711C200.493 82.4711 198.168 80.1464 198.168 77.2893C198.168 74.4321 200.493 72.1074 203.352 72.1074C206.21 72.1074 208.535 74.4321 208.535 77.2893C208.535 80.1464 206.21 82.4711 203.352 82.4711ZM203.352 72.68C200.808 72.68 198.741 74.747 198.741 77.2893C198.741 79.8315 200.808 81.8985 203.352 81.8985C205.895 81.8985 207.962 79.8315 207.962 77.2893C207.962 74.747 205.895 72.68 203.352 72.68Z" fill="#9192FF"/>
<path opacity="0.43" d="M19.2282 139.133C18.329 139.133 17.6016 138.406 17.6016 137.507C17.6016 136.608 18.329 135.881 19.2282 135.881C20.1275 135.881 20.8549 136.608 20.8549 137.507C20.8549 138.406 20.1275 139.133 19.2282 139.133ZM19.2282 136.459C18.6497 136.459 18.1743 136.934 18.1743 137.513C18.1743 138.091 18.644 138.566 19.2282 138.566C19.8125 138.566 20.2821 138.097 20.2821 137.513C20.2821 136.929 19.8125 136.459 19.2282 136.459Z" fill="#9192FF"/>
<path opacity="0.43" d="M47.4196 185.661C46.5204 185.661 45.793 184.934 45.793 184.035C45.793 183.136 46.5204 182.409 47.4196 182.409C48.3189 182.409 49.0463 183.136 49.0463 184.035C49.0463 184.934 48.3189 185.661 47.4196 185.661ZM47.4196 182.982C46.8411 182.982 46.3657 183.451 46.3657 184.035C46.3657 184.619 46.8354 185.089 47.4196 185.089C48.0039 185.089 48.4735 184.619 48.4735 184.035C48.4735 183.451 48.0039 182.982 47.4196 182.982Z" fill="#9192FF"/>
<path opacity="0.27" d="M42.5166 64.6636C47.7488 64.6636 51.9903 60.4235 51.9903 55.1931C51.9903 49.9627 47.7488 45.7227 42.5166 45.7227C37.2845 45.7227 33.043 49.9627 33.043 55.1931C33.043 60.4235 37.2845 64.6636 42.5166 64.6636Z" fill="#9192FF"/>
<path opacity="0.67" d="M44.1376 54.2602C44.6989 53.7907 45.0598 53.0922 45.0598 52.302C45.0598 50.8992 43.92 49.7598 42.5167 49.7598C41.1134 49.7598 39.9735 50.8992 39.9735 52.302C39.9735 53.0922 40.3287 53.7907 40.8957 54.2602C39.0915 54.9244 37.8027 56.6479 37.8027 58.6863C37.8027 61.2915 47.2363 61.2915 47.2363 58.6863C47.2363 56.6536 45.9476 54.9244 44.1433 54.2602H44.1376Z" fill="#9192FF"/>
<path opacity="0.27" d="M150.633 94.8095C155.41 94.8095 159.282 90.9386 159.282 86.1635C159.282 81.3885 155.41 77.5176 150.633 77.5176C145.857 77.5176 141.984 81.3885 141.984 86.1635C141.984 90.9386 145.857 94.8095 150.633 94.8095Z" fill="#9192FF"/>
<path opacity="0.67" d="M152.117 85.3046C152.633 84.8809 152.959 84.2339 152.959 83.5182C152.959 82.2356 151.917 81.1992 150.639 81.1992C149.362 81.1992 148.32 82.2413 148.32 83.5182C148.32 84.2396 148.646 84.8809 149.162 85.3046C147.512 85.9115 146.338 87.4861 146.338 89.3413C146.338 91.7175 154.952 91.7175 154.952 89.3413C154.952 87.4861 153.772 85.9058 152.129 85.3046H152.117Z" fill="#9192FF"/>
<path d="M144.808 74.4717C144.453 67.4691 140.678 61.4799 135.203 57.9986C134.155 57.3344 133.845 55.9717 134.47 54.901C136.211 51.9064 137.116 48.3449 136.87 44.5888C136.423 37.7866 132.316 32.1581 126.691 29.6158C128.49 29.0891 129.624 28.6825 129.624 28.6825C129.624 28.6825 125.483 6.63249 103.62 8.23572C87.8459 9.3866 81.0757 17.1107 78.3264 24.9321C78.166 25.3959 77.8453 25.7853 77.41 26.0029C73.7958 27.8351 71.4875 31.4996 71.3558 35.502C71.3271 36.441 70.7257 37.2598 69.8436 37.5862C59.4478 41.4511 53.5425 52.6794 56.521 63.5813V63.5927C56.7272 64.3314 56.4866 65.1272 55.8966 65.6197C47.4368 72.628 42.5224 83.6445 43.897 95.5255C45.9017 112.84 61.0688 125.895 78.4925 125.317C91.3398 124.893 102.159 117.41 107.521 106.811C110.751 100.433 117.229 96.3958 124.383 96.2813C124.486 96.2813 124.589 96.2813 124.687 96.2756C136.577 95.9091 145.41 86.3528 144.808 74.4775V74.4717Z" fill="#453823"/>
<path opacity="0.32" d="M149.414 161.574H149.422L149.414 161.566V161.574Z" fill="#EF92C7"/>
<path d="M185.664 69.3127L185.458 69.2669C184.41 69.0321 183.361 69.7021 183.127 70.7499L183.476 69.1696C183.751 67.9271 182.96 66.6788 181.718 66.404C180.475 66.1292 179.226 66.9193 178.951 68.1618L179.369 66.2723C179.644 65.0298 178.854 63.7816 177.611 63.5067C176.368 63.2319 175.119 64.0221 174.844 65.2646L174.598 66.3754C174.873 65.1329 174.082 63.8846 172.84 63.6098C171.597 63.335 170.348 64.1251 170.073 65.3676L166.493 81.4399C165.989 80.9819 165.64 80.352 165.548 79.6478C165.33 77.9644 164.752 75.7943 163.228 75.5767C160.113 75.1301 158.119 80.3234 158.698 89.2843C159.282 98.3539 161.207 98.6574 161.207 98.6574L153.778 123.33L153.657 123.736L147.191 109.851L131.611 120.055L146.177 155.738C146.475 156.843 146.91 157.908 147.471 158.916L147.489 158.962H147.494C148.027 159.895 148.663 160.777 149.413 161.572C149.837 162.031 150.295 162.46 150.793 162.861C156.435 167.419 163.412 164.745 167.959 160.027C173.504 154.278 174.208 147.367 174.999 139.769C175.652 133.522 177.788 113.064 178.201 109.084L178.905 102.957C178.905 102.957 184.896 97.3634 183.974 85.8488L187.136 71.6488C187.371 70.601 186.701 69.5532 185.652 69.3184L185.664 69.3127Z" fill="#F9D9EB"/>
<path opacity="0.32" d="M153.652 123.737L151.831 119.826L146.086 148.908V148.925C146.126 148.787 146.149 148.65 146.189 148.507L153.652 123.737Z" fill="#EF92C7"/>
<path d="M172.512 76.0229C172.512 76.0229 172.472 76.0229 172.449 76.0171C172.294 75.9828 172.197 75.8282 172.232 75.6736L174.339 66.2089C174.374 66.0543 174.528 65.9569 174.683 65.9913C174.838 66.0256 174.935 66.1802 174.901 66.3348L172.793 75.7996C172.764 75.9313 172.644 76.0229 172.512 76.0229Z" fill="#F7A9B4"/>
<path d="M176.913 77.5863C176.913 77.5863 176.872 77.5863 176.85 77.5806C176.695 77.5463 176.598 77.3917 176.632 77.2371L178.74 67.7723C178.774 67.6177 178.929 67.5204 179.083 67.5547C179.238 67.5891 179.335 67.7437 179.301 67.8983L177.193 77.363C177.165 77.4947 177.044 77.5863 176.913 77.5863Z" fill="#F7A9B4"/>
<path d="M181.116 80.0541C181.116 80.0541 181.076 80.0541 181.053 80.0484C180.898 80.014 180.801 79.8594 180.835 79.7048L182.943 70.2401C182.977 70.0855 183.132 69.9882 183.286 70.0225C183.441 70.0569 183.539 70.2115 183.504 70.3661L181.396 79.8308C181.368 79.9625 181.247 80.0541 181.116 80.0541Z" fill="#F7A9B4"/>
<path d="M169.615 90.6701C169.586 90.6701 169.557 90.6701 169.529 90.6587C169.38 90.6071 169.3 90.4468 169.345 90.2979C171.356 84.1313 166.264 81.6463 166.046 81.5432C165.903 81.4745 165.84 81.3027 165.909 81.1653C165.977 81.0222 166.144 80.9592 166.292 81.0279C166.35 81.0565 172.06 83.8221 169.89 90.4754C169.849 90.5957 169.741 90.6759 169.615 90.6759V90.6701Z" fill="#F7A9B4"/>
<path d="M125.999 97.856C125.953 97.6498 125.901 97.4494 125.855 97.249C125.901 97.4494 125.947 97.6498 125.999 97.856Z" fill="#F9D9EB"/>
<path d="M125.735 96.7275C125.683 96.5156 125.638 96.3095 125.592 96.0977C125.638 96.3038 125.689 96.5156 125.735 96.7275Z" fill="#F9D9EB"/>
<path d="M125.483 95.6169C125.431 95.3993 125.386 95.1932 125.34 94.9756C125.386 95.1874 125.437 95.3993 125.483 95.6169Z" fill="#F9D9EB"/>
<path d="M125.237 94.5458C125.191 94.3454 125.151 94.1507 125.105 93.9561C125.146 94.1507 125.191 94.3454 125.237 94.5458Z" fill="#F9D9EB"/>
<path d="M127.791 105.236C127.734 105.002 127.676 104.767 127.613 104.526C127.671 104.761 127.728 104.996 127.791 105.236Z" fill="#F9D9EB"/>
<path d="M126.565 100.232C126.507 100.003 126.456 99.7741 126.398 99.5508C126.456 99.7798 126.507 100.003 126.565 100.232Z" fill="#F9D9EB"/>
<path d="M124.394 90.6125C124.366 90.4579 124.331 90.309 124.303 90.1602C124.331 90.309 124.36 90.4579 124.394 90.6125Z" fill="#F9D9EB"/>
<path d="M123.512 85.5164C123.49 85.3389 123.472 85.1672 123.461 85.0068C123.472 85.1672 123.495 85.3389 123.512 85.5164Z" fill="#F9D9EB"/>
<path d="M128.111 106.53C128.048 106.29 127.991 106.049 127.934 105.809C127.991 106.049 128.054 106.29 128.111 106.53Z" fill="#F9D9EB"/>
<path d="M124.584 91.5344C124.549 91.3684 124.515 91.208 124.48 91.042C124.515 91.208 124.543 91.3684 124.584 91.5344Z" fill="#F9D9EB"/>
<path d="M124.79 92.496C124.75 92.3127 124.71 92.1295 124.676 91.9463C124.716 92.1295 124.75 92.307 124.79 92.496Z" fill="#F9D9EB"/>
<path d="M123.912 88.1219C123.89 87.9902 123.867 87.8642 123.844 87.7383C123.867 87.8642 123.884 87.9902 123.912 88.1219Z" fill="#F9D9EB"/>
<path d="M124.217 89.7361C124.188 89.5758 124.154 89.4212 124.125 89.2666C124.154 89.4212 124.182 89.5758 124.217 89.7361Z" fill="#F9D9EB"/>
<path d="M128.781 109.17C128.718 108.935 128.661 108.695 128.604 108.46C128.661 108.695 128.724 108.929 128.781 109.17Z" fill="#F9D9EB"/>
<path d="M131.555 119.86C131.497 119.648 131.44 119.436 131.389 119.225C131.446 119.436 131.503 119.648 131.555 119.86Z" fill="#F9D9EB"/>
<path d="M128.438 107.83C128.38 107.607 128.323 107.383 128.271 107.16C128.329 107.383 128.386 107.607 128.438 107.83Z" fill="#F9D9EB"/>
<path d="M147.185 109.845C133.593 86.3581 123.461 85.0068 123.461 85.0068C123.472 85.1672 123.495 85.3332 123.512 85.5164C123.518 85.5851 123.53 85.6596 123.541 85.7283C123.558 85.8428 123.57 85.9573 123.587 86.0833C123.598 86.1692 123.616 86.2665 123.627 86.3639C123.644 86.4784 123.661 86.5929 123.679 86.7131C123.69 86.8047 123.707 86.9078 123.724 87.0051C123.747 87.1311 123.765 87.2571 123.787 87.3888C123.805 87.5033 123.828 87.6235 123.85 87.738C123.873 87.864 123.896 87.99 123.919 88.1217C123.942 88.2362 123.965 88.3564 123.982 88.4767C124.011 88.6198 124.034 88.7572 124.062 88.9061C124.085 89.0206 124.108 89.1409 124.131 89.2611C124.16 89.4157 124.188 89.5703 124.223 89.7306C124.251 89.868 124.28 90.0112 124.309 90.1543C124.337 90.3032 124.366 90.4521 124.4 90.6067C124.429 90.7498 124.458 90.893 124.492 91.0418C124.526 91.2079 124.561 91.3682 124.595 91.5343C124.624 91.6717 124.652 91.8148 124.681 91.9522C124.721 92.1355 124.755 92.313 124.795 92.5019C124.824 92.645 124.859 92.7939 124.893 92.9428C124.933 93.126 124.973 93.315 125.013 93.5039C125.048 93.6528 125.082 93.8074 125.116 93.962C125.162 94.1567 125.202 94.3513 125.248 94.5517C125.282 94.6949 125.311 94.8438 125.345 94.9869C125.391 95.1988 125.443 95.4106 125.489 95.6282C125.523 95.7828 125.563 95.9431 125.597 96.1034C125.643 96.3153 125.695 96.5214 125.741 96.7333C125.781 96.9051 125.821 97.0826 125.861 97.26C125.907 97.4605 125.953 97.6609 126.004 97.867C126.05 98.0559 126.096 98.2449 126.136 98.4338C126.182 98.6342 126.233 98.8346 126.279 99.0408C126.319 99.2125 126.359 99.3843 126.405 99.5618C126.462 99.7908 126.514 100.014 126.571 100.243C126.617 100.432 126.663 100.621 126.709 100.816C126.76 101.028 126.812 101.234 126.863 101.446C126.915 101.652 126.966 101.864 127.018 102.075C127.069 102.287 127.121 102.493 127.173 102.705C127.218 102.889 127.264 103.077 127.31 103.266C127.367 103.501 127.425 103.736 127.482 103.971C127.528 104.16 127.573 104.349 127.625 104.543C127.682 104.778 127.74 105.013 127.803 105.253C127.848 105.442 127.9 105.637 127.946 105.832C128.003 106.072 128.066 106.313 128.123 106.553C128.175 106.765 128.226 106.977 128.284 107.183C128.341 107.406 128.398 107.629 128.45 107.853C128.501 108.065 128.559 108.271 128.61 108.483C128.673 108.717 128.73 108.952 128.788 109.193C128.834 109.376 128.879 109.559 128.931 109.742C129 110.006 129.063 110.269 129.131 110.532C129.183 110.727 129.229 110.922 129.28 111.111C129.343 111.357 129.406 111.597 129.469 111.844C129.527 112.078 129.59 112.307 129.647 112.542C129.704 112.754 129.756 112.966 129.813 113.178C129.87 113.401 129.928 113.619 129.985 113.842C130.048 114.082 130.111 114.323 130.174 114.563C130.22 114.752 130.271 114.941 130.323 115.13C130.391 115.388 130.454 115.646 130.523 115.903C130.575 116.098 130.626 116.287 130.672 116.482C130.741 116.739 130.81 117.003 130.878 117.26C130.924 117.443 130.976 117.627 131.022 117.804C131.09 118.068 131.159 118.337 131.228 118.6C131.285 118.818 131.342 119.03 131.4 119.247C131.457 119.459 131.514 119.671 131.566 119.883C131.583 119.946 131.6 120.009 131.617 120.072C132.872 124.818 147.197 109.868 147.197 109.868L147.185 109.845Z" fill="#8A4FFF"/>
<path d="M141.418 128.385L132.529 104.085C132.391 87.2571 124.332 82.0638 109.051 82.1897L75.7728 82.4588C70.1596 82.5046 65.1937 85.4592 62.0319 90.0054L62.0148 90.0341C61.5107 90.7612 61.0525 91.5342 60.6458 92.3358L38.3535 129.811L38.9607 130.023L58.7328 136.98L59.1566 189.09H133.159L135.61 151.352L139.734 144.83C142.776 140.015 143.412 133.836 141.418 128.385Z" fill="#8A4FFF"/>
<path d="M72.3297 141.629C72.3297 141.629 72.2896 141.629 72.2724 141.624L65.7772 140.278C65.6225 140.244 65.5252 140.095 65.5538 139.94C65.5882 139.786 65.7371 139.683 65.8918 139.717L72.1178 141.005L77.3816 119.161C77.4217 119.007 77.5763 118.915 77.7252 118.95C77.8799 118.984 77.9715 119.144 77.9372 119.293L72.6047 141.406C72.576 141.538 72.4557 141.624 72.324 141.624L72.3297 141.629Z" fill="#9192FF"/>
<path d="M91.232 143.594L98.1168 179.357C98.4776 181.218 100.276 182.443 102.138 182.088L157.519 171.553C159.375 171.198 160.595 169.417 160.263 167.562L153.899 132.314C153.561 130.448 151.774 129.205 149.907 129.537L94.0043 139.563C92.1198 139.901 90.8712 141.716 91.232 143.6V143.594Z" fill="#453823"/>
<path opacity="0.61" d="M104.257 179.5C102.682 179.5 101.267 178.384 100.964 176.781L94.8178 144.871C94.6459 143.983 94.835 143.084 95.3447 142.34C95.8545 141.596 96.6277 141.097 97.5213 140.937L147.398 131.993C149.214 131.667 150.967 132.881 151.293 134.702L156.969 166.154C157.296 167.957 156.093 169.704 154.295 170.047L104.881 179.449C104.669 179.489 104.463 179.506 104.251 179.506L104.257 179.5ZM147.994 132.509C147.834 132.509 147.668 132.52 147.501 132.555L97.6244 141.498C96.8855 141.63 96.244 142.042 95.8201 142.661C95.3963 143.279 95.2416 144.023 95.3848 144.762L101.531 176.672C101.823 178.178 103.283 179.168 104.784 178.882L154.197 169.48C155.692 169.194 156.689 167.751 156.419 166.251L150.743 134.799C150.503 133.454 149.323 132.509 148.005 132.509H147.994Z" fill="#ECF1F7"/>
<path opacity="0.61" d="M126.613 161.333C124.723 161.333 122.913 160.256 122.071 158.436C121.51 157.228 121.458 155.871 121.916 154.617C122.375 153.363 123.297 152.366 124.511 151.805C125.725 151.244 127.077 151.193 128.331 151.651C129.586 152.109 130.582 153.031 131.144 154.244C132.301 156.747 131.207 159.718 128.704 160.875C128.028 161.19 127.312 161.339 126.613 161.339V161.333ZM126.607 151.914C125.977 151.914 125.342 152.051 124.752 152.326C123.68 152.824 122.861 153.706 122.455 154.817C122.048 155.928 122.094 157.13 122.592 158.201C123.617 160.417 126.252 161.379 128.469 160.36C130.685 159.335 131.653 156.701 130.628 154.485C130.13 153.414 129.248 152.595 128.137 152.189C127.638 152.006 127.123 151.914 126.607 151.914Z" fill="#ECF1F7"/>
<path d="M121.028 165.204C120.695 164.585 120.065 164.224 119.407 164.19C119.418 164.11 119.43 164.058 119.43 164.058C119.464 164.013 119.493 163.967 119.527 163.921L120.34 163.537C121.308 163.085 121.892 162.026 121.658 160.989C121.492 160.239 120.988 159.713 120.375 159.443C121.744 158.836 122.081 157.05 121.022 155.991L120.976 155.945C120.283 155.252 119.235 155.052 118.336 155.447C118.244 155.447 118.158 155.447 118.072 155.447C118.891 154.748 119.155 153.517 118.513 152.527C117.912 151.588 116.669 151.29 115.649 151.737L111.588 153.517L93.987 157.92L93.1049 153.345L92.4004 153.769C89.7084 155.384 87.3715 157.525 85.5271 160.068L83.9978 162.175C83.9978 162.175 66.9808 156.89 56.0809 153.529L63.126 138.527L38.9493 130.019L26.9382 155.355C26.1363 157.044 25.638 158.785 25.4204 160.514C24.4638 164.894 25.5235 168.347 27.9177 171.084C29.1434 172.796 30.7643 174.21 32.7461 175.149C33.3533 175.436 33.9719 175.659 34.6019 175.825C46.2807 181.356 65.5431 181.894 73.9858 183.228C77.9837 183.858 81.386 184.225 84.1926 184.431C91.5012 184.958 98.7754 183.091 104.921 179.106C110.414 175.544 115.775 171.324 116.898 170.025C117.047 169.859 117.179 169.675 117.31 169.492L120.254 167.906C121.199 167.397 121.555 166.206 121.051 165.261L121.016 165.198L121.028 165.204Z" fill="#F9D9EB"/>
<path opacity="0.32" d="M32.4434 147.081L58.6477 148.077L56.0874 153.528L32.4434 147.081Z" fill="#EF92C7"/>
<path d="M109.292 159.478C109.183 159.478 109.074 159.415 109.028 159.306C108.965 159.163 109.028 158.992 109.177 158.929L118.055 155.035C118.198 154.972 118.37 155.035 118.433 155.184C118.496 155.333 118.433 155.499 118.284 155.562L109.4 159.455C109.366 159.473 109.326 159.478 109.286 159.478H109.292Z" fill="#F7A9B4"/>
<path d="M110.563 163.807C110.454 163.807 110.346 163.744 110.3 163.636C110.237 163.492 110.3 163.321 110.449 163.258L119.327 159.364C119.47 159.301 119.642 159.364 119.705 159.513C119.768 159.662 119.705 159.828 119.556 159.891L110.672 163.784C110.632 163.802 110.598 163.807 110.557 163.807H110.563Z" fill="#F7A9B4"/>
<path d="M110.5 168.576C110.392 168.576 110.289 168.513 110.243 168.41C110.174 168.267 110.237 168.095 110.38 168.026L119.138 163.864C119.281 163.795 119.453 163.858 119.522 164.001C119.59 164.144 119.527 164.316 119.384 164.385L110.626 168.548C110.586 168.565 110.546 168.576 110.506 168.576H110.5Z" fill="#F7A9B4"/>
<path d="M125.146 32.7646C125.06 31.8771 124.911 31.0067 124.722 30.1593C118.313 31.8599 107.511 33.8467 104.143 29.0771C101.388 30.898 99.8526 34.9404 98.9934 38.9942C98.8617 39.6241 98.6784 40.2253 98.4493 40.7979C96.1181 46.6267 88.9813 48.8254 83.5686 45.6419H83.5629L83.1677 42.1377L82.7209 42.1778C78.3507 42.6015 75.1203 46.5179 75.5384 50.8867C75.9622 55.2555 79.88 58.4848 84.2502 58.0669L84.7715 58.0153C85.0178 59.8419 85.4932 61.5825 86.1805 63.2086C86.106 63.7297 86.0545 64.2622 86.0545 64.8004V84.291C86.0545 90.555 91.1808 95.6739 97.4412 95.6739C103.702 95.6739 108.828 90.5493 108.828 84.291V75.5363C115.025 74.4426 120.169 70.6293 123.13 65.4703C125.965 61.5768 127.443 56.6698 126.945 51.4994L125.14 32.7646H125.146Z" fill="#F9D9EB"/>
<path opacity="0.32" d="M108.559 73.8072C97.951 74.8321 88.4545 67.5546 86.5128 57.2882C86.4956 57.1852 84.7601 57.9181 84.7715 58.0097C85.2068 61.2047 86.3581 64.142 88.0478 66.6728C87.9619 67.2797 87.9103 67.8981 87.9275 68.528C88.0707 74.7863 93.3116 79.7906 99.5777 79.6475C102.923 79.573 105.895 78.0328 107.929 75.6738C114.533 74.8034 120.037 70.8755 123.136 65.4647C119.814 70.0339 114.624 73.2117 108.559 73.7957V73.8072Z" fill="#EF92C7"/>
<path d="M80.9974 52.4325C80.9058 52.4325 80.8084 52.3867 80.7568 52.3008C80.6709 52.1691 80.711 51.9916 80.8427 51.9057L83.5634 50.1594L80.6136 46.8327C80.5105 46.7124 80.522 46.5349 80.6366 46.4261C80.7568 46.3231 80.9344 46.3288 81.0432 46.4491L84.2164 50.0277C84.2737 50.0907 84.2966 50.1765 84.2851 50.2567C84.2737 50.3426 84.2278 50.4113 84.1534 50.4571L81.152 52.3867C81.1005 52.4211 81.0489 52.4325 80.9974 52.4325Z" fill="#F7A9B4"/>
<path d="M110.151 65.8488C110.065 65.8488 109.985 65.8144 109.928 65.74C109.83 65.6197 109.848 65.4365 109.974 65.3392C109.991 65.322 111.852 63.8676 113.788 65.1044C113.92 65.1903 113.96 65.3678 113.874 65.4995C113.788 65.6312 113.611 65.6713 113.479 65.5854C111.898 64.5719 110.397 65.7343 110.334 65.7858C110.283 65.8259 110.22 65.8488 110.157 65.8488H110.151Z" fill="#F7A9B4"/>
<path d="M112.265 61.7831L108.851 61.8632C105.689 61.9377 103.066 59.4298 102.992 56.2691L102.969 55.4045L113.536 55.1641L113.657 60.3287C113.674 61.1132 113.05 61.7659 112.265 61.7831Z" fill="white"/>
<path d="M105.683 46.4088L105.809 46.3974C106.284 46.3516 106.634 45.9279 106.588 45.4526L106.485 44.4048C106.439 43.9296 106.015 43.5803 105.54 43.6261L105.414 43.6376C104.938 43.6834 104.589 44.1071 104.635 44.5823L104.738 45.6301C104.784 46.1054 105.208 46.4547 105.683 46.4088Z" fill="#453823"/>
<path d="M119.012 46.4949L119.138 46.4834C119.613 46.4319 119.957 46.0025 119.905 45.5272L119.791 44.4794C119.739 44.0042 119.31 43.6606 118.834 43.7121L118.708 43.7236C118.233 43.7751 117.889 44.2046 117.941 44.6798L118.055 45.7276C118.107 46.2029 118.536 46.5464 119.012 46.4949Z" fill="#453823"/>
<path d="M113.232 54.1625C112.974 54.1625 112.739 53.985 112.676 53.7273C112.602 53.4181 112.791 53.109 113.1 53.0345L115.414 52.4734C115.598 52.4276 115.706 52.2444 115.661 52.0669L113.295 42.2471C113.221 41.9379 113.41 41.6287 113.719 41.5543C114.028 41.4799 114.337 41.6688 114.412 41.978L116.777 51.7977C116.966 52.5936 116.48 53.3952 115.683 53.5842L113.369 54.1453C113.324 54.1568 113.278 54.1625 113.232 54.1625Z" fill="#F7A9B4"/>
<path d="M105.907 52.4901C104.469 52.4901 103.066 52.0549 101.857 51.2132C100.299 50.1253 99.257 48.4992 98.919 46.6326C98.5811 44.7603 98.9992 42.8765 100.082 41.3133C101.17 39.7559 102.797 38.7138 104.664 38.376C106.531 38.0382 108.421 38.4562 109.985 39.5383C111.543 40.6262 112.585 42.2524 112.923 44.119C113.261 45.9856 112.843 47.8751 111.761 49.4383C110.672 50.9957 109.046 52.0378 107.178 52.3756C106.755 52.45 106.331 52.4901 105.907 52.4901ZM105.935 39.4067C105.58 39.4067 105.225 39.441 104.87 39.504C103.301 39.7846 101.938 40.6606 101.027 41.9718C100.116 43.283 99.7667 44.8633 100.053 46.4322C100.334 48.0011 101.21 49.3638 102.516 50.2742C103.822 51.1846 105.409 51.5339 106.978 51.2476C108.547 50.967 109.911 50.091 110.821 48.7855C111.732 47.4743 112.081 45.894 111.795 44.3251C111.514 42.7562 110.638 41.3935 109.332 40.4774C108.318 39.7731 107.144 39.4067 105.935 39.4067Z" fill="white"/>
<path d="M122.477 52.753C121.039 52.753 119.636 52.3179 118.428 51.4762C116.87 50.3883 115.822 48.7622 115.489 46.8956C115.151 45.0232 115.57 43.1394 116.652 41.5763C117.74 40.0189 119.367 38.9711 121.234 38.639C125.1 37.9461 128.801 40.5227 129.494 44.3877C129.832 46.26 129.413 48.1438 128.331 49.7069C127.243 51.2643 125.616 52.3064 123.749 52.6443C123.325 52.7187 122.901 52.7588 122.477 52.7588V52.753ZM122.494 39.6696C122.145 39.6696 121.796 39.6982 121.44 39.7669C119.871 40.0475 118.502 40.9235 117.591 42.2348C116.681 43.546 116.331 45.1263 116.618 46.6952C116.898 48.264 117.775 49.6268 119.081 50.5372C120.387 51.4476 121.973 51.7968 123.543 51.5105C125.112 51.23 126.475 50.3539 127.392 49.0485C128.302 47.7372 128.652 46.1569 128.365 44.5881C127.85 41.7023 125.324 39.6753 122.494 39.6753V39.6696Z" fill="white"/>
<path d="M113.067 46.2084C112.769 46.2084 112.522 45.9794 112.494 45.6817C112.471 45.3667 112.706 45.0919 113.021 45.0633L115.575 44.8629C115.89 44.84 116.165 45.0747 116.194 45.3896C116.222 45.7046 115.982 45.9794 115.667 46.008L113.112 46.2084C113.112 46.2084 113.084 46.2084 113.067 46.2084Z" fill="white"/>
<path d="M102.762 37.7688C103.192 37.8433 103.685 37.6772 104.166 37.5455C104.652 37.4024 105.145 37.265 105.575 37.1676C106.004 37.0646 106.508 36.9672 107.007 36.8813C107.499 36.784 108.02 36.7153 108.364 36.4576C108.696 36.2114 108.742 35.7305 108.175 35.2838C107.637 34.843 106.422 34.5109 104.996 34.843C103.57 35.1808 102.648 36.011 102.379 36.6409C102.086 37.2936 102.356 37.7001 102.768 37.7688H102.762Z" fill="#453823"/>
<path d="M123.851 36.7553C123.422 36.824 122.929 36.6523 122.448 36.5091C121.967 36.3603 121.474 36.2171 121.045 36.1083C120.615 35.9995 120.117 35.8965 119.618 35.7991C119.126 35.6961 118.61 35.6159 118.267 35.3525C117.934 35.1063 117.9 34.6196 118.473 34.1787C119.017 33.7493 120.237 33.4344 121.663 33.7836C123.084 34.1444 123.994 34.9861 124.252 35.6216C124.533 36.2744 124.258 36.6809 123.846 36.7439L123.851 36.7553Z" fill="#453823"/>
<path d="M104.064 47.1135C103.972 47.1135 103.88 47.0734 103.829 46.9932C103.737 46.8615 103.772 46.684 103.903 46.5924C103.983 46.5352 105.851 45.264 107.374 46.329C107.506 46.4207 107.535 46.5982 107.443 46.7298C107.351 46.8615 107.174 46.8902 107.042 46.7986C105.851 45.9626 104.247 47.0505 104.23 47.0619C104.178 47.0963 104.127 47.1135 104.069 47.1135H104.064Z" fill="#F7A9B4"/>
<path d="M117.724 47.3713C117.632 47.3713 117.546 47.3312 117.489 47.251C117.397 47.1194 117.432 46.9419 117.563 46.8502C117.644 46.793 119.511 45.5219 121.034 46.5869C121.166 46.6785 121.195 46.856 121.103 46.9877C121.012 47.1194 120.834 47.148 120.702 47.0564C119.505 46.2147 117.901 47.3083 117.89 47.3198C117.838 47.3541 117.781 47.3713 117.724 47.3713Z" fill="#F7A9B4"/>
<path d="M181.604 0.5C166.431 0.5 154.128 12.799 154.128 27.9667C154.128 33.6466 155.852 38.9201 158.808 43.3003C158.796 43.3805 158.624 44.2222 158.516 44.7833C158 46.9019 156.677 50.7782 153.504 53.5553C151.041 55.628 158.355 57.2656 163.619 53.79C164.696 53.0857 165.687 52.1582 166.506 50.9557C166.512 50.9443 166.517 50.9328 166.529 50.9214C170.859 53.7671 176.037 55.4219 181.604 55.4219C196.777 55.4219 209.08 43.1286 209.08 27.9552C209.08 12.7818 196.777 0.5 181.604 0.5Z" fill="#561F37"/>
</g>
<defs>
<clipPath id="clip0_3749_1016">
<rect width="224" height="216" fill="white" transform="translate(0 0.5)"/>
</clipPath>
</defs>
</svg>
