<svg width="804" height="804" viewBox="0 0 804 804" fill="none" xmlns="http://www.w3.org/2000/svg">
<path d="M138.261 273.628C40.0151 273.628 39.8527 413.333 138.261 413.333C236.5 413.333 236.664 273.628 138.261 273.628Z" fill="#EBEBEB"/>
<path d="M198.001 356.577C192.761 380.612 172.833 401.459 138.248 401.459C56.589 401.459 56.7144 285.505 138.248 285.505C138.782 285.505 139.314 285.505 139.848 285.534C63.1175 286.941 63.4937 396.75 141.355 396.75C173.114 396.75 192.039 378.372 198.001 356.577Z" fill="#DBDBDB"/>
<path d="M138.842 300.792C140.223 300.792 141.392 301.863 141.392 303.126V307.015C149.045 307.599 154.572 309.934 160.312 313.822C161.267 314.504 161.8 315.088 161.8 316.06C161.8 317.421 160.523 318.49 159.035 318.49C158.399 318.49 157.865 318.395 157.122 317.81C151.915 314.017 146.815 312.073 141.18 311.491V338.719C157.336 341.83 164.138 347.375 164.138 356.905C164.138 367.214 154.678 374.508 141.392 374.897V382.482C141.392 383.748 140.222 384.815 138.842 384.815C137.459 384.815 136.292 383.746 136.292 382.482V374.799C127.046 374.119 119.499 371.007 112.378 365.365C111.633 364.781 111.207 364.199 111.207 363.323C111.207 362.057 112.484 360.891 113.865 360.891C114.822 360.891 115.459 361.281 115.779 361.572C121.731 366.63 128.213 369.645 136.506 370.422V342.703C120.561 339.495 113.971 334.146 113.971 324.42C113.971 314.599 123.325 307.109 136.292 306.819V303.122C136.292 301.863 137.459 300.792 138.842 300.792ZM136.506 337.749V311.199C126.195 311.394 119.393 317.033 119.393 324.036C119.393 330.65 122.794 334.736 136.506 337.749ZM141.18 343.681V370.523C151.811 370.329 158.719 364.686 158.719 357.298C158.719 350.586 154.998 346.501 141.18 343.681Z" fill="#DBDBDB"/>
<path d="M274.991 72.0738C220.667 81.8215 235.014 162.294 289.427 152.532C343.747 142.784 329.4 62.31 274.991 72.0738Z" fill="#DBDBDB"/>
<path d="M280.089 71.1586C228.318 80.4481 242.67 160.92 294.526 151.617C346.296 142.326 331.944 61.8532 280.089 71.1586Z" fill="#EBEBEB"/>
<path d="M320.143 113.28C319.865 127.617 311.518 141.509 293.294 144.779C250.262 152.501 238.347 85.7095 281.311 78.0008C281.593 77.9509 281.874 77.8995 282.157 77.8657C241.869 85.9314 253.414 149.135 294.444 141.774C311.18 138.769 319.254 126.397 320.143 113.28Z" fill="#DBDBDB"/>
<path d="M283.204 86.7466C283.931 86.6163 284.66 87.1212 284.79 87.8497L285.192 90.0896C289.284 89.7021 292.438 90.5254 295.866 92.2202C296.44 92.5225 296.781 92.8087 296.88 93.3683C297.02 94.1514 296.459 94.8879 295.674 95.0294C295.338 95.0889 295.049 95.0857 294.596 94.8187C291.46 93.1271 288.57 92.4887 285.541 92.6865L288.355 108.368C297.189 108.633 301.348 111.182 302.332 116.671C303.398 122.608 299.165 127.704 292.204 129.185L292.989 133.552C293.119 134.281 292.614 135.007 291.886 135.138C291.158 135.268 290.431 134.763 290.301 134.035L289.506 129.609C284.563 130.092 280.265 129.013 275.93 126.437C275.478 126.172 275.193 125.876 275.102 125.372C274.971 124.644 275.523 123.851 276.251 123.721C276.755 123.631 277.131 123.795 277.33 123.932C280.99 126.282 284.718 127.405 289.167 127.069L286.303 111.106C277.568 110.767 273.544 108.308 272.539 102.708C271.524 97.0506 275.677 91.8536 282.482 90.4594L282.1 88.3305C281.971 87.6052 282.476 86.8768 283.204 86.7466ZM285.792 108.252L283.048 92.9615C277.636 94.0485 274.634 97.9399 275.357 101.973C276.041 105.782 278.255 107.813 285.792 108.252ZM288.869 111.227L291.643 126.686C297.225 125.569 300.283 121.666 299.519 117.411C298.825 113.544 296.442 111.544 288.869 111.227Z" fill="#DBDBDB"/>
<path d="M703.064 448.028C636.922 459.897 654.39 557.879 720.643 545.991C786.782 534.124 769.312 436.141 703.064 448.028Z" fill="#DBDBDB"/>
<path d="M709.274 446.914C646.238 458.225 663.713 556.207 726.852 544.877C789.884 533.566 772.41 435.586 709.274 446.914Z" fill="#EBEBEB"/>
<path d="M758.042 498.2C757.704 515.656 747.54 532.569 725.351 536.551C672.958 545.953 658.449 464.63 710.762 455.242C711.104 455.181 711.447 455.12 711.793 455.078C662.737 464.898 676.796 541.855 726.753 532.891C747.128 529.236 756.958 514.171 758.042 498.2Z" fill="#DBDBDB"/>
<path d="M721.856 465.853C722.75 465.959 723.419 466.805 723.312 467.699L722.989 470.452C727.895 471.448 731.278 473.52 734.671 476.709C735.233 477.265 735.528 477.717 735.448 478.405C735.335 479.369 734.419 480.028 733.456 479.914C733.044 479.866 732.706 479.758 732.274 479.287C729.219 476.207 726.078 474.443 722.478 473.601L720.212 492.866C730.412 496.298 734.355 500.739 733.562 507.483C732.703 514.777 725.972 519.216 717.339 518.482L716.708 523.849C716.602 524.745 715.756 525.412 714.862 525.306C713.967 525.201 713.299 524.356 713.406 523.46L714.044 518.025C708.115 516.84 703.487 514.063 699.347 509.53C698.914 509.06 698.686 508.615 698.76 507.996C698.864 507.1 699.789 506.372 700.683 506.478C701.302 506.55 701.683 506.875 701.865 507.105C705.298 511.138 709.244 513.764 714.547 514.946L716.853 495.333C706.797 491.85 702.978 487.561 703.786 480.681C704.603 473.731 711.281 469.145 719.701 469.926L720.008 467.31C720.116 466.416 720.96 465.747 721.856 465.853ZM717.266 491.824L719.476 473.04C712.785 472.393 707.911 475.865 707.329 480.819C706.779 485.497 708.641 488.647 717.266 491.824ZM719.801 496.376L717.567 515.369C724.465 516.041 729.407 512.575 730.023 507.346C730.581 502.596 728.511 499.424 719.801 496.376Z" fill="#DBDBDB"/>
<path d="M73.5723 753.465C283.984 752.481 520.017 752.473 730.427 753.465C520.016 754.457 283.982 754.449 73.5723 753.465Z" fill="#263238"/>
<path d="M717.098 92.1816H350.344V561.652H717.098V92.1816Z" fill="#8A4FFF"/>
<path opacity="0.8" d="M717.098 92.1816H350.344V561.652H717.098V92.1816Z" fill="white"/>
<path d="M516.301 126.826H383.898V177.021H516.301V126.826Z" fill="#8A4FFF"/>
<path d="M418.311 139.478H410.028V167.288C410.028 168.904 408.777 170.152 407.161 170.152C405.6 170.152 404.299 168.902 404.299 167.288V139.478H396.072C394.456 139.478 393.205 138.122 393.205 136.561C393.205 134.948 394.456 133.697 396.072 133.697H418.311C419.872 133.697 421.173 134.948 421.173 136.561C421.173 138.122 419.871 139.478 418.311 139.478Z" fill="white"/>
<path d="M443.428 161.559H430.77L428.221 168.328C427.75 169.475 426.657 170.152 425.512 170.152C425.147 170.152 424.833 170.099 424.524 169.994C423.01 169.422 422.281 167.756 422.802 166.246L434.311 135.572C434.782 134.425 435.927 133.695 437.072 133.748C438.271 133.695 439.366 134.425 439.832 135.572L451.341 166.246C451.862 167.756 451.134 169.422 449.624 169.994C449.365 170.099 449 170.152 448.636 170.152C447.491 170.152 446.396 169.475 445.977 168.328L443.428 161.559ZM441.291 155.829L437.072 144.631L432.857 155.829H441.291Z" fill="white"/>
<path d="M484.589 138.643L474.695 152.08L484.589 165.621C485.475 166.872 485.267 168.693 483.965 169.579C483.444 169.944 482.871 170.152 482.299 170.152C481.361 170.152 480.527 169.684 479.954 168.954L471.205 156.923L462.401 168.954C461.829 169.684 460.998 170.152 460.112 170.152C459.488 170.152 458.912 169.944 458.446 169.579C457.143 168.693 456.886 166.872 457.767 165.621L467.664 152.08L457.767 138.643C456.886 137.341 457.143 135.57 458.446 134.684C459.697 133.694 461.52 133.954 462.403 135.31L471.207 147.288L479.956 135.31C480.945 133.954 482.665 133.694 483.968 134.684C485.267 135.572 485.475 137.342 484.589 138.643Z" fill="white"/>
<path d="M684.286 186.812H383.898V188.99H684.286V186.812Z" fill="#8A4FFF"/>
<path opacity="0.5" d="M684.284 126.858H516.301V139.472H684.284V126.858Z" fill="#8A4FFF"/>
<path opacity="0.5" d="M684.284 145.633H516.301V158.246H684.284V145.633Z" fill="#8A4FFF"/>
<path opacity="0.5" d="M516.301 204.497H383.898V217.11H516.301V204.497Z" fill="#8A4FFF"/>
<path opacity="0.5" d="M516.301 223.272H383.898V235.886H516.301V223.272Z" fill="#8A4FFF"/>
<path opacity="0.5" d="M684.284 164.408H516.301V177.021H684.284V164.408Z" fill="#8A4FFF"/>
<path opacity="0.5" d="M684.286 453.805H383.898V466.418H684.286V453.805Z" fill="#8A4FFF"/>
<path opacity="0.5" d="M684.286 472.58H383.898V485.193H684.286V472.58Z" fill="#8A4FFF"/>
<path opacity="0.5" d="M684.286 491.355H383.898V503.968H684.286V491.355Z" fill="#8A4FFF"/>
<path d="M682.677 206.105V234.277H529.62V206.105H682.677ZM684.285 204.497H528.012V235.885H684.285V204.497Z" fill="#8A4FFF"/>
<path d="M682.678 250.518V437.376H385.506V250.518H682.678ZM684.286 248.91H383.898V438.984H684.286V248.91Z" fill="#8A4FFF"/>
<path d="M468.184 248.909H466.576V438.053H468.184V248.909Z" fill="#8A4FFF"/>
<path d="M648.276 248.909H646.668V438.053H648.276V248.909Z" fill="#8A4FFF"/>
<path d="M683.543 263.032H384.539V264.64H683.543V263.032Z" fill="#8A4FFF"/>
<path d="M683.543 298.413H384.539V300.021H683.543V298.413Z" fill="#8A4FFF"/>
<path d="M683.543 333.792H384.539V335.4H683.543V333.792Z" fill="#8A4FFF"/>
<path d="M683.543 369.173H384.539V370.781H683.543V369.173Z" fill="#8A4FFF"/>
<path d="M683.543 404.552H384.539V406.16H683.543V404.552Z" fill="#8A4FFF"/>
<path d="M663.691 293.479L653.416 283.079L656.868 279.668L662.869 285.743L675.339 266.195L679.432 268.805L663.691 293.479Z" fill="#8A4FFF"/>
<path d="M663.691 329.936L653.416 319.535L656.868 316.125L662.869 322.2L675.339 302.651L679.432 305.26L663.691 329.936Z" fill="#8A4FFF"/>
<path opacity="0.3" d="M453.846 274.897H397.217V287.51H453.846V274.897Z" fill="#8A4FFF"/>
<path opacity="0.3" d="M634.05 274.897H480.9V287.51H634.05V274.897Z" fill="#8A4FFF"/>
<path opacity="0.3" d="M634.05 309.844H480.9V322.457H634.05V309.844Z" fill="#8A4FFF"/>
<path opacity="0.3" d="M634.05 344.791H480.9V357.404H634.05V344.791Z" fill="#8A4FFF"/>
<path opacity="0.3" d="M634.05 379.737H480.9V392.35H634.05V379.737Z" fill="#8A4FFF"/>
<path opacity="0.3" d="M634.05 414.684H480.9V427.297H634.05V414.684Z" fill="#8A4FFF"/>
<path opacity="0.3" d="M453.846 309.987H397.217V322.6H453.846V309.987Z" fill="#8A4FFF"/>
<path opacity="0.3" d="M453.846 345.077H397.217V357.69H453.846V345.077Z" fill="#8A4FFF"/>
<path opacity="0.3" d="M453.846 380.167H397.217V392.78H453.846V380.167Z" fill="#8A4FFF"/>
<path opacity="0.3" d="M453.846 415.256H397.217V427.87H453.846V415.256Z" fill="#8A4FFF"/>
<path d="M341.945 202.099C398.892 227.717 411.216 308.016 407.448 422.272C406.876 439.632 259.935 469.811 188.879 416.244C177.393 407.585 193.679 267.83 221.883 227.572C256.882 177.618 306.675 186.232 341.945 202.099Z" fill="#263238"/>
<path d="M343.487 203.251C373.301 218.407 392.443 248.533 401.047 280.183C407.317 303.245 410.181 327.947 412.852 351.651C415.418 374.41 417.052 397.866 413.94 420.635C413.831 421.447 412.668 421.349 412.681 420.534C413.265 377.404 408.093 334.02 399.27 291.789C391.856 256.306 373.629 224.58 342.349 205.45C341.164 204.724 342.219 202.605 343.487 203.251Z" fill="#263238"/>
<path d="M200.204 266.814C210.66 230.488 234.056 204.507 269.183 192.787C269.401 192.714 269.525 193.102 269.308 193.187C231.311 208.153 209.894 238.205 200.176 278.025C189.6 321.35 185.266 365.327 181.684 409.682C181.603 410.68 180.185 410.547 180.199 409.561C180.862 362.41 187.154 312.16 200.204 266.814Z" fill="#263238"/>
<path d="M277.142 477.044C295.756 561.292 338.341 689.083 386.624 675.836C419.395 666.846 495.426 623.864 529.395 589.393C547.474 571.048 479.93 460.07 462.825 475.907C424.758 511.153 403.011 531.24 392.877 540.139C389.573 543.041 349.614 485.788 320.173 451.297C281.937 406.496 268.926 439.856 277.142 477.044Z" fill="#EB9481"/>
<path d="M516.025 589.911C530.54 587.134 609.803 568.204 626.845 558.963C643.886 549.72 691.001 519.57 685.247 505.801C679.494 492.03 664.994 499.755 664.994 499.755C664.994 499.755 684.811 482.651 675.82 470.541C668.645 460.878 647.663 470.67 647.663 470.67C647.663 470.67 668.397 450.783 657.94 439.913C648.411 430.008 628.457 446.276 628.457 446.276C628.457 446.276 644.121 427.881 633.105 420.106C619.853 410.756 592.729 442.583 573.15 451.374C568.703 453.371 480.148 485.423 480.148 485.423L516.025 589.911Z" fill="#EB9481"/>
<path d="M628.301 445C605.551 466.775 595.509 475.114 566.585 484.048C566.02 484.222 566.15 485.103 566.76 484.974C595.879 478.803 608.512 469.758 629.485 445.908C630.493 444.758 629.358 443.988 628.301 445Z" fill="#263238"/>
<path d="M647.386 470.554C624.492 492.998 610.632 499.68 581.027 511.265C580.607 511.431 580.842 512.156 581.279 512.026C611.271 503.09 628.358 496.546 648.286 471.115C649.188 469.964 648.432 469.526 647.386 470.554Z" fill="#263238"/>
<path d="M663.522 500.333C639.79 520.463 625.001 529.288 594.816 536.845C594.103 537.024 594.295 538.08 595.028 537.969C626.557 533.258 645.093 522.381 664.056 501.119C665.352 499.668 665.016 499.066 663.522 500.333Z" fill="#263238"/>
<path d="M667.811 412.268L558.744 386.408L518.54 555.972L627.608 581.832L667.811 412.268Z" fill="#37474F"/>
<path d="M659.909 410.394L550.842 384.534L510.638 554.098L619.705 579.958L659.909 410.394Z" fill="#263238"/>
<path d="M569.96 434.758L548.988 429.785L544.016 450.757L564.988 455.729L569.96 434.758Z" fill="#DBDBDB"/>
<path d="M593.722 440.396L572.75 435.423L567.778 456.395L588.749 461.367L593.722 440.396Z" fill="#DBDBDB"/>
<path d="M617.485 446.029L596.514 441.057L591.541 462.028L612.513 467.001L617.485 446.029Z" fill="#8A4FFF"/>
<path d="M641.247 451.668L620.275 446.696L615.303 467.667L636.275 472.64L641.247 451.668Z" fill="#8A4FFF"/>
<path d="M564.253 458.815L543.281 453.843L538.309 474.814L559.281 479.787L564.253 458.815Z" fill="#455A64"/>
<path d="M588.019 464.449L567.047 459.477L562.074 480.448L583.046 485.421L588.019 464.449Z" fill="#455A64"/>
<path d="M611.782 470.085L590.811 465.112L585.838 486.084L606.81 491.056L611.782 470.085Z" fill="#455A64"/>
<path d="M635.517 475.865L614.545 470.893L609.573 491.865L630.544 496.837L635.517 475.865Z" fill="#DBDBDB"/>
<path d="M558.589 482.818L537.617 477.848L532.647 498.82L553.619 503.79L558.589 482.818Z" fill="#455A64"/>
<path d="M582.319 488.5L561.348 483.528L556.375 504.5L577.347 509.472L582.319 488.5Z" fill="#455A64"/>
<path d="M606.085 494.134L585.113 489.161L580.141 510.133L601.113 515.105L606.085 494.134Z" fill="#455A64"/>
<path d="M629.849 499.77L608.877 494.797L603.905 515.769L624.876 520.742L629.849 499.77Z" fill="#DBDBDB"/>
<path d="M552.841 506.927L531.869 501.954L526.897 522.926L547.868 527.898L552.841 506.927Z" fill="#455A64"/>
<path d="M576.616 512.553L555.645 507.581L550.672 528.553L571.644 533.525L576.616 512.553Z" fill="#455A64"/>
<path d="M600.378 518.192L579.406 513.219L574.434 534.191L595.406 539.163L600.378 518.192Z" fill="#455A64"/>
<path d="M624.142 523.825L603.17 518.853L598.198 539.825L619.169 544.797L624.142 523.825Z" fill="#DBDBDB"/>
<path d="M547.144 530.977L526.172 526.004L521.199 546.976L542.171 551.948L547.144 530.977Z" fill="#455A64"/>
<path d="M570.909 536.611L549.938 531.639L544.965 552.61L565.937 557.583L570.909 536.611Z" fill="#455A64"/>
<path d="M594.673 542.245L573.701 537.272L568.729 558.244L589.7 563.217L594.673 542.245Z" fill="#DBDBDB"/>
<path d="M618.438 547.88L597.467 542.907L592.494 563.879L613.466 568.851L618.438 547.88Z" fill="#DBDBDB"/>
<path d="M554.388 439.975L554.393 439.957C554.596 439.101 555.348 438.532 556.214 438.738C557.077 438.942 557.477 439.785 557.278 440.623L557.273 440.64C557.072 441.488 556.326 442.067 555.453 441.859C554.598 441.658 554.189 440.814 554.388 439.975ZM556.492 440.475L556.497 440.457C556.612 439.968 556.427 439.5 556.035 439.407C555.625 439.31 555.286 439.655 555.173 440.126L555.168 440.143C555.051 440.64 555.238 441.1 555.63 441.193C556.04 441.29 556.381 440.946 556.492 440.475ZM554.425 444.29L559.73 439.766C559.816 439.675 559.943 439.65 560.065 439.679C560.258 439.724 560.378 439.91 560.333 440.102C560.312 440.188 560.259 440.259 560.201 440.311L554.895 444.836C554.8 444.924 554.675 444.95 554.553 444.921C554.361 444.876 554.247 444.691 554.294 444.499C554.313 444.413 554.368 444.342 554.425 444.29ZM557.341 443.977L557.346 443.959C557.548 443.104 558.301 442.535 559.166 442.74C560.021 442.943 560.43 443.787 560.232 444.625L560.227 444.643C560.026 445.49 559.272 446.067 558.407 445.861C557.55 445.659 557.141 444.815 557.341 443.977ZM559.444 444.475L559.449 444.458C559.565 443.969 559.381 443.501 558.987 443.408C558.577 443.311 558.238 443.654 558.125 444.126L558.121 444.144C558.003 444.641 558.188 445.101 558.582 445.194C558.992 445.291 559.333 444.947 559.444 444.475Z" fill="#37474F"/>
<path d="M599.376 452.179C599.794 450.452 601.577 449.391 603.326 449.796C604.095 449.978 604.733 450.398 605.182 450.956C605.349 451.179 605.312 451.494 605.103 451.674C604.877 451.851 604.545 451.809 604.381 451.605C604.073 451.2 603.63 450.92 603.09 450.792C602.487 450.648 601.871 450.761 601.369 451.047C600.882 451.356 600.512 451.822 600.373 452.416C600.231 453.009 600.348 453.609 600.649 454.086C600.969 454.567 601.469 454.945 602.072 455.088C602.614 455.217 603.124 455.162 603.592 454.942C603.828 454.84 604.143 454.953 604.267 455.204C604.372 455.46 604.262 455.765 604.015 455.882C603.363 456.18 602.604 456.267 601.836 456.085C600.088 455.669 598.972 453.919 599.376 452.179Z" fill="#37474F"/>
<path d="M605.746 456.503L606.966 451.351C607.03 451.081 607.289 450.92 607.559 450.984L607.567 450.986C607.567 450.986 607.567 450.986 607.585 450.991L610.415 451.661C610.668 451.721 610.846 451.984 610.782 452.255C610.717 452.525 610.439 452.69 610.185 452.629L607.818 452.068L607.439 453.666L609.473 454.149C609.735 454.212 609.899 454.49 609.839 454.744C609.775 455.014 609.505 455.181 609.243 455.118L607.209 454.636L606.828 456.242L609.193 456.804C609.446 456.863 609.621 457.135 609.558 457.407C609.495 457.669 609.217 457.833 608.965 457.773L606.135 457.103C606.117 457.098 606.119 457.09 606.119 457.09L606.107 457.096C605.842 457.032 605.684 456.763 605.746 456.503Z" fill="#37474F"/>
<path d="M625.729 458.426C626.147 456.699 627.93 455.638 629.678 456.043C630.446 456.225 631.085 456.645 631.533 457.203C631.702 457.426 631.664 457.741 631.455 457.921C631.228 458.098 630.897 458.056 630.733 457.852C630.422 457.447 629.983 457.167 629.441 457.039C628.838 456.895 628.223 457.008 627.721 457.294C627.232 457.603 626.864 458.068 626.722 458.663C626.581 459.258 626.698 459.856 627 460.333C627.319 460.814 627.821 461.192 628.424 461.335C628.965 461.464 629.475 461.409 629.943 461.189C630.179 461.088 630.493 461.2 630.618 461.451C630.723 461.707 630.614 462.012 630.366 462.13C629.715 462.427 628.956 462.515 628.187 462.332C626.442 461.916 625.327 460.166 625.729 458.426Z" fill="#37474F"/>
<path d="M553.807 464.855L550.401 469.499C550.289 469.665 550.088 469.729 549.887 469.681C549.835 469.668 549.768 469.644 549.711 469.602C549.494 469.432 549.446 469.125 549.599 468.911L552.546 464.879L550.293 464.346C550.031 464.283 549.867 464.005 549.93 463.743C549.994 463.472 550.261 463.313 550.523 463.376L553.519 464.087C553.545 464.093 553.57 464.1 553.604 464.116C553.664 464.14 553.717 464.188 553.771 464.23C553.778 464.241 553.784 464.251 553.791 464.262C553.805 464.275 553.813 464.286 553.816 464.305C553.821 464.326 553.837 464.337 553.844 464.349C553.849 464.368 553.855 464.379 553.861 464.391C553.868 464.402 553.871 464.429 553.87 464.439C553.874 464.458 553.881 464.469 553.894 464.49C553.892 464.498 553.894 464.527 553.892 464.535C553.897 464.555 553.894 464.564 553.898 464.584C553.892 464.646 553.876 464.717 553.852 464.776C553.836 464.807 553.821 464.831 553.807 464.855Z" fill="white"/>
<path d="M576.761 473.857C576.489 475 575.335 475.714 574.19 475.442C573.037 475.169 572.315 474.011 572.587 472.868C572.759 472.144 573.276 471.593 573.932 471.352C573.805 471.072 573.773 470.742 573.849 470.419C574.035 469.633 574.835 469.139 575.639 469.33C576.423 469.517 576.917 470.316 576.73 471.102C576.653 471.425 576.476 471.705 576.237 471.898C576.708 472.405 576.931 473.132 576.761 473.857ZM575.809 473.63C575.955 473.011 575.571 472.374 574.952 472.228C574.323 472.078 573.694 472.474 573.538 473.091C573.4 473.714 573.786 474.341 574.415 474.489C575.036 474.637 575.661 474.251 575.809 473.63ZM574.801 470.644C574.736 470.914 574.9 471.194 575.18 471.26C575.442 471.323 575.714 471.147 575.778 470.876C575.841 470.613 575.674 470.343 575.412 470.282C575.134 470.216 574.863 470.382 574.801 470.644Z" fill="white"/>
<path d="M596.852 476.59C597.128 475.42 598.304 474.703 599.474 474.981C600.574 475.241 601.277 476.285 601.129 477.375C601.127 477.383 601.127 477.383 601.134 477.394C601.103 477.562 601.073 477.73 601.033 477.896C600.894 478.48 600.658 479.089 600.302 479.613C599.947 480.138 599.458 480.604 598.822 480.839C598.397 480.996 597.916 481.04 597.415 480.938C597.143 480.884 596.972 480.63 597.019 480.356C597.072 480.093 597.332 479.924 597.611 479.961C597.944 480.032 598.23 479.996 598.49 479.911C598.744 479.814 598.974 479.657 599.185 479.43C599.246 479.371 599.299 479.302 599.352 479.229C599.072 479.284 598.77 479.276 598.473 479.205C597.302 478.928 596.575 477.761 596.852 476.59ZM597.821 476.82C597.672 477.449 598.063 478.095 598.701 478.247C599.338 478.398 599.968 477.994 600.118 477.365C600.269 476.729 599.883 476.102 599.246 475.95C598.606 475.798 597.971 476.184 597.821 476.82Z" fill="white"/>
<path d="M620.703 483.421C620.772 483.133 621.063 482.953 621.343 483.019L624.064 483.664C624.344 483.73 624.522 484.022 624.455 484.31C624.389 484.59 624.098 484.77 623.818 484.704L621.097 484.059C620.817 483.992 620.637 483.701 620.703 483.421Z" fill="#37474F"/>
<path d="M547.657 492.683C547.593 492.953 547.326 493.112 547.054 493.048L546.968 493.027L546.81 493.69C546.746 493.96 546.487 494.121 546.217 494.056C545.946 493.992 545.786 493.733 545.85 493.463L546.008 492.799L543.274 492.151L543.266 492.149L543.258 492.148C543.153 492.122 543.055 492.072 542.986 491.972C542.808 491.755 542.851 491.451 543.067 491.281L547.249 488.031C547.257 488.033 547.26 488.025 547.27 488.018C547.281 488.012 547.291 488.004 547.305 487.989C547.333 487.988 547.344 487.98 547.355 487.973C547.366 487.967 547.386 487.962 547.397 487.956C547.416 487.951 547.427 487.944 547.453 487.951C547.466 487.936 547.477 487.928 547.495 487.933C547.506 487.927 547.524 487.931 547.551 487.928C547.559 487.93 547.577 487.935 547.588 487.928C547.606 487.933 547.632 487.939 547.649 487.943C547.649 487.943 547.659 487.944 547.667 487.948C547.675 487.949 547.675 487.949 547.685 487.952C547.702 487.957 547.728 487.962 547.738 487.965C547.752 487.978 547.762 487.98 547.78 487.985C547.786 487.996 547.813 488.002 547.828 488.015C547.836 488.017 547.852 488.03 547.86 488.033C547.873 488.055 547.889 488.067 547.895 488.078C547.911 488.091 547.918 488.102 547.932 488.115C547.932 488.115 547.94 488.116 547.939 488.126C547.947 488.128 547.963 488.14 547.961 488.15C547.974 488.171 547.981 488.182 547.987 488.194C547.993 488.205 547.998 488.224 548.005 488.234C548.011 488.245 548.018 488.256 548.029 488.285C548.027 488.293 548.032 488.313 548.039 488.324C548.043 488.343 548.042 488.353 548.043 488.38C548.042 488.388 548.047 488.409 548.043 488.417C548.048 488.436 548.047 488.444 548.04 488.472C548.035 488.489 548.042 488.501 548.039 488.518C548.037 488.526 548.034 488.536 548.032 488.544L547.196 492.072L547.283 492.093C547.553 492.151 547.72 492.421 547.657 492.683ZM546.746 489.683L544.498 491.427L546.236 491.839L546.746 489.683Z" fill="white"/>
<path d="M570.724 495.957C571.052 496.478 571.129 497.086 570.997 497.645C570.867 498.195 570.516 498.702 569.997 499.022C569.476 499.35 568.868 499.427 568.318 499.297C568.3 499.292 568.3 499.292 568.3 499.292C567.759 499.163 567.241 498.821 566.932 498.295C566.774 498.064 566.85 497.75 567.098 497.596C567.328 497.448 567.649 497.525 567.797 497.761C567.969 498.051 568.238 498.236 568.553 498.31C568.85 498.38 569.182 498.339 569.465 498.157C569.746 497.985 569.941 497.707 570.011 497.411C570.085 497.096 570.043 496.772 569.86 496.489C569.69 496.2 569.416 496.025 569.111 495.952C568.813 495.881 568.474 495.912 568.191 496.094C567.953 496.24 567.64 496.166 567.492 495.928C567.466 495.885 567.45 495.835 567.422 495.791C567.427 495.774 567.429 495.766 567.419 495.764C567.424 495.746 567.419 495.727 567.413 495.716C567.419 495.689 567.414 495.669 567.418 495.653C567.419 495.643 567.411 495.642 567.413 495.634C567.416 495.579 567.429 495.528 567.448 495.486L568.246 493.286C568.307 493.143 568.415 493.04 568.546 492.989C568.566 492.984 568.575 492.987 568.585 492.979C568.596 492.973 568.604 492.974 568.616 492.968C568.694 492.95 568.768 492.948 568.855 492.969L571.431 493.58C571.711 493.646 571.877 493.916 571.811 494.196C571.75 494.458 571.476 494.634 571.196 494.568L569.048 494.058L568.738 494.897C568.942 494.891 569.149 494.912 569.341 494.957C569.897 495.087 570.407 495.43 570.724 495.957Z" fill="white"/>
<path d="M594.975 503.383C594.698 504.553 593.521 505.271 592.352 504.992C591.252 504.732 590.549 503.69 590.697 502.598C590.699 502.59 590.699 502.59 590.693 502.579C590.723 502.412 590.754 502.243 590.794 502.077C590.932 501.492 591.168 500.884 591.524 500.36C591.879 499.835 592.368 499.369 593.005 499.133C593.429 498.975 593.91 498.932 594.412 499.033C594.685 499.088 594.856 499.342 594.809 499.617C594.756 499.881 594.494 500.049 594.217 500.011C593.883 499.942 593.598 499.974 593.338 500.061C593.084 500.157 592.854 500.315 592.643 500.541C592.582 500.601 592.529 500.672 592.476 500.741C592.756 500.688 593.06 500.694 593.355 500.765C594.523 501.045 595.251 502.214 594.975 503.383ZM594.005 503.153C594.155 502.524 593.764 501.878 593.125 501.727C592.487 501.575 591.857 501.979 591.709 502.608C591.558 503.244 591.944 503.872 592.582 504.023C593.219 504.175 593.854 503.791 594.005 503.153Z" fill="white"/>
<path d="M615.157 507.633C614.904 507.573 614.753 507.316 614.811 507.072C614.869 506.827 615.12 506.665 615.372 506.726L618.9 507.562C619.154 507.623 619.306 507.879 619.248 508.123C619.19 508.368 618.939 508.53 618.685 508.469L615.157 507.633ZM618.067 505.898L618.058 505.941C617.98 506.265 617.649 506.462 617.316 506.383C616.984 506.305 616.776 505.978 616.852 505.655L616.863 505.612C616.937 505.296 617.27 505.099 617.603 505.177C617.934 505.258 618.141 505.583 618.067 505.898ZM617.204 509.538L617.194 509.582C617.117 509.905 616.787 510.095 616.456 510.016C616.123 509.937 615.914 509.62 615.99 509.297L616.001 509.254C616.078 508.931 616.409 508.733 616.742 508.812C617.072 508.889 617.281 509.215 617.204 509.538Z" fill="#37474F"/>
<path d="M541.485 512.394L540.264 517.546C540.2 517.816 539.923 517.972 539.661 517.911C539.391 517.847 539.23 517.588 539.295 517.318L540.313 513.023L539.915 513.14C539.824 513.174 539.734 513.171 539.655 513.153C539.488 513.113 539.353 512.989 539.303 512.811C539.206 512.557 539.357 512.27 539.615 512.193L540.84 511.81C540.851 511.804 540.869 511.807 540.879 511.801C540.896 511.806 540.909 511.789 540.928 511.785C540.946 511.789 540.965 511.785 540.983 511.79C540.994 511.783 541.012 511.786 541.02 511.79C541.039 511.785 541.065 511.791 541.083 511.794C541.091 511.796 541.1 511.799 541.109 511.801L541.117 511.802C541.144 511.809 541.16 511.812 541.178 511.817C541.184 511.828 541.202 511.833 541.211 511.835C541.237 511.841 541.244 511.852 541.26 511.863C541.268 511.865 541.285 511.87 541.293 511.881C541.316 511.905 541.322 511.915 541.34 511.92C541.347 511.931 541.353 511.942 541.369 511.954C541.375 511.965 541.392 511.978 541.398 511.989C541.414 512.002 541.419 512.021 541.425 512.032C541.432 512.044 541.438 512.053 541.443 512.074C541.449 512.085 541.464 512.106 541.47 512.118L541.475 512.137C541.474 512.145 541.48 512.156 541.477 512.164C541.482 512.183 541.488 512.195 541.483 512.212C541.488 512.232 541.485 512.249 541.491 512.261C541.486 512.278 541.491 512.298 541.49 512.307C541.483 512.333 541.478 512.351 541.493 512.372C541.49 512.376 541.488 512.386 541.485 512.394Z" fill="white"/>
<path d="M565.048 523.42C564.984 523.692 564.725 523.851 564.453 523.787L561.362 523.054C561.362 523.054 561.363 523.054 561.353 523.052L561.345 523.05C561.213 523.02 561.086 522.935 561.025 522.809C560.89 522.565 560.977 522.272 561.213 522.134L564.352 520.407C564.659 520.24 564.842 519.969 564.918 519.656C564.984 519.376 564.95 519.091 564.81 518.828C564.643 518.521 564.365 518.334 564.059 518.262C563.789 518.197 563.495 518.23 563.231 518.369L562.903 518.55C562.659 518.686 562.366 518.598 562.231 518.353C562.104 518.111 562.183 517.816 562.427 517.681L562.755 517.501C563.234 517.228 563.792 517.175 564.289 517.294C564.857 517.429 565.376 517.8 565.68 518.352C565.953 518.831 566.006 519.387 565.887 519.886C565.752 520.453 565.381 520.974 564.829 521.277L562.826 522.378L564.685 522.819C564.953 522.883 565.111 523.15 565.048 523.42Z" fill="white"/>
<path d="M588.855 525.652C589.183 526.173 589.262 526.781 589.13 527.333C589 527.882 588.657 528.391 588.128 528.719C587.609 529.039 586.999 529.124 586.44 528.992C585.89 528.862 585.383 528.511 585.063 527.993C584.917 527.755 584.991 527.44 585.229 527.294C585.467 527.148 585.781 527.222 585.927 527.46C586.101 527.739 586.371 527.924 586.675 527.997C586.98 528.069 587.305 528.026 587.593 527.855C587.885 527.675 588.069 527.405 588.141 527.099C588.213 526.794 588.17 526.471 587.988 526.186C587.818 525.897 587.546 525.721 587.242 525.641C587.101 525.617 586.985 525.524 586.922 525.4C586.913 525.398 586.913 525.398 586.916 525.388C586.761 525.149 586.834 524.843 587.064 524.686L588.17 523.988L586.755 523.653C586.483 523.589 586.318 523.319 586.384 523.039C586.448 522.769 586.718 522.602 586.988 522.666L589.564 523.277C589.844 523.343 590.01 523.613 589.947 523.883C589.926 523.97 589.881 524.043 589.829 524.105C589.792 524.142 589.756 524.179 589.714 524.207L588.344 525.081C588.548 525.237 588.723 525.427 588.855 525.652Z" fill="white"/>
<path d="M612.856 531.462L611.476 532.647L612.174 534.334C612.277 534.56 612.152 534.855 611.938 534.942C611.835 534.982 611.732 534.995 611.636 534.972C611.496 534.938 611.383 534.829 611.296 534.689L610.706 533.287L609.548 534.276C609.426 534.366 609.285 534.416 609.145 534.384C609.048 534.361 608.952 534.302 608.887 534.221C608.717 534.043 608.746 533.727 608.941 533.57L610.33 532.377L609.621 530.696C609.515 530.478 609.629 530.192 609.864 530.1C610.108 530.002 610.368 530.108 610.478 530.347L611.074 531.724L612.224 530.761C612.438 530.6 612.727 530.622 612.911 530.822C613.065 531.005 613.047 531.314 612.856 531.462Z" fill="#37474F"/>
<path d="M534.18 540.708C534.538 540.793 534.763 541.16 534.678 541.518C534.593 541.877 534.228 542.094 533.871 542.009C533.512 541.923 533.294 541.568 533.377 541.21C533.462 540.851 533.821 540.623 534.18 540.708Z" fill="white"/>
<path d="M555.487 543.84C555.686 543.039 556.058 542.362 556.575 541.895C557.074 541.422 557.74 541.147 558.429 541.311C559.102 541.47 559.581 542.017 559.816 542.663C560.058 543.311 560.097 544.085 559.906 544.889C559.717 545.683 559.335 546.366 558.827 546.838C558.33 547.301 557.654 547.584 556.982 547.423C556.292 547.259 555.825 546.706 555.588 546.069C555.334 545.418 555.307 544.638 555.487 543.84ZM558.936 544.657C559.086 544.028 559.041 543.437 558.885 543.004C558.719 542.578 558.471 542.335 558.2 542.279C557.931 542.205 557.592 542.311 557.244 542.615C556.912 542.932 556.606 543.441 556.456 544.07C556.31 544.689 556.352 545.291 556.51 545.715C556.683 546.153 556.94 546.389 557.211 546.453C557.481 546.518 557.809 546.419 558.151 546.104C558.481 545.796 558.788 545.278 558.936 544.657Z" fill="white"/>
<path d="M580.085 548.987C580.15 548.714 580.436 548.539 580.724 548.606L583.404 549.241C583.692 549.311 583.853 549.592 583.788 549.865C583.719 550.155 583.452 550.319 583.165 550.251L580.484 549.616C580.196 549.545 580.016 549.275 580.085 548.987ZM579.702 550.602C579.772 550.314 580.056 550.137 580.344 550.206L583.025 550.841C583.312 550.911 583.473 551.192 583.406 551.48C583.337 551.769 583.066 551.948 582.779 551.88L580.098 551.245C579.81 551.176 579.633 550.89 579.702 550.602Z" fill="#37474F"/>
<path d="M605.013 556.069L603.773 555.775C603.511 555.712 603.342 555.451 603.406 555.181C603.469 554.919 603.738 554.752 604 554.815L605.239 555.109L605.527 553.895C605.593 553.615 605.863 553.449 606.143 553.515C606.413 553.58 606.589 553.851 606.523 554.131L606.235 555.345L607.475 555.64C607.737 555.702 607.904 555.972 607.841 556.235C607.777 556.506 607.508 556.662 607.248 556.601L606.008 556.307L605.72 557.521C605.654 557.801 605.374 557.965 605.104 557.9C604.825 557.834 604.659 557.564 604.725 557.285L605.013 556.069Z" fill="#37474F"/>
<path d="M584.493 446.136C584.445 446.341 584.239 446.471 584.03 446.421L582.929 446.16C582.17 447.323 580.226 450.367 579.743 451.248C579.663 451.366 579.579 451.451 579.484 451.497C579.39 451.544 579.296 451.559 579.206 451.538C579.071 451.505 578.968 451.428 578.894 451.301C578.894 451.301 577.997 449.888 577.729 449.399C577.341 448.703 577.635 448.482 577.72 448.455C577.806 448.428 577.881 448.42 577.947 448.434C578.047 448.458 578.147 448.529 578.246 448.637C578.356 448.82 578.449 448.979 578.531 449.121C578.613 449.261 578.693 449.391 578.769 449.515C578.848 449.645 578.925 449.767 578.997 449.885C579.073 450.008 579.156 450.143 579.251 450.298C579.734 449.481 581.79 446.294 582.324 445.504L582.326 445.5C582.368 445.456 582.413 445.426 582.459 445.4C582.543 445.336 582.659 445.31 582.77 445.336L584.206 445.676C584.416 445.723 584.542 445.932 584.493 446.136Z" fill="#37474F"/>
<path d="M649.38 417.378L557.113 395.501L551.878 417.581L644.145 439.457L649.38 417.378Z" fill="#8A4FFF"/>
<path opacity="0.3" d="M649.38 417.378L557.113 395.501L551.878 417.581L644.145 439.457L649.38 417.378Z" fill="black"/>
<path d="M612.08 426.369L614.402 416.572L613.008 416.24L613.342 414.828L616.462 414.095L617.874 414.43L614.886 427.033L612.08 426.369Z" fill="#263238"/>
<path d="M627.588 423.39C628.517 423.61 629.143 424.078 629.464 424.793C629.786 425.507 629.868 426.196 629.712 426.856L629.548 427.546C629.399 428.173 628.982 428.733 628.297 429.228C627.612 429.724 626.877 429.876 626.092 429.691L623.286 429.026C622.502 428.839 621.912 428.373 621.516 427.62C621.119 426.869 620.997 426.181 621.145 425.554L621.309 424.864C621.465 424.203 621.851 423.626 622.465 423.134C623.079 422.64 623.851 422.504 624.78 422.724C623.877 422.391 623.245 421.936 622.884 421.36C622.524 420.783 622.442 420.082 622.638 419.252L622.802 418.562C622.983 417.8 623.417 417.208 624.102 416.786C624.788 416.363 625.512 416.242 626.274 416.422L629.08 417.088C629.842 417.268 630.431 417.702 630.849 418.386C631.265 419.071 631.384 419.794 631.204 420.555L631.04 421.245C630.844 422.073 630.458 422.664 629.882 423.02C629.31 423.375 628.545 423.497 627.588 423.39ZM628.086 421.29L628.418 419.895C628.511 419.503 628.453 419.138 628.242 418.799C628.032 418.459 627.733 418.244 627.34 418.151C626.959 418.061 626.599 418.12 626.26 418.329C625.92 418.538 625.705 418.839 625.612 419.231L625.28 420.625C625.19 421.007 625.25 421.367 625.459 421.706C625.668 422.045 625.964 422.261 626.345 422.351C626.737 422.444 627.102 422.386 627.442 422.176C627.781 421.965 627.996 421.671 628.086 421.29ZM626.76 426.885L627.091 425.491C627.311 424.562 626.951 423.985 626.01 423.761C625.081 423.541 624.505 423.896 624.285 424.826L623.954 426.22C623.861 426.612 623.918 426.977 624.129 427.316C624.338 427.656 624.634 427.871 625.015 427.961C625.407 428.054 625.772 427.997 626.112 427.786C626.451 427.577 626.667 427.278 626.76 426.885Z" fill="#263238"/>
<path d="M635.891 432.013L636.887 427.811L631.291 426.485L631.622 425.091L638.879 419.41L641.685 420.075L640.024 427.083L641.418 427.414L641.087 428.808L639.693 428.477L638.697 432.679L635.891 432.013ZM637.218 426.417L638.464 421.158L633.016 425.42L637.218 426.417Z" fill="#263238"/>
<path d="M448.932 493.103C448.932 493.103 463.484 459.129 490.65 448.113C520.3 436.09 535.582 398.03 549.292 403.843C564.687 410.37 547.557 458.047 531.803 469.057C531.803 469.057 543.173 518.543 518.095 534.528C493.018 550.515 448.932 493.103 448.932 493.103Z" fill="#EB9481"/>
<path d="M529.63 471.591C534.735 490.699 533.862 516.757 520.434 531.2C520.041 531.623 520.586 532.239 521.04 531.867C537.543 518.333 538.844 488.191 533.243 471.394C532.166 468.165 528.308 466.647 529.63 471.591Z" fill="#263238"/>
<path d="M451.028 477.37L532.379 606.882C532.379 606.882 400.085 694.764 370.715 685.143C323.916 669.816 281.5 544.287 274.192 485.896C266.883 427.505 275.882 392.444 321.219 445.209C365.746 497.031 390.928 536.114 392.66 535.974C394.367 535.835 451.028 477.37 451.028 477.37Z" fill="#8A4FFF"/>
<path d="M532.377 606.875C532.377 606.875 500.702 627.911 464.897 648.286C427.548 669.547 385.703 690.06 370.707 685.149C323.916 669.823 281.498 544.29 274.192 485.889C269.626 449.477 271.415 422.124 284.414 419.52C292.241 417.941 304.147 425.351 321.208 445.206C365.743 497.031 390.926 536.116 392.661 535.976C394.362 535.838 451.028 477.366 451.028 477.366L532.377 606.875Z" fill="#8A4FFF"/>
<path d="M393.744 534.621C386.092 541.11 379.861 548.449 373.858 555.828C370.88 559.489 368.222 563.311 365.593 567.138C363.01 570.898 360.542 574.863 358.857 578.988C358.794 579.142 359.158 579.266 359.27 579.152C362.655 575.738 365.565 571.982 368.412 568.291C371.277 564.577 374.276 560.927 377.127 557.204C382.829 549.761 389.034 542.547 394.358 534.925C394.527 534.684 393.972 534.425 393.744 534.621Z" fill="#263238"/>
<path opacity="0.1" d="M464.897 648.286C427.548 669.547 385.703 690.061 370.707 685.15C323.916 669.824 281.498 544.291 274.192 485.89C269.626 449.478 271.415 422.124 284.414 419.521L464.897 648.286Z" fill="black"/>
<path d="M499.185 620.786C489.332 607.212 480.242 593.201 471.194 579.168C462.141 565.127 453.053 551.096 444.363 536.862C439.456 528.82 434.493 520.799 429.877 512.615C429.756 512.401 430.1 512.177 430.253 512.388C440.094 525.935 449.255 539.931 458.385 553.89C467.536 567.882 476.544 581.966 485.407 596.113C490.415 604.107 495.272 612.177 499.892 620.36C500.124 620.764 499.474 621.183 499.185 620.786Z" fill="#263238"/>
<path d="M381.174 753.375L365.379 654.049C365.379 654.049 388.25 614.833 381.972 587.888C376.547 564.595 324.327 464.363 295.145 431.002C270.42 402.737 225.206 404.956 204.457 430.997C161.76 484.585 127.784 655.014 127.784 655.014C139.201 632.922 103.819 699.266 85.3828 753.462L381.174 753.375Z" fill="#8A4FFF"/>
<path d="M313.937 629.006C298.121 630.952 282.261 633.443 266.884 637.709C259.235 639.833 251.735 642.295 244.248 644.927C240.516 646.239 236.765 647.423 232.986 648.588C229.107 649.786 224.943 650.912 220.87 651.124C220.503 651.144 220.526 651.69 220.891 651.694C224.857 651.722 228.654 651.742 232.6 651.245C236.35 650.771 240.072 649.893 243.724 648.916C251.504 646.837 259.182 644.398 266.939 642.238C282.588 637.882 298.232 633.533 314.163 630.314C314.896 630.166 314.685 628.915 313.937 629.006Z" fill="#263238"/>
<path d="M353.515 642.311C340.456 641.242 327.144 640.78 314.042 641.2C307.45 641.41 300.924 642.001 294.374 642.766C291.248 643.131 288.127 643.554 285.016 644.012C281.589 644.517 278.227 645.485 274.797 645.94C274.44 645.987 274.449 646.548 274.818 646.509C278.066 646.176 281.385 646.382 284.649 646.239C287.928 646.098 291.203 645.927 294.484 645.781C301.049 645.491 307.611 645.273 314.177 644.921C327.316 644.213 340.402 643.642 353.557 643.39C354.267 643.377 354.192 642.365 353.515 642.311Z" fill="#263238"/>
<path d="M238.178 406.728C246.652 431.491 247.668 460.888 256.514 474.092C278.05 506.234 324.177 565.053 324.177 565.053C324.177 565.053 330.006 534.712 329.737 518.273C329.361 493.899 323.381 468.451 310.924 431.28C307.571 426.935 305.202 424.031 304.204 423.046C283.71 403.364 255.811 403.449 238.178 406.728Z" fill="#EB9481"/>
<path d="M234.832 420.013C235.03 425.944 260.864 462.062 287.02 465.994C295.541 467.259 298.445 427.124 298.445 427.124L299.89 423.868L301.381 420.5L301.14 411.272L308.204 405.086L320.074 378.268L271.146 331.158L263.987 324.789C263.987 324.789 259.289 337.629 253.598 353.675C253.329 354.418 253.061 355.161 252.786 355.96C252.44 356.859 252.104 357.705 251.821 358.559C250.94 360.943 250.051 363.386 249.216 365.835C248.573 367.695 247.938 369.503 247.333 371.482C246.677 373.452 246.08 375.377 245.423 377.348C239.365 396.906 234.784 417.502 234.832 420.013Z" fill="#EB9481"/>
<path d="M253.6 353.674C259.715 394.37 288.48 412.517 301.383 420.5L320.074 378.268L271.146 331.158L263.987 324.789C263.987 324.789 259.289 337.627 253.6 353.674Z" fill="#263238"/>
<path d="M398.224 308.744C398.888 396.244 346.523 406.546 327.644 406.676C310.506 406.795 252.134 405.023 242.425 318.063C232.719 231.104 273.215 203.116 312.4 200.772C351.585 198.427 397.56 221.24 398.224 308.744Z" fill="#EB9481"/>
<path d="M246.678 329.042C266.199 320.946 267.99 300.992 267.99 300.992C292.189 291.973 305.892 274.122 307.31 272.312C306.643 274.066 301.855 286.723 299.208 293.098C354.509 285.465 373.467 244.329 373.467 244.329C390.396 262.915 393.406 274.433 395.71 280.217C395.71 280.217 397.712 246.608 381.494 223.268C361.65 194.69 332.526 198.546 332.526 198.546C332.526 198.546 290.547 183.84 255.761 218.225C218.311 255.32 246.678 329.042 246.678 329.042Z" fill="#263238"/>
<path d="M341.304 286.007C332.341 290.505 322.471 293.361 312.696 294.994C312.614 295.009 312.601 294.887 312.678 294.869C328.331 291.233 342.579 283.798 354.071 272.458C358.929 267.666 363.165 262.334 366.688 256.491C370.372 250.382 374.027 243.07 374.966 235.939C375.038 235.397 375.881 235.509 375.81 236.053C374.815 243.591 373.819 250.536 370.431 257.446C367.215 264.005 362.753 270.045 357.389 275.012C352.599 279.451 347.144 283.076 341.304 286.007Z" fill="#263238"/>
<path d="M386.049 293.905C383.96 293.642 382.075 293.048 380.038 292.574C377.737 292.037 375.847 291.846 374.166 290.045C373.262 289.08 373.355 287.139 374.211 286.174C376.204 283.926 379.184 283.883 381.98 284.417C385.015 284.994 387.205 286.218 389.189 288.578C391.114 290.865 388.805 294.254 386.049 293.905Z" fill="#263238"/>
<path d="M326.652 304.145C328.746 303.922 330.64 303.369 332.689 302.936C335.001 302.447 336.89 302.294 338.611 300.53C339.534 299.583 339.481 297.639 338.646 296.66C336.7 294.37 333.719 294.266 330.913 294.742C327.866 295.258 325.652 296.433 323.619 298.752C321.653 300.998 323.89 304.436 326.652 304.145Z" fill="#263238"/>
<path d="M339.509 320.391C339.459 320.16 339.038 320.684 339.049 320.935C339.322 327 338.61 333.995 333.146 336.08C332.977 336.145 333 336.449 333.202 336.418C339.89 335.389 340.739 326.096 339.509 320.391Z" fill="#263238"/>
<path d="M334.007 314.123C324.235 313.509 323.725 333.097 332.778 333.667C341.687 334.226 342.197 314.638 334.007 314.123Z" fill="#263238"/>
<path d="M330.133 315.059C328.394 316.122 326.667 318.035 324.6 318.185C322.207 318.358 320.459 316.26 318.951 314.247C318.793 314.038 318.619 314.205 318.611 314.464C318.457 318.217 319.801 322.103 323.81 322.768C327.467 323.375 330.189 320.119 331.223 316.371C331.414 315.676 330.834 314.629 330.133 315.059Z" fill="#263238"/>
<path d="M373.149 320.26C373.203 320.03 373.613 320.563 373.599 320.812C373.2 326.871 373.768 333.877 379.185 336.078C379.355 336.146 379.326 336.45 379.124 336.414C372.459 335.247 371.801 325.937 373.149 320.26Z" fill="#263238"/>
<path d="M378.78 314.108C388.563 313.697 388.666 333.29 379.603 333.671C370.685 334.046 370.58 314.453 378.78 314.108Z" fill="#263238"/>
<path d="M382.874 315.376C384.427 316.406 385.969 318.285 387.818 318.396C389.963 318.526 391.536 316.398 392.896 314.358C393.038 314.147 393.192 314.31 393.202 314.569C393.324 318.314 392.105 322.221 388.511 322.959C385.234 323.633 382.806 320.431 381.894 316.706C381.722 316.017 382.248 314.961 382.874 315.376Z" fill="#263238"/>
<path d="M335.309 367.578C336.586 369.16 337.795 371.273 339.961 371.717C342.039 372.14 344.608 371.484 346.62 370.967C346.818 370.916 346.988 371.141 346.843 371.307C345.006 373.436 341.542 374.494 338.807 373.674C336.133 372.875 335.062 370.356 334.695 367.782C334.645 367.422 335.123 367.348 335.309 367.578Z" fill="#263238"/>
<path d="M362.143 346.022C362.143 346.022 362.844 355.148 362.587 359.417C362.561 359.816 361.516 359.943 360.063 359.938C359.992 359.956 359.952 359.981 359.895 359.933C352.288 360.652 344.856 357.589 340.649 351.158C340.382 350.724 340.948 350.317 341.32 350.607C346.695 355.078 352.849 356.521 359.527 357.04C359.9 355.878 357.805 341.454 358.485 341.443C360.831 341.386 365.33 343.252 368.045 344.228C367.136 325.176 363.181 306.43 362.558 287.448C362.547 286.769 363.528 286.627 363.69 287.239C369.225 306.597 370.753 328.493 372.198 348.143C372.401 350.591 363.809 346.854 362.143 346.022Z" fill="#263238"/>
<path d="M320.568 348.026C307.445 346.471 296.496 336.182 294.689 322.49C292.552 306.296 303.983 291.385 320.172 289.244C336.366 287.102 351.276 298.534 353.416 314.726C355.553 330.914 344.123 345.83 327.932 347.972C325.432 348.301 322.965 348.311 320.568 348.026ZM327.07 293.123C324.996 292.877 322.856 292.883 320.693 293.169C306.667 295.022 296.764 307.942 298.612 321.97C300.471 335.994 313.393 345.913 327.411 344.045C341.438 342.189 351.34 329.271 349.492 315.244C347.923 303.385 338.444 294.472 327.07 293.123Z" fill="#8A4FFF"/>
<path d="M388.543 347.737C377.289 346.404 368.445 333.667 368.459 318.212C368.464 310.413 370.696 303.058 374.74 297.511C378.914 291.767 384.529 288.607 390.542 288.614C396.575 288.607 402.159 291.79 406.327 297.541C410.357 303.103 412.571 310.458 412.56 318.254C412.541 334.583 402.637 347.862 390.484 347.853C389.826 347.851 389.184 347.812 388.543 347.737ZM392.037 292.666C391.54 292.606 391.04 292.574 390.537 292.576C385.829 292.569 381.354 295.15 377.935 299.839C374.386 304.721 372.424 311.246 372.415 318.214C372.403 332.364 380.472 343.892 390.484 343.892C400.457 343.903 408.582 332.398 408.603 318.254C408.609 311.285 406.66 304.756 403.118 299.867C400.079 295.67 396.191 293.158 392.037 292.666Z" fill="#8A4FFF"/>
<path d="M352.421 318.154L349.877 315.117C354.371 311.351 364.767 306.287 371.99 314.035L369.094 316.733C362.633 309.785 352.834 317.815 352.421 318.154Z" fill="#8A4FFF"/>
<path d="M220.441 325.64L216.926 323.818C217.78 322.178 225.484 307.76 234.328 306.332C242.594 305.022 295.668 310.05 297.922 310.267L297.544 314.208C282.33 312.751 241.343 309.212 234.959 310.243C229.118 311.184 222.502 321.676 220.441 325.64Z" fill="#8A4FFF"/>
<path d="M256.39 324.671C256.39 324.671 239.498 295.944 226.597 301.762C213.698 307.58 224.896 348.176 238.983 354.717C253.068 361.257 259.389 348.343 259.389 348.343L256.39 324.671Z" fill="#EB9481"/>
<path d="M230.097 313.319C229.864 313.279 229.793 313.602 229.989 313.702C239.84 318.622 244.45 328.473 247.428 338.547C244.699 334.544 240.742 332.158 235.413 335.361C235.133 335.53 235.353 335.966 235.644 335.927C239.883 335.363 242.834 336.321 245.386 339.88C247.193 342.4 248.319 345.493 249.531 348.333C249.935 349.28 251.617 348.923 251.353 347.849C251.334 347.77 251.308 347.688 251.289 347.608C252.573 334.659 243.926 315.72 230.097 313.319Z" fill="#263238"/>
<path d="M276.91 528.487C276.91 528.487 305.023 532.232 313.151 539.578C313.151 539.578 321.27 520.566 335.925 520.962C350.581 521.357 324.173 565.561 324.173 565.561L276.91 528.487Z" fill="white"/>
<path d="M301.812 420.092C303.271 420.031 343.662 448.38 343.749 448.875C343.834 449.37 332.392 455.761 332.392 455.761C332.392 455.761 352.931 457.069 354.146 458.184C355.362 459.297 355.282 488.995 354.642 496.802C353.098 515.607 325.31 569.663 325.31 569.663L322.805 563.567L313.282 459.702L301.812 420.092Z" fill="#8A4FFF"/>
<path opacity="0.4" d="M301.812 420.092C303.271 420.031 343.662 448.38 343.749 448.875C343.834 449.37 332.392 455.761 332.392 455.761C332.392 455.761 352.931 457.069 354.146 458.184C355.362 459.297 355.282 488.995 354.642 496.802C353.098 515.607 325.31 569.663 325.31 569.663L322.805 563.567L313.282 459.702L301.812 420.092Z" fill="black"/>
<path d="M173.866 456.149C100.843 544.511 50.8955 649.117 72.7595 682.123C97.111 718.887 190.061 638.088 189.045 631.471C188.277 626.47 197.227 560.584 220.364 482.415C243.482 404.317 191.925 434.3 173.866 456.149Z" fill="#8A4FFF"/>
<path d="M182.453 648.595C192.635 594.348 205.132 540.544 219.958 487.377C209.796 541.628 197.261 595.425 182.453 648.595Z" fill="#263238"/>
<path d="M213.25 518.697C215.355 511.656 218.643 505.243 222.488 499.006C220.877 506.139 217.468 512.74 213.25 518.697Z" fill="#263238"/>
<path d="M77.9957 685.161C99.8388 708.027 155.68 705.116 280.945 710.259C298.277 710.971 329.873 590.3 311.402 588.589C288.136 586.435 197.382 583.111 190.713 583.706C134.478 588.723 63.178 669.65 77.9957 685.161Z" fill="#EB9481"/>
<path d="M351.467 580.657C389.586 585.264 398.666 592.298 432.902 579.099C455.368 570.438 470.538 581.067 454.044 599.908C427.065 630.726 376.637 635.112 358.716 631.599L351.467 580.657Z" fill="#EB9481"/>
<path d="M244.447 590.219C244.447 590.219 291.825 578.209 332.934 579.095C361.362 579.709 423.059 587.943 464.595 661.955C474.448 679.509 476.036 711.51 449.532 688.683C430.705 672.468 423.665 656.497 410.997 649.059C410.997 649.059 408.187 690.005 390.216 699.186C382.184 703.29 360 713.978 341.542 719.838C341.542 719.838 339.184 716.16 336.861 711.076C336.861 711.076 302.737 722.409 270.634 709.846L244.447 590.219Z" fill="#EB9481"/>
<path d="M359.973 584.015C370.986 594.057 393.97 615.728 406.605 639.996C420.64 666.952 440.412 722.66 420.407 732.816C405.738 740.262 396.319 719.656 396.319 719.656C396.319 719.656 399.638 744.405 384.915 748.233C371.501 751.721 365.169 735.344 365.169 735.344C365.169 735.344 364.599 750.703 351.031 751.573C334.71 752.621 338.579 720.262 321.129 707.04C317.21 704.07 359.973 584.015 359.973 584.015Z" fill="#EB9481"/>
<path d="M375.649 650.075C384.458 661.216 397.972 691.651 396.669 719.13C396.639 719.752 396.153 720.064 396.06 719.49C391.07 688.932 380.554 661.557 375.395 650.206C375.328 650.054 375.551 649.951 375.649 650.075Z" fill="#263238"/>
<path d="M348.851 665.032C355.463 675.426 367.991 707.419 365.714 735.218C365.663 735.841 365.155 736.12 365.086 735.542C361.186 703.398 353.063 676.787 348.589 665.148C348.531 664.994 348.766 664.899 348.851 665.032Z" fill="#263238"/>
<path d="M398.145 595.118C420.928 607.598 442.03 624.088 456.55 645.917C461.458 653.125 465.648 660.848 469.043 668.879C471.813 674.959 474.02 681.691 472.944 688.504C472.41 693.452 468.413 698.522 462.934 697.771C455.951 696.929 450.673 691.626 446.021 687.076C439.83 680.971 434.194 674.357 428.737 667.665C423.221 661.117 418.314 653.739 410.994 649.06C418.701 653.135 424.046 660.432 429.935 666.64C435.672 673.084 441.509 679.405 447.764 685.271C452.283 689.381 457.031 694.108 463.145 694.848C467.205 695.229 469.371 691.691 469.876 688.012C470.799 681.825 468.652 675.735 466.084 670.139C462.826 662.255 458.729 654.717 454.023 647.602C440.001 625.831 419.701 609.113 398.145 595.118Z" fill="#263238"/>
<path d="M397.545 627.161C416.627 650.843 429.156 680.546 430.423 711.127C431.826 729.262 416.902 748.097 401.526 729.08C399.545 726.622 397.908 723.964 396.424 721.25L398.984 720.454C399.346 730.139 398.141 742.38 388.821 747.663C378.664 753.033 368.699 744.876 365.084 735.541C367.314 739.783 370.477 743.781 374.658 746.165C384.182 751.279 393.346 744.778 395.321 734.836C397.016 728.378 396.371 721.114 395.75 714.546C399.532 721.057 403.356 729.058 410.193 732.718C422.417 738.441 428.048 720.69 427.281 711.23C426.178 681.074 414.602 651.879 397.545 627.161Z" fill="#263238"/>
<path d="M291.535 574.632L198.47 733.163C198.47 733.163 87.9747 707.457 73.4946 681.541C63.1439 663.016 128.472 585.594 190.801 580.168L291.535 574.632Z" fill="#8A4FFF"/>
<path d="M119.621 612.638C127.738 603.343 154.898 583.719 190.867 580.057C191.184 580.025 191.306 580.522 190.988 580.585C164.459 585.905 128.528 604.737 119.952 613.018C119.727 613.237 119.417 612.872 119.621 612.638Z" fill="#263238"/>
<path d="M180.166 702.805C187.928 686.825 196.533 671.276 205.182 655.749C213.836 640.214 222.462 624.653 231.505 609.332C236.614 600.676 241.674 591.985 247.083 583.508C247.225 583.286 247.632 583.466 247.511 583.715C239.77 599.671 231.217 615.275 222.687 630.833C214.135 646.427 205.412 661.946 196.55 677.37C191.543 686.085 186.378 694.712 180.972 703.193C180.705 703.614 179.94 703.273 180.166 702.805Z" fill="#263238"/>
<path d="M291.375 573.072C284.473 572.422 277.576 572.836 270.652 573.119C263.738 573.4 256.827 573.802 249.924 574.265C236.191 575.188 206.985 575.579 182.547 581.271C182.277 581.334 183.963 582.328 184.229 582.25C195.728 578.943 282.992 576.344 289.956 575.256C289.791 575.764 284.129 585.987 284.036 586.533C283.973 586.901 284.409 587.263 284.716 586.935C285.441 586.159 291.391 575.584 292.053 574.764C292.597 574.091 292.267 573.156 291.375 573.072Z" fill="#263238"/>
<path d="M150.853 485.539C132.372 508.818 117.41 534.8 103.134 560.801C87.591 591.112 67.5681 630.42 68.9317 664.955C69.8788 682.041 78.8547 690.207 93.1257 697.832C125.313 714.867 165.044 723.787 198.043 732.901C203.303 724.543 208.569 716.189 213.893 707.871C208.878 716.514 203.804 725.121 198.723 733.726C169.374 727.765 140.264 720.352 112.229 709.665C98.4578 703.894 83.6723 698.199 73.4792 686.766C68.4638 680.62 66.3525 672.755 65.7752 665.191C62.3663 615.58 118.55 523.308 150.853 485.539Z" fill="#263238"/>
<path d="M236.941 407.115C235.431 407.054 202.436 448.584 202.769 449.079C203.102 449.575 226.823 455.761 226.823 455.761C226.823 455.761 200.553 465.585 200.283 466.7C200.013 467.814 232.213 503.256 239.48 511.061C256.989 529.867 328.133 578.369 328.133 578.369L324.173 565.561L256.775 467.359L236.941 407.115Z" fill="#8A4FFF"/>
<path opacity="0.4" d="M236.941 407.115C235.431 407.054 202.436 448.584 202.769 449.079C203.102 449.575 226.823 455.761 226.823 455.761C226.823 455.761 200.553 465.585 200.283 466.7C200.013 467.814 232.213 503.256 239.48 511.061C256.989 529.867 328.133 578.369 328.133 578.369L324.173 565.561L256.775 467.359L236.941 407.115Z" fill="black"/>
<path d="M553.993 740.489H282.754V753.461H553.993V740.489Z" fill="#455A64"/>
<path d="M553.994 740.489V753.461H396.016L405.939 740.489H553.994Z" fill="#37474F"/>
<path d="M446.803 753.465H681.904L718.582 574.624H483.481L446.803 753.465Z" fill="#37474F"/>
<path d="M458.648 753.465H693.749L730.428 574.624H495.325L458.648 753.465Z" fill="#455A64"/>
<path d="M608.478 664.045C607.27 672.369 601.36 679.118 595.277 679.118C589.194 679.118 585.242 672.369 586.45 664.045C587.657 655.72 593.566 648.971 599.65 648.971C605.733 648.971 609.685 655.72 608.478 664.045Z" fill="white"/>
<path d="M154.049 729.082C154.049 729.082 135.103 729.164 136.207 742.122C137.311 755.081 155.996 751.934 155.996 751.934L154.049 729.082Z" fill="#263238"/>
<path d="M287.989 740.621L288.004 740.613L303.638 730.614L308.816 727.347L303.165 724.941L286.051 717.753L286.043 717.739L286.014 717.753L153.295 729.144L155.247 752.004L287.981 740.605C287.989 740.621 287.989 740.621 287.989 740.621Z" fill="#263238"/>
<path d="M303.644 730.619L308.815 727.339L303.16 724.938L303.644 730.619Z" fill="#37474F"/>
<path d="M159.975 753.537L157.701 726.854L152.423 727.303L154.697 753.986L159.975 753.537Z" fill="#455A64"/>
<path d="M165.807 753.038L163.533 726.354L158.256 726.803L160.529 753.488L165.807 753.038Z" fill="#455A64"/>
<path d="M163.537 726.338L164.27 734.947L211.885 726.081L211.431 722.924L163.537 726.338Z" fill="#455A64"/>
<path d="M634.853 54.4391C713.621 66.5409 695.828 183.222 616.93 171.103C538.167 159.003 555.958 42.318 634.853 54.4391Z" fill="#8A4FFF"/>
<path opacity="0.1" d="M634.853 54.4391C713.621 66.5409 695.828 183.222 616.93 171.103C538.167 159.003 555.958 42.318 634.853 54.4391Z" fill="black"/>
<path d="M627.456 53.302C702.525 64.8346 684.726 181.516 609.533 169.964C534.47 158.435 552.267 41.7518 627.456 53.302Z" fill="#8A4FFF"/>
<path opacity="0.1" d="M571.168 115.557C572.089 136.243 584.641 155.992 611.067 160.051C673.461 169.636 688.242 72.7925 625.943 63.2216C625.536 63.1589 625.128 63.0962 624.716 63.0576C683.165 73.2395 668.791 164.892 609.297 155.754C585.03 152.027 572.929 134.458 571.168 115.557Z" fill="black"/>
<g opacity="0.1">
<path d="M624.049 75.3219C625.091 75.5551 625.777 76.6341 625.544 77.676L624.829 80.884C630.495 82.6528 634.235 85.5086 637.852 89.6798C638.447 90.4034 638.741 90.9742 638.562 91.7766C638.312 92.899 637.152 93.5663 636.03 93.3154C635.549 93.2077 635.165 93.0405 634.711 92.4327C631.481 88.4287 627.988 85.9685 623.844 84.539L618.839 106.991C630.457 112.275 634.57 117.992 632.817 125.852C630.921 134.353 622.444 138.775 612.347 136.862L610.952 143.117C610.718 144.16 609.639 144.845 608.597 144.612C607.554 144.379 606.869 143.302 607.102 142.258L608.514 135.923C601.662 133.806 596.541 129.97 592.204 124.12C591.749 123.515 591.535 122.962 591.696 122.24C591.929 121.197 593.106 120.45 594.148 120.682C594.87 120.843 595.278 121.272 595.466 121.565C599.028 126.738 603.365 130.314 609.479 132.35L614.574 109.492C603.133 104.165 599.146 98.6444 600.934 90.6253C602.739 82.5258 611.173 77.9237 621.011 79.8645L621.691 76.8158C621.926 75.7754 623.005 75.0888 624.049 75.3219ZM615.489 105.404L620.37 83.5099C612.555 81.9372 606.385 85.4427 605.098 91.217C603.883 96.6697 605.698 100.611 615.489 105.404ZM617.927 111.081L612.992 133.216C621.048 134.844 627.298 131.354 628.657 125.26C629.891 119.725 627.834 115.731 617.927 111.081Z" fill="black"/>
</g>
<path d="M636.77 216.014C636.373 215.916 635.977 215.806 635.598 215.734L640.098 202.399C640.478 202.471 640.873 202.581 641.271 202.679C642.195 202.909 643.104 203.147 643.999 203.391C654.675 206.319 663.342 210.35 669.99 214.871C668.489 219.315 666.989 223.76 665.486 228.203C658.838 223.682 650.171 219.653 639.497 216.725C638.601 216.482 637.694 216.244 636.77 216.014Z" fill="#8A4FFF"/>
<path d="M681.175 256.024C683.886 247.994 678.63 237.142 665.484 228.204C666.988 223.762 668.488 219.317 669.988 214.873C683.131 223.81 688.387 234.661 685.676 242.691C684.325 246.692 682.526 252.025 681.175 256.024Z" fill="#8A4FFF"/>
<path d="M681.622 240.505L677.121 253.839C681.036 242.24 667.617 224.503 637.128 216.143C636.623 216.004 636.11 215.868 635.596 215.734L640.097 202.399C640.611 202.532 641.124 202.669 641.629 202.807C672.118 211.169 685.537 228.905 681.622 240.505Z" fill="#8A4FFF"/>
<path d="M636.8 222.087C636.791 222.084 636.781 222.082 636.771 222.079C638.272 217.635 639.772 213.19 641.272 208.744C641.282 208.747 641.292 208.749 641.301 208.752C639.952 212.753 638.151 218.087 636.8 222.087Z" fill="#8A4FFF"/>
<path d="M643.064 210.233L638.563 223.567C638.626 223.054 637.809 222.374 636.801 222.086L641.302 208.752C642.31 209.04 643.125 209.72 643.064 210.233Z" fill="#8A4FFF"/>
<path d="M639.161 210.667L634.66 224.003L634.843 222.506L639.344 209.17L639.161 210.667Z" fill="#8A4FFF"/>
<path d="M636.77 222.079C635.825 221.827 635.008 221.973 634.863 222.403L639.364 209.069C639.509 208.641 640.326 208.495 641.271 208.746C639.771 213.189 638.271 217.633 636.77 222.079Z" fill="#8A4FFF"/>
<path d="M634.865 222.401L639.365 209.067C639.354 209.101 639.348 209.135 639.345 209.17L634.844 222.504C634.847 222.468 634.853 222.435 634.865 222.401Z" fill="#8A4FFF"/>
<path d="M642.876 211.801L638.375 225.135L638.563 223.567L643.064 210.233L642.876 211.801Z" fill="#8A4FFF"/>
<path d="M634.659 224.003C631.623 223.181 628.822 222.734 626.4 222.636C627.901 218.191 629.401 213.747 630.901 209.302C633.323 209.399 636.124 209.846 639.16 210.669C637.811 214.668 636.01 220.002 634.659 224.003Z" fill="#8A4FFF"/>
<path d="M626.664 221.523C628.039 217.448 629.415 213.372 630.79 209.297C630.827 209.299 630.865 209.301 630.904 209.302C629.404 213.747 627.903 218.191 626.403 222.637C626.366 222.636 626.328 222.634 626.289 222.633C626.302 222.594 626.32 222.541 626.332 222.502C626.345 222.462 626.365 222.409 626.377 222.369C626.408 222.277 626.439 222.187 626.469 222.095C626.535 221.902 626.599 221.713 626.664 221.523Z" fill="#8A4FFF"/>
<path d="M656.365 218.49L651.865 231.826C647.857 229.055 643.937 226.963 638.375 225.136L642.876 211.803C648.438 213.628 652.358 215.72 656.365 218.49Z" fill="#8A4FFF"/>
<path d="M652.84 233.036C652.893 232.646 652.536 232.298 651.865 231.824L656.366 218.489C657.037 218.963 657.394 219.31 657.34 219.701C655.84 224.147 654.34 228.592 652.84 233.036Z" fill="#8A4FFF"/>
<path d="M652.816 233.133C652.826 233.102 652.834 233.07 652.837 233.036C654.338 228.592 655.838 224.147 657.338 219.703C657.335 219.736 657.327 219.769 657.317 219.799C655.968 223.798 654.167 229.132 652.816 233.133Z" fill="#8A4FFF"/>
<path d="M653.858 219.442L649.357 232.776C645.723 230.16 642.086 228.311 638.008 226.912L642.509 213.578C646.587 214.979 650.224 216.826 653.858 219.442Z" fill="#8A4FFF"/>
<path d="M657.319 219.798L652.818 233.131C652.659 233.601 651.765 233.738 650.758 233.461C650.245 233.319 649.872 233.167 649.357 232.776L653.858 219.442C654.373 219.833 654.746 219.988 655.259 220.127C656.267 220.404 657.161 220.269 657.319 219.798Z" fill="#8A4FFF"/>
<path d="M626.289 222.631C623.463 222.53 621.162 222.909 619.621 223.729C621.121 219.285 622.622 214.839 624.122 210.394C625.662 209.574 627.963 209.195 630.79 209.296C629.29 213.742 627.79 218.186 626.289 222.631Z" fill="#8A4FFF"/>
<path d="M619.664 223.528C621.14 219.156 622.616 214.784 624.091 210.412C624.101 210.407 624.11 210.4 624.122 210.396C622.621 214.84 621.121 219.285 619.621 223.731C619.611 223.735 619.601 223.742 619.592 223.747C619.616 223.673 619.64 223.6 619.664 223.528Z" fill="#8A4FFF"/>
<path d="M621.602 227.019L626.102 213.686C626.934 211.222 631.996 210.552 639.114 212.494L634.614 225.828C627.493 223.884 622.431 224.556 621.602 227.019Z" fill="#8A4FFF"/>
<path d="M619.59 223.745C618.614 224.271 617.948 224.977 617.652 225.85L622.153 212.517C622.447 211.643 623.115 210.937 624.091 210.412C623.132 213.253 622.172 216.094 621.214 218.936C620.691 220.484 620.169 222.034 619.646 223.583C619.627 223.636 619.63 223.699 619.59 223.745Z" fill="#8A4FFF"/>
<path d="M639.114 212.492L637.832 223.261C627.958 219.193 625.679 216.834 625.999 214.15C626.33 211.312 631.566 210.432 639.114 212.492Z" fill="#8A4FFF"/>
<path d="M637.831 223.261L633.33 236.595L634.613 225.826L639.114 212.493L637.831 223.261Z" fill="#8A4FFF"/>
<path d="M621.602 227.019L626.103 213.686C626.053 213.833 626.018 213.989 626 214.15C625.68 216.834 627.959 219.193 637.833 223.261L633.332 236.595C623.458 232.526 621.179 230.168 621.499 227.482C621.517 227.323 621.551 227.167 621.602 227.019Z" fill="#8A4FFF"/>
<path d="M641.204 224.622L636.703 237.955L638.007 226.913L642.508 213.58L641.204 224.622Z" fill="#8A4FFF"/>
<path d="M648.453 243.758C645.859 241.948 641.998 240.05 636.703 237.955L641.204 224.622C646.501 226.715 650.362 228.613 652.954 230.423C651.453 234.869 649.953 239.314 648.453 243.758Z" fill="#8A4FFF"/>
<path d="M617.654 225.85L622.155 212.517C622.084 212.727 622.035 212.949 622.007 213.179C621.544 217.122 626.096 220.664 637.608 225.276L633.107 238.611C621.596 234.001 617.043 230.457 617.506 226.514C617.532 226.283 617.582 226.062 617.654 225.85Z" fill="#8A4FFF"/>
<path d="M648.751 243.969C648.654 243.898 648.554 243.829 648.453 243.758C649.953 239.314 651.454 234.869 652.954 230.423C653.055 230.494 653.153 230.565 653.251 230.634C651.751 235.08 650.251 239.525 648.751 243.969Z" fill="#8A4FFF"/>
<path d="M650.651 238.339C651.517 235.771 652.384 233.203 653.251 230.634C654.331 231.415 655.176 232.181 655.796 232.94C654.296 237.384 652.796 241.829 651.295 246.273C650.675 245.514 649.831 244.749 648.75 243.967C649.385 242.092 650.019 240.216 650.651 238.339Z" fill="#8A4FFF"/>
<path d="M653.134 235.794L648.633 249.129C648.956 246.404 646.421 243.974 636.459 239.965L640.96 226.632C650.92 230.641 653.457 233.069 653.134 235.794Z" fill="#8A4FFF"/>
<path d="M651.297 246.275C652.797 241.83 654.297 237.386 655.798 232.941C656.843 234.218 657.258 235.477 657.107 236.759C657.078 237.005 657.025 237.241 656.947 237.466L652.447 250.8C652.522 250.575 652.575 250.34 652.606 250.094C652.757 248.811 652.342 247.553 651.297 246.275Z" fill="#8A4FFF"/>
<path d="M653.022 236.289L648.521 249.623C648.575 249.465 648.612 249.3 648.634 249.128L653.135 235.792C653.112 235.966 653.075 236.132 653.022 236.289Z" fill="#8A4FFF"/>
<path d="M621.558 228.63L617.057 241.964C616.829 241.777 616.387 241.49 615.695 241.289L620.196 227.955C620.888 228.156 621.33 228.444 621.558 228.63Z" fill="#8A4FFF"/>
<path d="M615.694 241.29C614.722 241.023 613.803 241.194 613.652 241.641L618.153 228.306C618.303 227.862 619.213 227.691 620.181 227.952C618.689 232.376 617.195 236.799 615.701 241.223C617.195 236.799 618.687 232.376 620.181 227.952C620.186 227.954 620.19 227.955 620.195 227.955C618.845 231.956 617.044 237.29 615.694 241.29Z" fill="#8A4FFF"/>
<path d="M653.021 236.289L648.521 249.623C647.648 252.21 642.505 252.856 635.186 250.859L639.686 237.526C647.006 239.524 652.148 238.876 653.021 236.289Z" fill="#8A4FFF"/>
<path d="M639.686 237.526L635.186 250.861L636.459 239.965L640.96 226.632L639.686 237.526Z" fill="#8A4FFF"/>
<path d="M636.266 236.516L631.766 249.849L633.107 238.609L637.607 225.276L636.266 236.516Z" fill="#8A4FFF"/>
<path d="M636.266 236.516L631.765 249.85C625.754 247.817 621.163 245.249 617.057 241.964L621.557 228.63C625.664 231.916 630.255 234.484 636.266 236.516Z" fill="#8A4FFF"/>
<path d="M656.946 237.466L652.445 250.8C651.238 254.379 644.278 255.113 635.119 252.67L639.62 239.336C648.777 241.779 655.739 241.046 656.946 237.466Z" fill="#8A4FFF"/>
<path d="M613.652 241.639L618.153 228.306C618.145 228.331 618.138 228.359 618.135 228.388C618.085 228.748 618.383 229.068 618.899 229.459C623.816 233.226 629.197 236.051 635.903 238.243L631.403 251.577C624.696 249.385 619.315 246.56 614.398 242.792C613.883 242.401 613.584 242.081 613.634 241.721C613.636 241.694 613.642 241.667 613.652 241.639Z" fill="#8A4FFF"/>
<path d="M639.268 242.416L634.768 255.751L635.12 252.67L639.62 239.336L639.268 242.416Z" fill="#8A4FFF"/>
<path d="M639.249 242.504L634.748 255.838C634.758 255.81 634.764 255.78 634.767 255.751L639.268 242.416C639.265 242.446 639.259 242.477 639.249 242.504Z" fill="#8A4FFF"/>
<path d="M635.548 241.364L631.047 254.699L631.402 251.578L635.903 238.243L635.548 241.364Z" fill="#8A4FFF"/>
<path d="M639.248 242.504L634.748 255.838C634.598 256.283 633.739 256.434 632.789 256.172L637.29 242.839C638.24 243.101 639.097 242.95 639.248 242.504Z" fill="#8A4FFF"/>
<path d="M637.29 242.839L632.789 256.172C631.78 255.886 630.985 255.211 631.046 254.698L635.547 241.364C635.484 241.877 636.28 242.553 637.29 242.839Z" fill="#8A4FFF"/>
<path d="M694.723 245.9L690.223 259.234C686.331 270.765 668.802 277.467 637.48 269.681C636.369 269.405 635.269 269.117 634.193 268.823C595.884 258.317 579.029 236.032 583.947 221.462L588.447 208.127C583.529 222.699 600.385 244.982 638.694 255.489C639.77 255.785 640.871 256.071 641.981 256.348C673.305 264.132 690.832 257.431 694.723 245.9Z" fill="#8A4FFF"/>
<g opacity="0.1">
<path d="M694.723 245.9L690.223 259.234C686.331 270.765 668.802 277.467 637.48 269.681C636.369 269.405 635.269 269.117 634.193 268.823C595.884 258.317 579.029 236.032 583.947 221.462L588.447 208.127C583.529 222.699 600.385 244.982 638.694 255.489C639.77 255.785 640.871 256.071 641.981 256.348C673.305 264.132 690.832 257.431 694.723 245.9Z" fill="black"/>
</g>
<path d="M644.479 198.545C713.105 217.36 712.885 273.971 641.983 256.347C640.874 256.071 639.772 255.783 638.697 255.489C570.072 236.669 570.291 180.053 641.192 197.686C642.302 197.961 643.402 198.249 644.479 198.545ZM641.924 251.356C700.745 265.984 700.925 219.005 644 203.393C643.103 203.147 642.196 202.91 641.271 202.68C640.874 202.582 640.478 202.473 640.099 202.401C640.613 202.534 641.126 202.671 641.631 202.809C696.252 217.786 696.086 262.86 639.62 248.816C638.738 248.597 637.87 248.369 637.015 248.135C615.329 242.189 602.25 231.489 597.947 221.648C601.761 232.284 615.546 244.162 639.166 250.639C640.071 250.885 640.988 251.125 641.924 251.356ZM620.195 227.955C619.164 227.672 618.196 227.879 618.135 228.386C618.085 228.746 618.383 229.066 618.899 229.457C623.816 233.224 629.197 236.05 635.904 238.241L635.548 241.362C635.487 241.875 636.281 242.549 637.291 242.837C638.301 243.114 639.208 242.927 639.269 242.414L639.621 239.333C649.353 241.93 656.603 240.938 657.105 236.756C657.562 232.883 652.858 229.227 641.203 224.618L642.508 213.576C646.585 214.975 650.223 216.823 653.857 219.439C654.371 219.83 654.744 219.984 655.219 220.114C656.33 220.42 657.274 220.246 657.338 219.7C657.391 219.309 657.034 218.961 656.364 218.487C652.357 215.716 648.436 213.624 642.874 211.798L643.062 210.23C643.125 209.717 642.31 209.037 641.3 208.749C640.269 208.466 639.383 208.656 639.341 209.167L639.158 210.664C629.668 208.093 622.469 209.193 622.004 213.176C621.541 217.119 626.093 220.661 637.605 225.273L636.264 236.513C630.253 234.48 625.662 231.912 621.555 228.627C621.33 228.444 620.888 228.156 620.195 227.955Z" fill="#8A4FFF"/>
<path d="M653.134 235.794C652.769 238.788 647.453 239.645 639.688 237.526L640.959 226.63C650.919 230.64 653.457 233.068 653.134 235.794Z" fill="#8A4FFF"/>
<path d="M641.205 224.621C652.858 229.23 657.563 232.887 657.106 236.759C656.603 240.939 649.354 241.932 639.622 239.336L639.27 242.417C639.207 242.93 638.302 243.117 637.292 242.84C636.283 242.554 635.488 241.879 635.549 241.366L635.905 238.244C629.198 236.053 623.819 233.227 618.9 229.46C618.385 229.069 618.086 228.749 618.136 228.389C618.197 227.882 619.165 227.675 620.164 227.948C620.889 228.157 621.331 228.445 621.558 228.632C625.665 231.917 630.256 234.485 636.266 236.517L637.608 225.278C626.096 220.667 621.544 217.125 622.007 213.181C622.473 209.198 629.67 208.098 639.161 210.669L639.344 209.172C639.386 208.66 640.272 208.471 641.267 208.744C642.313 209.042 643.128 209.722 643.065 210.235L642.877 211.802C648.439 213.629 652.359 215.721 656.366 218.492C657.037 218.966 657.394 219.313 657.341 219.704C657.277 220.251 656.333 220.425 655.26 220.13C654.747 219.989 654.374 219.836 653.86 219.445C650.226 216.829 646.588 214.98 642.51 213.583L641.205 224.621ZM653.134 235.794C653.458 233.068 650.922 230.64 640.96 226.63L639.688 237.526C647.453 239.645 652.768 238.788 653.134 235.794ZM637.831 223.261L639.113 212.492C631.565 210.432 626.329 211.312 625.996 214.149C625.678 216.834 627.956 219.193 637.831 223.261Z" fill="#8A4FFF"/>
<g opacity="0.1">
<path d="M641.205 224.621C652.858 229.23 657.563 232.887 657.106 236.759C656.603 240.939 649.354 241.932 639.622 239.336L639.27 242.417C639.207 242.93 638.302 243.117 637.292 242.84C636.283 242.554 635.488 241.879 635.549 241.366L635.905 238.244C629.198 236.053 623.819 233.227 618.9 229.46C618.385 229.069 618.086 228.749 618.136 228.389C618.197 227.882 619.165 227.675 620.164 227.948C620.889 228.157 621.331 228.445 621.558 228.632C625.665 231.917 630.256 234.485 636.266 236.517L637.608 225.278C626.096 220.667 621.544 217.125 622.007 213.181C622.473 209.198 629.67 208.098 639.161 210.669L639.344 209.172C639.386 208.66 640.272 208.471 641.267 208.744C642.313 209.042 643.128 209.722 643.065 210.235L642.877 211.802C648.439 213.629 652.359 215.721 656.366 218.492C657.037 218.966 657.394 219.313 657.341 219.704C657.277 220.251 656.333 220.425 655.26 220.13C654.747 219.989 654.374 219.836 653.86 219.445C650.226 216.829 646.588 214.98 642.51 213.583L641.205 224.621ZM653.134 235.794C653.458 233.068 650.922 230.64 640.96 226.63L639.688 237.526C647.453 239.645 652.768 238.788 653.134 235.794ZM637.831 223.261L639.113 212.492C631.565 210.432 626.329 211.312 625.996 214.149C625.678 216.834 627.956 219.193 637.831 223.261Z" fill="black"/>
</g>
<path d="M643.998 203.393C700.923 219.005 700.743 265.984 641.923 251.356C640.988 251.125 640.07 250.883 639.165 250.636C615.545 244.159 601.761 232.28 597.945 221.645C602.248 231.486 615.328 242.186 637.013 248.132C637.867 248.367 638.737 248.594 639.618 248.812C696.083 262.856 696.25 217.783 641.63 202.807C641.125 202.669 640.612 202.532 640.097 202.399C640.477 202.471 640.872 202.581 641.27 202.679C642.194 202.91 643.101 203.148 643.998 203.393Z" fill="#8A4FFF"/>
<g opacity="0.1">
<path d="M643.998 203.393C700.923 219.005 700.743 265.984 641.923 251.356C640.988 251.125 640.07 250.883 639.165 250.636C615.545 244.159 601.761 232.28 597.945 221.645C602.248 231.486 615.328 242.186 637.013 248.132C637.867 248.367 638.737 248.594 639.618 248.812C696.083 262.856 696.25 217.783 641.63 202.807C641.125 202.669 640.612 202.532 640.097 202.399C640.477 202.471 640.872 202.581 641.27 202.679C642.194 202.91 643.101 203.148 643.998 203.393Z" fill="black"/>
</g>
<path d="M93.7498 164.117C96.969 194.893 124.541 217.242 155.315 214.025C167.753 212.724 178.808 207.445 187.371 199.561L215.403 203.676L201.376 179.442C204.779 171.162 206.213 161.946 205.221 152.461C202.002 121.685 174.431 99.3358 143.656 102.555C112.882 105.771 90.5306 133.343 93.7498 164.117Z" fill="white"/>
<path d="M110.522 117.842C116.606 111.904 124.032 107.318 132.132 104.593C140.241 101.898 148.979 101.124 157.47 102.251C165.954 103.399 174.239 106.414 181.385 111.224C188.534 116.019 194.591 122.449 198.934 129.912C207.648 144.815 209.179 163.86 202.385 179.855L202.321 178.897L216.264 203.179L217.293 204.97L215.26 204.658L187.255 200.359L187.918 200.154C180.161 207.186 170.45 211.984 160.196 213.842C157.633 214.311 155.042 214.589 152.442 214.649C149.845 214.876 147.248 214.641 144.656 214.501C139.516 213.882 134.36 212.92 129.57 210.904C124.757 209.01 120.152 206.535 116.053 203.378C113.903 201.928 112.088 200.068 110.139 198.371C108.423 196.442 106.531 194.658 105.061 192.524C98.6627 184.377 94.9225 174.351 93.7519 164.119C91.93 147.246 98.1481 129.603 110.522 117.842ZM105.227 192.394C106.704 194.51 108.603 196.274 110.324 198.181C112.276 199.857 114.093 201.695 116.241 203.123C120.326 206.257 124.962 208.612 129.758 210.407C134.536 212.322 139.649 213.181 144.724 213.702C147.282 213.793 149.839 213.983 152.392 213.713C154.949 213.612 157.49 213.293 159.995 212.788C170.023 210.79 179.41 205.93 186.828 198.968L187.103 198.709L187.49 198.763L215.55 202.693L214.546 204.173L200.438 179.985L200.171 179.527L200.374 179.025C203.487 171.317 204.842 162.916 204.318 154.614C203.652 146.341 201.452 138.097 197.206 130.904C193.041 123.696 187.275 117.418 180.439 112.618C173.587 107.828 165.573 104.747 157.297 103.477C149.014 102.229 140.414 102.829 132.374 105.345C124.347 107.895 116.91 112.292 110.765 118.093C98.3894 129.695 92.0474 147.23 93.7503 164.118C94.9916 174.343 98.7962 184.32 105.227 192.394Z" fill="#263238"/>
<path d="M150.11 215.144C148.722 215.144 147.335 215.06 145.976 214.978L144.633 214.901C140.317 214.383 134.714 213.504 129.412 211.273C124.3 209.262 119.721 206.712 115.807 203.697C114.265 202.658 112.866 201.379 111.512 200.145C110.97 199.649 110.428 199.156 109.875 198.673C109.336 198.073 108.82 197.522 108.302 196.97C107.064 195.65 105.784 194.283 104.728 192.751C98.5239 184.852 94.5843 174.962 93.3494 164.164C91.505 147.071 97.9772 129.211 110.241 117.553C116.4 111.544 123.925 106.93 132.001 104.211C140.084 101.526 148.911 100.711 157.52 101.852C166.251 103.034 174.579 106.16 181.606 110.891C188.816 115.728 194.928 122.235 199.28 129.709C208.027 144.673 209.445 163.616 203.034 179.335L217.64 204.771C217.717 204.904 217.71 205.071 217.622 205.198C217.535 205.325 217.382 205.39 217.23 205.367L187.75 200.841C179.959 207.762 170.469 212.388 160.265 214.237C157.639 214.718 155.007 214.991 152.448 215.049C151.673 215.118 150.892 215.144 150.11 215.144ZM144.828 214.108L146.024 214.176C148.119 214.301 150.285 214.433 152.403 214.247C154.947 214.189 157.534 213.919 160.122 213.444C170.036 211.648 179.271 207.189 186.888 200.527C186.867 200.484 186.855 200.436 186.851 200.386C186.838 200.199 186.954 200.027 187.134 199.972L187.797 199.768C187.977 199.712 188.172 199.789 188.265 199.953C188.294 200.005 188.31 200.059 188.316 200.114L214.014 204.058L213.268 202.778L187.236 199.133L187.101 199.26C179.546 206.35 170.201 211.164 160.072 213.182C157.504 213.7 154.925 214.014 152.406 214.115C150.302 214.338 148.144 214.248 146.058 214.157L144.828 214.108ZM94.1501 164.082C95.4398 174.701 99.3778 184.407 105.54 192.143C105.544 192.15 105.549 192.156 105.554 192.164C106.578 193.631 107.839 194.956 109.056 196.239C109.584 196.792 110.11 197.347 110.619 197.913C111.143 198.358 111.695 198.853 112.245 199.349C113.576 200.547 114.953 201.785 116.461 202.788C120.209 205.662 124.721 208.093 129.896 210.03C135.079 212.108 140.562 212.87 144.762 213.303L146.09 213.356C148.145 213.443 150.273 213.534 152.347 213.316C154.849 213.214 157.385 212.907 159.913 212.397C169.895 210.408 179.106 205.665 186.549 198.678L186.824 198.419C186.914 198.336 187.035 198.3 187.155 198.315L212.75 201.899L199.82 179.734C199.757 179.626 199.748 179.496 199.794 179.382L199.995 178.88C203.078 171.25 204.432 162.871 203.911 154.645C203.195 145.752 200.82 137.833 196.853 131.113C192.738 123.991 186.982 117.714 180.202 112.952C173.553 108.304 165.61 105.165 157.23 103.878C148.92 102.629 140.362 103.269 132.49 105.734C124.556 108.254 117.137 112.631 111.037 118.391C98.9227 129.748 92.4505 147.256 94.1469 164.08C94.1501 164.077 94.1501 164.082 94.1501 164.082ZM215.004 204.211L216.527 204.446L215.757 203.102L215.004 204.211ZM214.281 202.922L214.57 203.418L214.853 203.002L214.281 202.922ZM213.764 202.037L215.265 202.248L202.6 180.192C202.518 180.246 202.417 180.27 202.317 180.25C202.134 180.218 201.995 180.067 201.983 179.881L201.918 178.922C201.905 178.736 202.023 178.565 202.203 178.51C202.303 178.482 202.404 178.491 202.491 178.531C208.579 163.14 207.117 144.707 198.585 130.113C194.296 122.743 188.27 116.326 181.159 111.557C174.233 106.895 166.023 103.814 157.414 102.648C149.176 101.558 140.739 102.28 132.966 104.742C140.758 102.422 149.169 101.844 157.353 103.078C165.852 104.383 173.913 107.569 180.664 112.288C187.54 117.117 193.378 123.485 197.548 130.703C201.576 137.524 203.986 145.559 204.713 154.582C205.242 162.934 203.869 171.435 200.741 179.176L200.613 179.495L213.764 202.037Z" fill="#263238"/>
<path d="M143.309 190.246L119.377 166.018L127.417 158.076L141.399 172.225L170.444 126.691L179.974 132.768L143.309 190.246Z" fill="#8A4FFF"/>
</svg>
