<svg width="48" height="50" viewBox="0 0 48 50" fill="none" xmlns="http://www.w3.org/2000/svg">
<path d="M9.75 8.5C7.95979 8.5 6.2429 9.21116 4.97703 10.477C3.71116 11.7429 3 13.4598 3 15.25V17.5H45V15.25C45 13.4598 44.2888 11.7429 43.023 10.477C41.7571 9.21116 40.0402 8.5 38.25 8.5H9.75ZM3 34.75V20.5H45V34.75C45 36.5402 44.2888 38.2571 43.023 39.523C41.7571 40.7888 40.0402 41.5 38.25 41.5H9.75C7.95979 41.5 6.2429 40.7888 4.97703 39.523C3.71116 38.2571 3 36.5402 3 34.75ZM31.5 29.5C31.1022 29.5 30.7206 29.658 30.4393 29.9393C30.158 30.2206 30 30.6022 30 31C30 31.3978 30.158 31.7794 30.4393 32.0607C30.7206 32.342 31.1022 32.5 31.5 32.5H36C36.3978 32.5 36.7794 32.342 37.0607 32.0607C37.342 31.7794 37.5 31.3978 37.5 31C37.5 30.6022 37.342 30.2206 37.0607 29.9393C36.7794 29.658 36.3978 29.5 36 29.5H31.5Z" fill="#453823"/>
</svg>
