<svg width="842" height="835" viewBox="0 0 842 835" fill="none" xmlns="http://www.w3.org/2000/svg">
<path opacity="0.4" d="M812.702 590.532C828.783 570.436 828.783 537.854 812.702 517.758C796.621 497.662 770.549 497.662 754.468 517.758C738.388 537.854 738.388 570.436 754.468 590.532C770.549 610.628 796.621 610.628 812.702 590.532Z" fill="#E5E5FF"/>
<path opacity="0.4" d="M150.406 250.459C174.938 219.801 174.938 170.094 150.406 139.436C125.874 108.777 86.0987 108.777 61.5663 139.436C37.0339 170.094 37.0339 219.801 61.5663 250.459C86.0987 281.117 125.874 281.117 150.406 250.459Z" fill="#E5E5FF"/>
<path opacity="0.4" d="M323.275 119.474C341.361 119.474 356.023 101.152 356.023 78.5497C356.023 55.9476 341.361 37.625 323.275 37.625C305.189 37.625 290.527 55.9476 290.527 78.5497C290.527 101.152 305.189 119.474 323.275 119.474Z" fill="#E5E5FF"/>
<path d="M276.39 98.7822C274.365 98.7822 272.32 98.5826 270.313 98.1889L270.507 96.6482C272.45 97.0293 274.43 97.2221 276.393 97.2221L276.621 97.2214L276.629 98.7809L276.39 98.7822ZM282.938 98.0923L282.729 96.5546C284.734 96.1292 286.734 95.4948 288.673 94.6689L289.076 96.1448C287.073 96.9981 285.008 97.6531 282.938 98.0923ZM264.156 96.3388C262.153 95.5198 260.188 94.4924 258.315 93.2847L258.887 91.8987C260.7 93.0683 262.604 94.0632 264.543 94.856L264.156 96.3388ZM294.888 93.0059L294.303 91.6286C296.109 90.4309 297.848 89.043 299.469 87.5041L300.224 88.7461C298.549 90.3361 296.753 91.7689 294.888 93.0059ZM252.938 89.1072C251.242 87.5403 249.636 85.7912 248.166 83.9073L249.06 82.8182C250.483 84.6415 252.037 86.3357 253.68 87.8528L252.938 89.1072ZM304.941 83.4669L304.036 82.3928C305.439 80.5458 306.734 78.5397 307.885 76.43L308.916 77.3083C307.728 79.4878 306.39 81.5594 304.941 83.4669ZM244.126 77.8142C242.919 75.6609 241.842 73.3641 240.924 70.9875L242.048 70.3094C242.937 72.6112 243.98 74.8344 245.148 76.9197L244.126 77.8142ZM312.052 70.4348L310.922 69.773C311.789 67.4612 312.513 65.0466 313.073 62.5957L314.273 63.0236C313.695 65.5549 312.947 68.0482 312.052 70.4348ZM238.634 63.6112C238.027 61.0811 237.582 58.4774 237.31 55.8719L238.548 55.6704C238.811 58.193 239.243 60.7143 239.829 63.1646L238.634 63.6112ZM315.517 55.2649L314.279 55.0822C314.452 53.2445 314.54 51.3763 314.54 49.5299C314.54 48.83 314.527 48.1214 314.502 47.4233L315.749 47.3541C315.774 48.0746 315.787 48.8069 315.787 49.5299C315.787 51.438 315.697 53.3674 315.517 55.2649ZM238.249 48.0141L237.002 47.9635C237.07 45.3337 237.311 42.6875 237.718 40.0994L238.942 40.4001C238.548 42.9059 238.315 45.4671 238.249 48.0141ZM313.734 39.8219C313.317 37.3361 312.734 34.8621 311.999 32.4699L313.164 31.9116C313.923 34.3812 314.525 36.935 314.955 39.5019L313.734 39.8219ZM240.602 33.0226L239.432 32.4818C240.163 30.0116 241.059 27.5969 242.095 25.3039L243.182 26.0705C242.178 28.2918 241.31 30.6304 240.602 33.0226ZM311.886 32.1063C311.137 29.7234 310.233 27.406 309.198 25.219L310.272 24.4256C311.341 26.6837 312.274 29.0759 313.048 31.5361L311.886 32.1063ZM246.615 19.7222L245.641 18.7479C246.958 16.6888 248.419 14.7507 249.981 12.9878L250.818 14.1449C249.305 15.8529 247.891 17.7292 246.615 19.7222ZM305.661 18.9618C304.353 17.0075 302.907 15.1698 301.363 13.5006L302.179 12.321C303.775 14.0452 305.268 15.9427 306.619 17.9619L305.661 18.9618ZM255.685 9.48838L255.009 8.17719C256.776 6.75496 258.654 5.49741 260.59 4.44072L261.09 5.8698C259.214 6.89344 257.396 8.11106 255.685 9.48838ZM296.418 8.97189C294.681 7.63449 292.843 6.46179 290.957 5.48681L291.434 4.04524C293.382 5.05203 295.279 6.26341 297.073 7.64385L296.418 8.97189ZM266.887 3.36718L266.575 1.857C268.62 1.19641 270.719 0.740416 272.814 0.501505L272.928 2.0541C270.9 2.28615 268.867 2.7278 266.887 3.36718ZM285.121 3.13263C283.133 2.54565 281.094 2.1564 279.059 1.97613L279.148 0.42041C281.249 0.606922 283.355 1.00865 285.408 1.61497L285.121 3.13263Z" fill="#9192FF"/>
<path d="M669.519 643.782L669.498 642.223C671.565 642.178 673.652 642.072 675.702 641.909L675.781 643.465C673.713 643.63 671.606 643.737 669.519 643.782ZM663.254 643.737C661.175 643.662 659.07 643.525 656.997 643.329L657.091 641.775C659.145 641.968 661.231 642.104 663.29 642.178L663.254 643.737ZM682.022 642.783L681.885 641.233C683.934 640.949 686.004 640.6 688.036 640.196L688.232 641.736C686.181 642.144 684.092 642.496 682.022 642.783ZM650.761 642.556C648.701 642.24 646.616 641.857 644.561 641.419L644.772 639.881C646.807 640.316 648.873 640.696 650.913 641.009L650.761 642.556ZM694.396 640.325L694.141 638.798C696.164 638.272 698.198 637.68 700.188 637.04L700.499 638.551C698.491 639.196 696.437 639.793 694.396 640.325ZM638.412 639.916C636.38 639.357 634.333 638.73 632.325 638.052L632.651 636.546C634.639 637.218 636.668 637.839 638.68 638.393L638.412 639.916ZM706.529 636.415L706.16 634.925C708.131 634.164 710.111 633.334 712.045 632.46L712.471 633.927C710.517 634.81 708.518 635.647 706.529 636.415ZM626.318 635.828C624.339 635.032 622.343 634.162 620.386 633.245L620.824 631.785C622.763 632.693 624.74 633.554 626.7 634.344L626.318 635.828ZM718.296 631.096L717.816 629.655C719.708 628.672 721.613 627.615 723.477 626.513L724.01 627.923C722.129 629.035 720.206 630.102 718.296 631.096ZM614.56 630.313C612.645 629.282 610.725 628.181 608.854 627.04L609.402 625.639C611.254 626.769 613.156 627.86 615.053 628.88L614.56 630.313ZM729.6 624.417L729.014 623.04C730.829 621.833 732.647 620.556 734.417 619.242L735.054 620.583C733.267 621.909 731.433 623.199 729.6 624.417ZM603.28 623.434C601.458 622.186 599.632 620.864 597.851 619.504L598.501 618.174C600.266 619.521 602.076 620.831 603.88 622.066L603.28 623.434ZM740.36 616.432L739.673 615.129C741.396 613.71 743.11 612.224 744.769 610.713L745.504 611.973C743.83 613.498 742.1 614.998 740.36 616.432ZM592.577 615.261C590.859 613.806 589.14 612.276 587.469 610.714L588.217 609.465C589.872 611.013 591.575 612.529 593.277 613.97L592.577 615.261ZM750.477 607.215L749.697 605.999C751.301 604.389 752.898 602.708 754.442 601.004L755.268 602.172C753.709 603.893 752.097 605.59 750.477 607.215ZM582.539 605.872C580.932 604.217 579.336 602.493 577.797 600.749L578.635 599.594C580.16 601.322 581.741 603.029 583.333 604.668L582.539 605.872ZM759.865 596.854L758.997 595.734C760.475 593.941 761.94 592.08 763.35 590.203L764.26 591.27C762.837 593.165 761.358 595.044 759.865 596.854ZM573.252 595.356C571.775 593.518 570.316 591.617 568.916 589.704L569.836 588.651C571.223 590.545 572.669 592.43 574.132 594.25L573.252 595.356ZM768.441 585.434L767.493 584.422C768.834 582.458 770.154 580.433 771.414 578.404L772.4 579.36C771.128 581.409 769.796 583.452 768.441 585.434ZM564.796 583.806C563.464 581.807 562.155 579.744 560.903 577.676L561.899 576.735C563.138 578.784 564.436 580.828 565.756 582.808L564.796 583.806ZM776.128 573.058L775.108 572.161C776.296 570.049 777.459 567.879 778.563 565.707L779.615 566.543C778.501 568.735 777.328 570.926 776.128 573.058ZM557.246 571.324C556.073 569.184 554.924 566.978 553.831 564.769L554.893 563.949C555.975 566.138 557.113 568.323 558.275 570.444L557.246 571.324ZM782.854 559.829L781.771 559.056C782.793 556.821 783.787 554.521 784.726 552.221L785.838 552.93C784.889 555.252 783.886 557.574 782.854 559.829ZM550.667 558.02C549.659 555.749 548.682 553.42 547.763 551.096L548.881 550.405C549.792 552.706 550.76 555.015 551.758 557.264L550.667 558.02ZM788.558 545.859L787.42 545.217C788.273 542.86 789.089 540.451 789.846 538.059L791.006 538.633C790.241 541.048 789.418 543.479 788.558 545.859ZM545.122 544.011C544.29 541.632 543.493 539.198 542.754 536.78L543.92 536.223C544.652 538.619 545.441 541.028 546.266 543.385L545.122 544.011ZM793.178 531.269L791.997 530.764C792.663 528.331 793.292 525.842 793.866 523.366L795.064 523.799C794.485 526.3 793.85 528.812 793.178 531.269ZM540.657 529.401C540.007 526.925 539.396 524.403 538.843 521.904L540.046 521.489C540.594 523.964 541.198 526.462 541.843 528.913L540.657 529.401ZM796.664 516.229L795.45 515.865C795.928 513.367 796.365 510.815 796.749 508.28L797.976 508.57C797.588 511.13 797.147 513.707 796.664 516.229ZM537.316 514.309C536.858 511.783 536.442 509.201 536.077 506.632L537.306 506.359C537.667 508.903 538.08 511.462 538.533 513.964L537.316 514.309ZM798.995 500.844L797.759 500.626C798.046 498.085 798.289 495.493 798.481 492.921L799.723 493.066C799.529 495.662 799.284 498.279 798.995 500.844ZM535.131 498.892C534.866 496.322 534.645 493.702 534.475 491.104L535.719 490.978C535.887 493.551 536.105 496.147 536.368 498.693L535.131 498.892ZM800.159 485.255L798.912 485.183C799.007 482.621 799.056 480.011 799.056 477.428H800.304C800.304 480.035 800.255 482.669 800.159 485.255ZM534.114 483.287C534.061 481.351 534.033 479.38 534.033 477.428C534.033 476.769 534.036 476.112 534.042 475.455L535.29 475.474C535.284 476.124 535.281 476.775 535.281 477.428C535.281 479.362 535.308 481.315 535.361 483.233L534.114 483.287ZM799.021 473.595C798.974 471.017 798.878 468.41 798.735 465.845L799.98 465.737C800.124 468.326 800.221 470.957 800.269 473.56L799.021 473.595ZM535.506 467.721L534.26 467.631C534.381 465.028 534.552 462.403 534.77 459.826L536.011 459.989C535.795 462.542 535.625 465.143 535.506 467.721ZM798.161 458.122C797.922 455.57 797.632 452.985 797.297 450.44L798.528 450.187C798.867 452.756 799.16 455.365 799.4 457.941L798.161 458.122ZM536.804 452.297L535.571 452.061C535.886 449.489 536.253 446.895 536.665 444.35L537.888 444.659C537.48 447.179 537.116 449.749 536.804 452.297ZM796.143 442.818C795.714 440.305 795.229 437.766 794.702 435.272L795.909 434.874C796.44 437.393 796.929 439.956 797.363 442.491L796.143 442.818ZM539.259 437.093L538.049 436.713C538.557 434.191 539.12 431.651 539.721 429.165L540.916 429.618C540.319 432.079 539.761 434.595 539.259 437.093ZM792.977 427.821C792.357 425.364 791.682 422.895 790.971 420.48L792.142 419.941C792.86 422.379 793.542 424.872 794.168 427.352L792.977 427.821ZM542.859 422.228L541.684 421.706C542.382 419.25 543.137 416.783 543.926 414.375L545.081 414.966C544.298 417.352 543.551 419.796 542.859 422.228ZM788.695 413.283C787.896 410.923 787.04 408.549 786.148 406.226L787.273 405.552C788.173 407.896 789.038 410.293 789.844 412.676L788.695 413.283ZM547.576 407.846L546.445 407.186C547.323 404.834 548.26 402.469 549.231 400.158L550.336 400.883C549.374 403.173 548.445 405.516 547.576 407.846ZM783.337 399.325C782.364 397.068 781.332 394.805 780.268 392.595L781.338 391.791C782.411 394.022 783.454 396.307 784.436 398.586L783.337 399.325ZM553.356 394.094L552.28 393.304C553.333 391.063 554.445 388.82 555.583 386.639L556.628 387.49C555.501 389.652 554.399 391.874 553.356 394.094ZM776.947 386.051C775.806 383.913 774.608 381.778 773.385 379.706L774.389 378.78C775.624 380.873 776.833 383.027 777.986 385.185L776.947 386.051ZM560.144 381.09L559.132 380.177C560.348 378.072 561.622 375.97 562.919 373.932L563.896 374.902C562.611 376.922 561.349 379.004 560.144 381.09ZM769.586 373.575C768.288 371.578 766.934 369.592 765.561 367.672L766.492 366.633C767.878 368.571 769.245 370.576 770.555 372.592L769.586 373.575ZM567.875 368.943L566.937 367.916C568.308 365.958 569.733 364.016 571.172 362.144L572.072 363.224C570.646 365.079 569.234 367.003 567.875 368.943ZM761.32 362.01C759.875 360.168 758.377 358.348 756.87 356.6L757.719 355.457C759.24 357.222 760.752 359.059 762.211 360.918L761.32 362.01ZM576.478 357.759L575.62 356.627C577.13 354.839 578.693 353.072 580.267 351.377L581.082 352.558C579.523 354.237 577.974 355.988 576.478 357.759ZM752.221 351.455C750.65 349.797 749.023 348.159 747.383 346.587L748.143 345.35C749.798 346.937 751.441 348.59 753.026 350.264L752.221 351.455ZM585.875 347.633L585.105 346.405C586.74 344.804 588.428 343.228 590.122 341.723L590.845 342.994C589.167 344.485 587.494 346.046 585.875 347.633ZM742.367 342.006C740.672 340.533 738.928 339.093 737.184 337.725L737.847 336.404C739.608 337.785 741.368 339.239 743.079 340.726L742.367 342.006ZM595.983 338.653L595.309 337.341C597.058 335.937 598.855 334.568 600.652 333.269L601.277 334.619C599.497 335.906 597.716 337.263 595.983 338.653ZM731.842 333.752C730.046 332.485 728.201 331.256 726.357 330.098L726.918 328.705C728.779 329.874 730.642 331.116 732.456 332.394L731.842 333.752ZM606.716 330.903L606.143 329.517C607.985 328.328 609.877 327.176 611.766 326.094L612.286 327.512C610.414 328.584 608.541 329.725 606.716 330.903ZM720.737 326.77C718.852 325.722 716.92 324.715 714.996 323.779L715.448 322.326C717.391 323.271 719.341 324.287 721.244 325.346L720.737 326.77ZM617.975 324.455L617.509 323.008C619.442 322.036 621.417 321.111 623.377 320.259L623.787 321.731C621.846 322.576 619.89 323.492 617.975 324.455ZM709.146 321.132C707.192 320.313 705.197 319.541 703.215 318.839L703.556 317.339C705.555 318.048 707.57 318.826 709.543 319.654L709.146 321.132ZM629.697 319.355L629.343 317.86C631.334 317.124 633.369 316.437 635.392 315.818L635.69 317.332C633.685 317.945 631.669 318.626 629.697 319.355ZM697.205 316.901C695.199 316.317 693.155 315.786 691.128 315.321L691.353 313.787C693.399 314.256 695.463 314.794 697.488 315.383L697.205 316.901ZM641.752 315.666L641.513 314.135C643.554 313.638 645.633 313.194 647.689 312.817L647.87 314.361C645.833 314.733 643.774 315.173 641.752 315.666ZM684.998 314.101C682.957 313.757 680.882 313.468 678.829 313.243L678.938 311.69C681.01 311.917 683.105 312.209 685.165 312.556L684.998 314.101ZM654.031 313.416L653.908 311.864C655.973 311.609 658.075 311.41 660.156 311.275L660.22 312.833C658.159 312.966 656.076 313.162 654.031 313.416ZM672.635 312.747C670.822 312.655 668.983 312.608 667.169 312.608C666.918 312.607 666.674 312.608 666.428 312.61L666.42 311.051C666.67 311.05 666.923 311.05 667.169 311.048C669 311.048 670.856 311.096 672.685 311.189L672.635 312.747Z" fill="#9192FF"/>
<path d="M127.036 461.357C124.942 461.342 122.831 461.234 120.762 461.035L120.858 459.48C122.897 459.676 124.979 459.782 127.044 459.798L127.036 461.357ZM133.314 461.125L133.233 459.569C135.283 459.403 137.356 459.142 139.393 458.793L139.562 460.339C137.496 460.692 135.394 460.957 133.314 461.125ZM114.522 460.158C112.454 459.773 110.377 459.29 108.347 458.722L108.619 457.201C110.621 457.76 112.668 458.236 114.706 458.616L114.522 460.158ZM145.75 458.993L145.492 457.468C147.502 456.938 149.523 456.308 151.499 455.597L151.844 457.096C149.839 457.817 147.789 458.455 145.75 458.993ZM102.271 456.735C100.271 455.983 98.2676 455.131 96.317 454.201L96.7617 452.744C98.6844 453.66 100.659 454.501 102.63 455.242L102.271 456.735ZM157.813 454.653L157.383 453.189C159.308 452.304 161.233 451.319 163.105 450.261L163.62 451.682C161.72 452.755 159.767 453.755 157.813 454.653ZM90.5268 451.137C88.6371 450.034 86.7538 448.831 84.9294 447.56L85.5373 446.198C87.3358 447.451 89.1916 448.637 91.0544 449.723L90.5268 451.137ZM169.24 448.197L168.646 446.826C170.45 445.604 172.244 444.284 173.978 442.9L174.65 444.214C172.891 445.618 171.071 446.958 169.24 448.197ZM79.5531 443.492C77.8096 442.064 76.084 440.536 74.4248 438.954L75.182 437.714C76.8182 439.275 78.5193 440.78 80.2379 442.188L79.5531 443.492ZM179.817 439.759L179.072 438.507C180.721 436.974 182.347 435.347 183.904 433.671L184.719 434.853C183.139 436.552 181.49 438.203 179.817 439.759ZM69.5696 433.971C68.0078 432.248 66.4739 430.431 65.0114 428.57L65.9014 427.477C67.3434 429.311 68.8553 431.104 70.3952 432.802L69.5696 433.971ZM189.328 429.522L188.449 428.416C189.907 426.604 191.332 424.704 192.683 422.768L193.623 423.793C192.253 425.757 190.808 427.685 189.328 429.522ZM60.7726 422.777C59.4204 420.791 58.1092 418.721 56.8758 416.623L57.8816 415.699C59.0975 417.767 60.3898 419.808 61.723 421.766L60.7726 422.777ZM197.582 417.696L196.586 416.757C197.824 414.704 199.019 412.569 200.135 410.413L201.183 411.26C200.05 413.447 198.838 415.613 197.582 417.696ZM53.3413 410.139C52.2302 407.936 51.169 405.654 50.1872 403.357L51.2878 402.622C52.2552 404.886 53.3019 407.135 54.397 409.308L53.3413 410.139ZM204.406 404.517L203.313 403.766C204.305 401.511 205.242 399.184 206.101 396.85L207.234 397.501C206.364 399.869 205.413 402.23 204.406 404.517ZM47.4314 396.311C46.5844 393.932 45.7962 391.484 45.0889 389.038L46.2629 388.508C46.9597 390.919 47.7364 393.331 48.5715 395.677L47.4314 396.311ZM209.652 390.247L208.483 389.7C209.205 387.293 209.865 384.824 210.445 382.361L211.642 382.801C211.053 385.3 210.384 387.805 209.652 390.247ZM43.1697 381.564C42.6047 379.055 42.106 376.489 41.6872 373.937L42.9096 373.624C43.3219 376.139 43.8136 378.668 44.3706 381.141L43.1697 381.564ZM213.196 375.196L211.977 374.865C212.413 372.357 212.782 369.795 213.073 367.25L214.309 367.472C214.013 370.053 213.638 372.652 213.196 375.196ZM40.6485 366.196C40.3779 363.616 40.1783 360.988 40.0555 358.384L41.3014 358.292C41.4227 360.86 41.6193 363.451 41.8859 365.994L40.6485 366.196ZM214.974 359.668L213.729 359.558C213.874 357.001 213.948 354.399 213.948 351.826H215.195C215.195 354.435 215.121 357.074 214.974 359.668ZM41.1541 350.555L39.9062 350.537C39.9302 347.927 40.0295 345.289 40.2003 342.698L41.4436 342.826C41.2754 345.382 41.1781 347.982 41.1541 350.555ZM213.85 346.632C213.752 344.059 213.58 341.466 213.337 338.922L214.576 338.737C214.822 341.318 214.997 343.949 215.096 346.558L213.85 346.632ZM42.1734 335.143L40.94 334.905C41.2599 332.327 41.6588 329.734 42.125 327.197L43.3409 327.546C42.8817 330.047 42.4889 332.603 42.1734 335.143ZM212.385 331.277C211.996 328.755 211.529 326.219 210.996 323.738L212.201 323.334C212.742 325.851 213.216 328.425 213.61 330.983L212.385 331.277ZM44.9447 320.073L43.7517 319.616C44.3651 317.12 45.0595 314.622 45.8147 312.191L46.9777 312.755C46.2335 315.151 45.5491 317.614 44.9447 320.073ZM209.175 316.344C208.5 313.921 207.747 311.498 206.935 309.142L208.081 308.525C208.905 310.916 209.669 313.373 210.354 315.832L209.175 316.344ZM49.429 305.64L48.3014 304.973C49.1944 302.618 50.1682 300.271 51.196 297.999L52.2826 298.766C51.2694 301.007 50.309 303.319 49.429 305.64ZM204.284 302.157C203.338 299.878 202.313 297.613 201.238 295.426L202.302 294.61C203.392 296.829 204.431 299.126 205.391 301.438L204.284 302.157ZM55.5226 292.168L54.4829 291.305C55.6364 289.134 56.8683 286.987 58.1441 284.922L59.1319 285.876C57.8746 287.911 56.6597 290.028 55.5226 292.168ZM197.815 288.984C196.617 286.897 195.344 284.837 194.031 282.861L194.99 281.865C196.323 283.868 197.615 285.958 198.829 288.075L197.815 288.984ZM63.0907 279.923L62.1603 278.885C63.5494 276.941 65.0124 275.035 66.5088 273.22L67.3779 274.339C65.9029 276.128 64.4603 278.007 63.0907 279.923ZM189.906 277.09C188.483 275.235 186.988 273.422 185.463 271.699L186.3 270.542C187.847 272.289 189.363 274.129 190.807 276.01L189.906 277.09ZM71.972 269.151L71.1689 267.957C72.7637 266.281 74.4278 264.655 76.1159 263.123L76.8492 264.385C75.185 265.895 73.5443 267.499 71.972 269.151ZM180.723 266.717C179.102 265.133 177.415 263.603 175.71 262.169L176.406 260.875C178.136 262.33 179.847 263.881 181.492 265.488L180.723 266.717ZM81.9844 260.07L81.3255 258.745C83.0955 257.37 84.9274 256.057 86.7713 254.844L87.3528 256.224C85.5354 257.42 83.7289 258.713 81.9844 260.07ZM170.449 258.082C168.663 256.803 166.819 255.589 164.966 254.475L165.507 253.069C167.387 254.2 169.258 255.431 171.069 256.729L170.449 258.082ZM92.9257 252.87L92.4251 251.442C94.3328 250.398 96.295 249.428 98.2586 248.558L98.6754 250.028C96.7402 250.885 94.8055 251.841 92.9257 252.87ZM159.287 251.37C157.374 250.425 155.408 249.555 153.443 248.785L153.817 247.297C155.81 248.078 157.804 248.96 159.746 249.919L159.287 251.37ZM104.581 247.708L104.25 246.205C106.258 245.514 108.315 244.907 110.362 244.397L110.606 245.926C108.588 246.428 106.561 247.027 104.581 247.708ZM147.474 246.737C145.474 246.147 143.431 245.641 141.401 245.232L141.599 243.693C143.658 244.107 145.731 244.621 147.76 245.219L147.474 246.737ZM116.717 244.692L116.562 243.145C118.626 242.822 120.731 242.589 122.817 242.449L122.883 244.006C120.827 244.144 118.753 244.374 116.717 244.692ZM135.258 244.276C133.214 244.05 131.134 243.913 129.076 243.869L129.097 242.309C131.185 242.355 133.295 242.494 135.368 242.723L135.258 244.276Z" fill="#9192FF"/>
<path d="M478.506 89.2501C466.896 89.2501 457.449 77.4455 457.449 62.9357C457.449 48.4258 466.896 36.6206 478.506 36.6206C490.117 36.6206 499.563 48.4251 499.563 62.9357C499.563 77.4455 490.116 89.2501 478.506 89.2501ZM478.506 37.7902C467.411 37.7902 458.385 49.0701 458.385 62.9357C458.385 76.8006 467.411 88.0805 478.506 88.0805C489.601 88.0805 498.627 76.8006 498.627 62.9357C498.627 49.0701 489.601 37.7902 478.506 37.7902Z" fill="#9192FF"/>
<path d="M697.587 183.711V657.898C697.587 667.77 691.186 675.77 683.299 675.77H131.89C123.991 675.77 117.59 667.77 117.59 657.898V183.711C117.59 173.84 123.991 165.84 131.89 165.84H683.299C691.186 165.84 697.587 173.84 697.587 183.711Z" fill="white"/>
<path d="M683.298 676.549H131.889C123.66 676.549 116.965 668.182 116.965 657.898V183.711C116.965 173.427 123.66 165.06 131.889 165.06H683.298C691.52 165.06 698.21 173.427 698.21 183.711V657.898C698.21 668.182 691.52 676.549 683.298 676.549ZM131.889 166.62C124.348 166.62 118.213 174.287 118.213 183.711V657.898C118.213 667.322 124.348 674.99 131.889 674.99H683.298C690.833 674.99 696.962 667.322 696.962 657.898V183.711C696.962 174.287 690.833 166.62 683.298 166.62H131.889Z" fill="#9192FF"/>
<path d="M697.587 183.711V211.844H117.59V183.711C117.59 173.84 123.991 165.84 131.89 165.84H683.299C691.186 165.84 697.587 173.84 697.587 183.711Z" fill="white"/>
<path d="M698.21 212.624H116.965V183.711C116.965 173.427 123.66 165.06 131.889 165.06H683.298C691.52 165.06 698.21 173.427 698.21 183.711V212.624ZM118.213 211.064H696.962V183.711C696.962 174.287 690.833 166.62 683.298 166.62H131.889C124.348 166.62 118.213 174.287 118.213 183.711V211.064Z" fill="#9192FF"/>
<path d="M149.792 197.159C153.467 197.159 156.447 193.435 156.447 188.842C156.447 184.248 153.467 180.525 149.792 180.525C146.116 180.525 143.137 184.248 143.137 188.842C143.137 193.435 146.116 197.159 149.792 197.159Z" fill="#3335CF"/>
<path d="M175.165 180.525C171.496 180.525 168.51 184.256 168.51 188.842C168.51 193.428 171.495 197.159 175.165 197.159C178.836 197.159 181.821 193.429 181.821 188.842C181.821 184.256 178.835 180.525 175.165 180.525Z" fill="#3335CF"/>
<path d="M200.538 197.159C196.868 197.159 193.883 193.428 193.883 188.842C193.883 184.256 196.868 180.525 200.538 180.525C204.208 180.525 207.193 184.256 207.193 188.842C207.194 193.428 204.208 197.159 200.538 197.159ZM200.538 182.084C197.556 182.084 195.131 185.116 195.131 188.842C195.131 192.568 197.557 195.599 200.538 195.599C203.519 195.599 205.945 192.568 205.945 188.842C205.946 185.116 203.52 182.084 200.538 182.084Z" fill="#9192FF"/>
<path d="M364.296 198.101H240.601C236.515 198.101 233.191 193.948 233.191 188.842C233.191 183.736 236.515 179.583 240.601 179.583H364.296C368.382 179.583 371.705 183.736 371.705 188.842C371.705 193.948 368.381 198.101 364.296 198.101ZM240.601 181.142C237.204 181.142 234.439 184.597 234.439 188.842C234.439 193.087 237.204 196.542 240.601 196.542H364.296C367.693 196.542 370.458 193.087 370.458 188.842C370.458 184.597 367.693 181.142 364.296 181.142H240.601Z" fill="#9192FF"/>
<path d="M521.595 432.508C521.595 507.175 473.165 567.714 413.417 567.714C353.669 567.714 305.227 507.175 305.227 432.508C305.227 362.457 347.866 304.85 402.473 297.989L406.079 342.356C369.492 346.956 340.928 385.568 340.928 432.508C340.928 482.552 373.385 523.113 413.417 523.113C453.449 523.113 485.893 482.552 485.893 432.508C485.893 423.775 484.907 415.339 483.06 407.354L517.364 394.972C520.122 406.886 521.595 419.487 521.595 432.508Z" fill="#9192FF"/>
<path d="M413.413 541.668C461.656 541.668 500.764 492.795 500.764 432.506C500.764 372.217 461.656 323.343 413.413 323.343C365.171 323.343 326.062 372.217 326.062 432.506C326.062 492.795 365.171 541.668 413.413 541.668Z" fill="white"/>
<path opacity="0.5" d="M413.413 541.668C461.656 541.668 500.764 492.795 500.764 432.506C500.764 372.217 461.656 323.343 413.413 323.343C365.171 323.343 326.062 372.217 326.062 432.506C326.062 492.795 365.171 541.668 413.413 541.668Z" fill="#D1D1FF"/>
<path d="M413.414 509.846C447.584 509.846 475.285 475.219 475.285 432.506C475.285 389.792 447.584 355.166 413.414 355.166C379.244 355.166 351.543 389.792 351.543 432.506C351.543 475.219 379.244 509.846 413.414 509.846Z" fill="white"/>
<path d="M420.475 470.538V482.295H408.523V471.068C400.049 470.434 391.83 467.571 386.744 463.654L393.183 445.431C398.779 449.563 406.232 452.211 412.76 452.211C418.439 452.211 420.475 450.727 420.475 448.183C420.475 438.862 387.676 446.384 387.676 418.733C387.676 406.76 394.625 396.698 408.522 394.261V382.714H420.475V394.049C426.74 394.791 432.847 396.805 437.678 400.195L431.661 418.31C425.809 414.601 420.302 412.803 415.134 412.803C409.282 412.803 407.419 414.92 407.419 417.46C407.419 426.363 440.218 418.944 440.218 446.276C440.218 457.72 433.607 467.678 420.475 470.538Z" fill="#9192FF"/>
<path d="M798.53 73.3359H563.176V253.18H798.53V73.3359Z" fill="white"/>
<path d="M799.155 253.96H562.553V72.5562H799.155V253.96ZM563.801 252.401H797.908V74.1156H563.801V252.401Z" fill="#9192FF"/>
<path d="M606.353 195.935H592.807V227.022H606.353V195.935Z" fill="#D1D1FF"/>
<path d="M633.444 181.73H619.898V227.022H633.444V181.73Z" fill="#D1D1FF"/>
<path d="M660.536 193.342H646.99V227.022H660.536V193.342Z" fill="#D1D1FF"/>
<path d="M687.628 169.643H674.082V227.022H687.628V169.643Z" fill="#D1D1FF"/>
<path d="M714.72 154.485H701.174V227.022H714.72V154.485Z" fill="#D1D1FF"/>
<path d="M741.811 132.835H728.266V227.022H741.811V132.835Z" fill="#D1D1FF"/>
<path d="M768.903 99.4941H755.357V227.022H768.903V99.4941Z" fill="#D1D1FF"/>
<path d="M603.571 114.627H592.807V129.86H603.571V114.627Z" fill="#D1D1FF"/>
<path d="M693.113 121.676H620.207V125.581H693.113V121.676Z" fill="#D1D1FF"/>
<path d="M586.757 344.362L571.851 292.906C555.011 300.527 542.977 320.686 542.977 344.362C542.977 374.579 562.578 399.075 586.757 399.075C610.937 399.075 630.539 374.579 630.539 344.362C630.539 335.269 628.754 326.702 625.613 319.157L586.757 344.362Z" fill="#EBEBFF"/>
<path d="M631.436 299.664C624.14 282.135 609.484 270.155 592.58 270.155C587.346 270.155 582.327 271.307 577.674 273.413L592.58 324.868L631.436 299.664Z" fill="#9192FF"/>
<path d="M648.731 519.698H545.158V642.896H648.731V519.698Z" fill="#EBEBFF"/>
<path d="M619.407 552.447H561.381V557.649H619.407V552.447Z" fill="white"/>
<path d="M619.407 568.042H561.381V573.244H619.407V568.042Z" fill="white"/>
<path d="M253.373 284.219H163.309V474.474H253.373V284.219Z" fill="#EBEBFF"/>
<path d="M236.101 311.77H177.035V379.347H236.101V311.77Z" fill="white"/>
<path d="M177.475 311.21L176.633 312.36L235.7 379.942L236.543 378.791L177.475 311.21Z" fill="#EBEBFF"/>
<path d="M235.657 311.207L176.598 378.789L177.44 379.939L236.5 312.357L235.657 311.207Z" fill="#EBEBFF"/>
<path d="M206.6 361.924H0.595703V531.549H206.6V361.924Z" fill="white"/>
<path d="M207.196 532.294H0V361.18H207.196V532.294ZM1.19147 530.805H206.004V362.669H1.19147V530.805Z" fill="#9192FF"/>
<path d="M22.3008 490.588L35.6116 459.399L63.0647 491.628L81.3664 425.091L115.475 471.875L137.937 460.439L178.7 393.901" fill="white"/>
<path d="M63.3405 493.022L35.7781 460.664L22.8511 490.955L21.75 490.221L35.4441 458.133L62.7879 490.234L81.1187 423.593L115.643 470.948L137.544 459.797L178.205 393.428L179.196 394.375L138.329 461.08L115.307 472.802L115.014 472.4L81.6143 426.588L63.3405 493.022Z" fill="#9192FF"/>
<path d="M35.7148 463.558C37.6101 463.558 39.1465 461.637 39.1465 459.269C39.1465 456.901 37.6101 454.98 35.7148 454.98C33.8196 454.98 32.2832 456.901 32.2832 459.269C32.2832 461.637 33.8196 463.558 35.7148 463.558Z" fill="#9192FF"/>
<path d="M62.8574 495.137C64.7527 495.137 66.2891 493.217 66.2891 490.848C66.2891 488.48 64.7527 486.56 62.8574 486.56C60.9622 486.56 59.4258 488.48 59.4258 490.848C59.4258 493.217 60.9622 495.137 62.8574 495.137Z" fill="#9192FF"/>
<path d="M81.5742 429.639C83.4695 429.639 85.0059 427.719 85.0059 425.351C85.0059 422.982 83.4695 421.062 81.5742 421.062C79.679 421.062 78.1426 422.982 78.1426 425.351C78.1426 427.719 79.679 429.639 81.5742 429.639Z" fill="#9192FF"/>
<path d="M147.273 388.963H59.9219V390.522H147.273V388.963Z" fill="#9192FF"/>
<path d="M490.391 771.94C486.698 741.697 491.774 709.902 504.469 683.745C517.164 657.588 537.382 637.27 560.549 627.387C547.43 638.862 539.422 657.41 533.835 676.164C528.248 694.918 524.582 714.602 517.687 732.664C510.793 750.725 499.924 767.601 484.852 774.358L490.391 771.94Z" fill="#9192FF"/>
<path d="M486.766 772.19C486.242 737.238 480.81 702.409 470.792 669.77C467.234 658.182 462.968 646.612 456.032 637.728C449.096 628.843 439.008 622.989 429.229 625.16C441.408 636.551 447.716 655.29 451.268 673.776C454.821 692.261 456.189 711.441 461.192 729.395C466.195 747.349 475.763 764.654 490.083 771.071L486.766 772.19Z" fill="#9192FF"/>
<path d="M484.856 774.482C477.893 751.049 470.325 727.026 456.323 709.176C442.321 691.326 420.138 681.109 401.801 691.092C416.65 695.301 430.259 706.046 439.677 720.998C446.583 731.964 451.229 744.964 458.332 755.733C465.435 766.5 476.27 775.174 487.246 772.606L484.856 774.482Z" fill="#D1D1FF"/>
<path d="M482.631 772.88C479.778 747.164 476.924 721.033 479.93 695.343C482.937 669.654 492.656 644.005 510.072 629.851C500.432 641.664 497.214 659.558 497.21 676.431C497.205 693.304 499.938 710.022 500.17 726.892C500.401 743.763 497.72 761.685 488.588 774.113L482.631 772.88Z" fill="#D1D1FF"/>
<path d="M492.266 769.134C498.94 747.881 506.055 725.815 519.647 710.56C528.375 700.765 539.492 694.341 551.117 692.375C542.967 700.502 537.863 712.411 533.63 724.319C529.397 736.226 525.744 748.629 519.616 759.17C513.488 769.712 504.279 778.385 493.862 778.941L492.266 769.134Z" fill="#D1D1FF"/>
<path d="M526.158 833.8H451.195L439.637 761.733H537.716L526.158 833.8Z" fill="white"/>
<path d="M526.671 834.579H450.684L438.877 760.953H538.478L526.671 834.579ZM451.707 833.02H525.648L536.955 762.513H440.399L451.707 833.02Z" fill="#9192FF"/>
<path d="M315.554 578.174H228.744V585.477H315.554V578.174Z" fill="#9192FF"/>
<path d="M315.549 578.178H242.236L270.001 493.577H343.314L315.549 578.178Z" fill="white"/>
<path d="M315.968 578.958H241.307L269.583 492.797H344.244L315.968 578.958ZM243.167 577.398H315.131L342.385 494.357H270.42L243.167 577.398Z" fill="#9192FF"/>
<path d="M309.221 571.067H251.605L273.426 504.581H331.041L309.221 571.067Z" fill="#EBEBFF"/>
<path d="M286.363 587.814H285.115V834.196H286.363V587.814Z" fill="#1B1B43"/>
<path d="M355.759 585.485H215.721V599.404H355.759V585.485Z" fill="#D1D1FF"/>
<path d="M102.713 691.307H101.465V834.195H102.713V691.307Z" fill="#1B1B43"/>
<path d="M136.335 697.934H67.8418C69.2958 689.245 75.4263 683.02 82.5302 683.02H121.646C128.75 683.02 134.881 689.244 136.335 697.934Z" fill="#D1D1FF"/>
<path d="M119.868 833.779H84.3086C84.3086 828.376 87.8136 823.996 92.1372 823.996H112.04C116.363 823.995 119.868 828.376 119.868 833.779Z" fill="#D1D1FF"/>
<path d="M154.933 479.299C156.685 482.446 159.197 486.903 159.475 490.798C159.878 496.46 152.628 492.491 152.543 492.98C152.542 492.979 154.933 479.299 154.933 479.299Z" fill="#D28572"/>
<path d="M143.86 485.962H120.938V527.944H143.86V485.962Z" fill="#FFBC96"/>
<path d="M143.86 493.164V523.136C136.637 517.466 130.393 509.043 124.996 499.322L143.86 493.164Z" fill="#1B1B43"/>
<path d="M156.745 481.848C156.031 496.351 151.566 512.756 139.381 508.709C129.81 505.53 119.275 495.458 119.275 480.928C119.275 466.398 127.322 454.62 137.249 454.62C143.453 454.62 151.264 458.383 154.94 465.651C157.146 470.011 157.056 475.524 156.745 481.848Z" fill="#FFBC96"/>
<path d="M136.457 477.641C139.702 466.885 147.13 465.828 147.13 465.828C147.13 465.828 164.329 487.087 163.264 465.122C162.417 447.667 148.766 449.316 148.766 449.316C142.097 438.466 131.401 442.712 127.5 449.002C123.599 455.292 124.984 451.676 115.798 455.764C106.612 459.852 111.52 477.308 109.884 478.565C97.6782 478.565 99.9433 493.661 99.9433 493.661L128.838 505.44L135.798 481.695L136.457 477.641Z" fill="#1B1B43"/>
<path d="M139.468 478.872C141.255 482.739 140.772 487.267 138.389 488.987C136.007 490.706 132.627 488.964 130.84 485.097C129.054 481.229 129.536 476.701 131.919 474.982C134.302 473.263 137.682 475.004 139.468 478.872Z" fill="#FFBC96"/>
<path d="M135.779 483.531C135.372 482.551 135.031 481.598 134.483 480.931C134.215 480.595 133.904 480.321 133.55 480.082C133.196 479.843 132.802 479.643 132.398 479.405L132.46 478.999C132.919 478.968 133.383 479.035 133.839 479.226C134.295 479.413 134.737 479.744 135.084 480.193C135.432 480.641 135.684 481.18 135.841 481.735C136.001 482.29 136.087 482.859 136.1 483.43L135.779 483.531Z" fill="#1B1B43"/>
<path d="M124.979 457.548C130.336 457.231 134.456 451.094 134.181 443.84C133.906 436.587 129.341 430.964 123.983 431.281C118.626 431.598 114.506 437.735 114.781 444.989C115.056 452.242 119.621 457.865 124.979 457.548Z" fill="#1B1B43"/>
<path opacity="0.2" d="M146.778 495.526C149.19 495.526 151.145 493.082 151.145 490.068C151.145 487.054 149.19 484.61 146.778 484.61C144.366 484.61 142.41 487.054 142.41 490.068C142.41 493.082 144.366 495.526 146.778 495.526Z" fill="#FE5B52"/>
<path d="M163.934 631.2L90.5215 619.504L104.36 528.322C105.334 521.944 108.728 516.533 113.457 513.85C117.401 511.605 121.905 511.464 125.949 513.445L150.968 527.34C155.785 530.006 159.104 535.667 159.703 542.201L161.113 571.987L162.723 605.75L163.934 631.2Z" fill="#8A4FFF"/>
<path d="M231.11 565.703L250.541 558.565C251.941 558.05 253.446 558.333 254.662 559.341C259.98 563.753 274.138 576.238 270.563 581.343C268.779 583.892 252.531 577.918 252.531 577.918L229.006 586.122L231.11 565.703Z" fill="#FFBC96"/>
<path d="M162.722 605.75C156.607 596.019 152.976 583.169 151.766 567.262L161.112 571.987L162.722 605.75Z" fill="#1B1B43"/>
<path d="M148.752 526.196L151.677 527.772C157.698 531.016 163.095 535.833 167.503 541.9L191.595 575.059L231.111 565.703L236.311 592.213L186.659 611.606C182.738 612.478 178.732 610.788 176.038 607.124L140.225 558.425L148.752 526.196Z" fill="#8A4FFF"/>
<path d="M191.136 575.587C191.019 575.427 179.264 559.433 169.084 545.169C159.02 531.067 143.677 524.211 143.523 524.144L143.937 522.672C144.094 522.741 159.733 529.722 170.016 544.131C180.19 558.387 191.938 574.372 192.055 574.532L191.136 575.587Z" fill="#1B1B43"/>
<path d="M143.16 563.568L142.264 564.654L175.582 607.632L176.478 606.546L143.16 563.568Z" fill="#1B1B43"/>
<path d="M161.273 769.116L145.436 807.668L185.443 833.335L174.797 802.91L183.484 778.799L161.273 769.116Z" fill="#D1D1FF"/>
<path d="M174.635 802.153L163.268 806.335L163.62 807.831L174.987 803.649L174.635 802.153Z" fill="#1B1B43"/>
<path d="M186.188 794.452L149.945 777.553L174.764 681.041C179.031 666.75 192.174 659.68 204.119 665.25C216.064 670.82 222.289 686.92 218.023 701.211L186.188 794.452Z" fill="#561F37"/>
<path d="M221.336 787.926L224.874 833.799H269.845L249.256 812.808L244.422 786.367L221.336 787.926Z" fill="#D1D1FF"/>
<path d="M248.952 812.085L238.293 819.429L238.895 820.794L249.554 813.45L248.952 812.085Z" fill="#1B1B43"/>
<path d="M253.781 793.384L214.473 801.182L187.556 702.265L182.652 684.222L115.804 684.892C99.2694 685.36 86.1168 667.66 87.7391 647.075L90.5218 619.504L156.659 629.906L200.122 635.878C218.216 639.777 223.769 653.469 227.538 671.06L253.781 793.384Z" fill="#893158"/>
<path d="M187.556 702.265L182.652 684.222L191.699 683.832C192.535 690.631 190.377 698.226 187.556 702.265Z" fill="#1B1B43"/>
<path d="M784.125 833.02H26.668V834.579H784.125V833.02Z" fill="#1B1B43"/>
</svg>
