<svg width="135" height="27" viewBox="0 0 135 27" fill="none" xmlns="http://www.w3.org/2000/svg">
<path d="M12.5633 2.50494C12.8873 1.6386 14.1127 1.6386 14.4367 2.50494L16.6009 8.29296C16.7415 8.66881 17.0931 8.92425 17.4939 8.94177L23.6675 9.21152C24.5915 9.2519 24.9702 10.4173 24.2464 10.9932L19.4104 14.8401C19.0964 15.0899 18.9621 15.5032 19.0693 15.8899L20.7205 21.8446C20.9677 22.7359 19.9763 23.4562 19.205 22.9457L14.0519 19.5353C13.7173 19.3138 13.2827 19.3138 12.9481 19.5353L7.79504 22.9457C7.02374 23.4562 6.03235 22.7359 6.27949 21.8446L7.93066 15.8899C8.03788 15.5032 7.90359 15.0899 7.58957 14.8401L2.75364 10.9932C2.0298 10.4173 2.40847 9.2519 3.33252 9.21152L9.50605 8.94177C9.90693 8.92425 10.2585 8.66881 10.3991 8.29296L12.5633 2.50494Z" fill="#7B61FF"/>
<path d="M39.5633 2.50494C39.8873 1.6386 41.1127 1.6386 41.4367 2.50494L43.6009 8.29296C43.7415 8.66881 44.0931 8.92425 44.4939 8.94177L50.6675 9.21152C51.5915 9.2519 51.9702 10.4173 51.2464 10.9932L46.4104 14.8401C46.0964 15.0899 45.9621 15.5032 46.0693 15.8899L47.7205 21.8446C47.9677 22.7359 46.9763 23.4562 46.205 22.9457L41.0519 19.5353C40.7173 19.3138 40.2827 19.3138 39.9481 19.5353L34.795 22.9457C34.0237 23.4562 33.0323 22.7359 33.2795 21.8446L34.9307 15.8899C35.0379 15.5032 34.9036 15.0899 34.5896 14.8401L29.7536 10.9932C29.0298 10.4173 29.4085 9.2519 30.3325 9.21152L36.5061 8.94177C36.9069 8.92425 37.2585 8.66881 37.3991 8.29296L39.5633 2.50494Z" fill="#7B61FF"/>
<path d="M66.5633 2.50494C66.8873 1.6386 68.1127 1.6386 68.4367 2.50494L70.6009 8.29296C70.7415 8.66881 71.0931 8.92425 71.4939 8.94177L77.6675 9.21152C78.5915 9.2519 78.9702 10.4173 78.2464 10.9932L73.4104 14.8401C73.0964 15.0899 72.9621 15.5032 73.0693 15.8899L74.7205 21.8446C74.9677 22.7359 73.9763 23.4562 73.205 22.9457L68.0519 19.5353C67.7173 19.3138 67.2827 19.3138 66.9481 19.5353L61.795 22.9457C61.0237 23.4562 60.0323 22.7359 60.2795 21.8446L61.9307 15.8899C62.0379 15.5032 61.9036 15.0899 61.5896 14.8401L56.7536 10.9932C56.0298 10.4173 56.4085 9.2519 57.3325 9.21152L63.5061 8.94177C63.9069 8.92425 64.2585 8.66881 64.3991 8.29296L66.5633 2.50494Z" fill="#7B61FF"/>
<path d="M93.5633 2.50494C93.8873 1.6386 95.1127 1.6386 95.4367 2.50494L97.6009 8.29296C97.7415 8.66881 98.0931 8.92425 98.4939 8.94177L104.667 9.21152C105.592 9.2519 105.97 10.4173 105.246 10.9932L100.41 14.8401C100.096 15.0899 99.9621 15.5032 100.069 15.8899L101.721 21.8446C101.968 22.7359 100.976 23.4562 100.205 22.9457L95.0519 19.5353C94.7173 19.3138 94.2827 19.3138 93.9481 19.5353L88.795 22.9457C88.0237 23.4562 87.0323 22.7359 87.2795 21.8446L88.9307 15.8899C89.0379 15.5032 88.9036 15.0899 88.5896 14.8401L83.7536 10.9932C83.0298 10.4173 83.4085 9.2519 84.3325 9.21152L90.5061 8.94177C90.9069 8.92425 91.2585 8.66881 91.3991 8.29296L93.5633 2.50494Z" fill="#7B61FF"/>
<path d="M121.032 2.68006C121.194 2.24689 121.806 2.24689 121.968 2.68006L124.133 8.46808C124.343 9.03185 124.871 9.41502 125.472 9.44129L131.646 9.71105C132.108 9.73124 132.297 10.314 131.935 10.6019L127.099 14.4488C126.628 14.8235 126.427 15.4435 126.588 16.0235L128.239 21.9782C128.362 22.4239 127.867 22.784 127.481 22.5288L122.328 19.1183C121.826 18.7861 121.174 18.7861 120.672 19.1183L115.519 22.5288C115.133 22.784 114.638 22.4239 114.761 21.9782L116.412 16.0235C116.573 15.4435 116.372 14.8235 115.901 14.4488L111.065 10.6019C110.703 10.314 110.892 9.73124 111.354 9.71105L117.528 9.44129C118.129 9.41502 118.657 9.03185 118.867 8.46808L121.032 2.68006Z" stroke="#7B61FF"/>
</svg>
