<svg width="24" height="24" viewBox="0 0 24 24" fill="none" xmlns="http://www.w3.org/2000/svg">
<path d="M15 7H9M15 11H9M15 15H11M5 3H19V21L17.968 20.116C17.6055 19.8053 17.1439 19.6346 16.6665 19.6346C16.1891 19.6346 15.7275 19.8053 15.365 20.116L14.333 21L13.302 20.116C12.9395 19.8051 12.4776 19.6342 12 19.6342C11.5224 19.6342 11.0605 19.8051 10.698 20.116L9.667 21L8.635 20.116C8.27253 19.8053 7.81088 19.6346 7.3335 19.6346C6.85611 19.6346 6.39447 19.8053 6.032 20.116L5 21V3Z" stroke="#FFFFFF" stroke-width="2" stroke-linecap="round" stroke-linejoin="round"/>
</svg>
