<svg width="20" height="20" viewBox="0 0 20 20" fill="none" xmlns="http://www.w3.org/2000/svg">
<path d="M18.0435 10.6604C17.8831 10.4779 17.7947 10.2433 17.7947 10.0004C17.7947 9.75747 17.8831 9.52287 18.0435 9.34038L19.3235 7.90038C19.4645 7.74305 19.5521 7.54509 19.5736 7.33489C19.5952 7.12469 19.5496 6.91307 19.4435 6.73038L17.4435 3.27038C17.3384 3.0879 17.1783 2.94326 16.9862 2.85707C16.7941 2.77088 16.5796 2.74754 16.3735 2.79038L14.4935 3.17038C14.2542 3.21981 14.0052 3.17997 13.7933 3.05838C13.5815 2.93679 13.4214 2.74187 13.3435 2.51038L12.7335 0.680383C12.6664 0.481762 12.5386 0.309248 12.3681 0.187225C12.1976 0.0652023 11.9931 -0.000157766 11.7835 0.000383396H7.78345C7.56538 -0.0109986 7.34959 0.0493098 7.16902 0.172097C6.98845 0.294885 6.85303 0.473403 6.78345 0.680383L6.22345 2.51038C6.14545 2.74187 5.98542 2.93679 5.77356 3.05838C5.5617 3.17997 5.31267 3.21981 5.07345 3.17038L3.14345 2.79038C2.948 2.76276 2.74875 2.79361 2.5708 2.87902C2.39285 2.96444 2.24415 3.10061 2.14345 3.27038L0.143451 6.73038C0.034611 6.91103 -0.0143269 7.12147 0.00363355 7.33161C0.021594 7.54174 0.105533 7.74082 0.243451 7.90038L1.51345 9.34038C1.67377 9.52287 1.76219 9.75747 1.76219 10.0004C1.76219 10.2433 1.67377 10.4779 1.51345 10.6604L0.243451 12.1004C0.105533 12.2599 0.021594 12.459 0.00363355 12.6692C-0.0143269 12.8793 0.034611 13.0897 0.143451 13.2704L2.14345 16.7304C2.24855 16.9129 2.40857 17.0575 2.6007 17.1437C2.79284 17.2299 3.00728 17.2532 3.21345 17.2104L5.09345 16.8304C5.33267 16.781 5.5817 16.8208 5.79356 16.9424C6.00542 17.064 6.16545 17.2589 6.24345 17.4904L6.85345 19.3204C6.92303 19.5274 7.05845 19.7059 7.23902 19.8287C7.41959 19.9515 7.63538 20.0118 7.85345 20.0004H11.8535C12.0631 20.0009 12.2676 19.9356 12.4381 19.8135C12.6086 19.6915 12.7364 19.519 12.8035 19.3204L13.4135 17.4904C13.4915 17.2589 13.6515 17.064 13.8633 16.9424C14.0752 16.8208 14.3242 16.781 14.5635 16.8304L16.4435 17.2104C16.6496 17.2532 16.8641 17.2299 17.0562 17.1437C17.2483 17.0575 17.4084 16.9129 17.5135 16.7304L19.5135 13.2704C19.6196 13.0877 19.6652 12.8761 19.6436 12.6659C19.6221 12.4557 19.5345 12.2577 19.3935 12.1004L18.0435 10.6604ZM16.5535 12.0004L17.3535 12.9004L16.0735 15.1204L14.8935 14.8804C14.1732 14.7332 13.424 14.8555 12.788 15.2242C12.1521 15.5929 11.6736 16.1822 11.4435 16.8804L11.0635 18.0004H8.50345L8.14345 16.8604C7.91331 16.1622 7.43483 15.5729 6.79886 15.2042C6.16288 14.8355 5.41367 14.7132 4.69345 14.8604L3.51345 15.1004L2.21345 12.8904L3.01345 11.9904C3.50541 11.4404 3.77738 10.7283 3.77738 9.99038C3.77738 9.25245 3.50541 8.54041 3.01345 7.99038L2.21345 7.09038L3.49345 4.89038L4.67345 5.13038C5.39367 5.27761 6.14288 5.15526 6.77886 4.78658C7.41483 4.4179 7.89331 3.82854 8.12345 3.13038L8.50345 2.00038H11.0635L11.4435 3.14038C11.6736 3.83854 12.1521 4.4279 12.788 4.79658C13.424 5.16526 14.1732 5.28761 14.8935 5.14038L16.0735 4.90038L17.3535 7.12038L16.5535 8.02038C16.067 8.56914 15.7984 9.27707 15.7984 10.0104C15.7984 10.7437 16.067 11.4516 16.5535 12.0004ZM9.78345 6.00038C8.99233 6.00038 8.21897 6.23498 7.56117 6.67451C6.90337 7.11403 6.39068 7.73874 6.08793 8.46965C5.78518 9.20055 5.70597 10.0048 5.86031 10.7807C6.01465 11.5567 6.39561 12.2694 6.95502 12.8288C7.51443 13.3882 8.22717 13.7692 9.00309 13.9235C9.77901 14.0779 10.5833 13.9987 11.3142 13.6959C12.0451 13.3932 12.6698 12.8805 13.1093 12.2227C13.5489 11.5649 13.7835 10.7915 13.7835 10.0004C13.7835 8.93952 13.362 7.9221 12.6119 7.17196C11.8617 6.42181 10.8443 6.00038 9.78345 6.00038ZM9.78345 12.0004C9.38789 12.0004 9.00121 11.8831 8.67231 11.6633C8.34341 11.4436 8.08707 11.1312 7.93569 10.7657C7.78432 10.4003 7.74471 9.99817 7.82188 9.6102C7.89905 9.22224 8.08953 8.86588 8.36924 8.58617C8.64894 8.30647 9.00531 8.11598 9.39327 8.03881C9.78123 7.96164 10.1834 8.00125 10.5488 8.15262C10.9143 8.304 11.2266 8.56034 11.4464 8.88924C11.6662 9.21814 11.7835 9.60482 11.7835 10.0004C11.7835 10.5308 11.5727 11.0395 11.1977 11.4146C10.8226 11.7897 10.3139 12.0004 9.78345 12.0004Z" fill="white"/>
</svg>
