<svg width="24" height="24" viewBox="0 0 24 24" fill="none" xmlns="http://www.w3.org/2000/svg">
<path d="M22.1159 20.0482C20.8306 17.7923 18.8235 16.0346 16.4178 15.0579C17.6141 14.1607 18.4978 12.9097 18.9437 11.4824C19.3896 10.055 19.3751 8.52346 18.9022 7.10479C18.4293 5.68611 17.522 4.45219 16.3089 3.57781C15.0957 2.70343 13.6382 2.23291 12.1428 2.23291C10.6474 2.23291 9.18988 2.70343 7.97674 3.57781C6.7636 4.45219 5.85633 5.68611 5.38343 7.10479C4.91054 8.52346 4.89601 10.055 5.34189 11.4824C5.78778 12.9097 6.67147 14.1607 7.8678 15.0579C5.46211 16.0346 3.45503 17.7923 2.16968 20.0482C2.09003 20.1763 2.03695 20.3191 2.01358 20.4681C1.99022 20.617 1.99705 20.7692 2.03367 20.9155C2.07028 21.0618 2.13594 21.1992 2.22674 21.3197C2.31754 21.4401 2.43162 21.541 2.5622 21.6165C2.69279 21.6919 2.83721 21.7403 2.98688 21.7588C3.13655 21.7774 3.28841 21.7656 3.43345 21.7242C3.57848 21.6829 3.71372 21.6128 3.83112 21.5181C3.94853 21.4235 4.0457 21.3062 4.11687 21.1732C5.81562 18.237 8.81562 16.4857 12.1428 16.4857C15.47 16.4857 18.47 18.2379 20.1687 21.1732C20.323 21.4212 20.5676 21.5995 20.8509 21.6704C21.1342 21.7413 21.434 21.6993 21.6869 21.5532C21.9397 21.4071 22.1259 21.1684 22.206 20.8875C22.286 20.6067 22.2537 20.3057 22.1159 20.0482ZM7.2678 9.36072C7.2678 8.39654 7.55372 7.45401 8.08939 6.65232C8.62506 5.85063 9.38643 5.22579 10.2772 4.85681C11.168 4.48783 12.1482 4.39129 13.0939 4.57939C14.0395 4.7675 14.9082 5.2318 15.5899 5.91358C16.2717 6.59536 16.736 7.464 16.9241 8.40966C17.1122 9.35531 17.0157 10.3355 16.6467 11.2263C16.2777 12.1171 15.6529 12.8785 14.8512 13.4141C14.0495 13.9498 13.107 14.2357 12.1428 14.2357C10.8503 14.2342 9.61122 13.7201 8.6973 12.8062C7.78338 11.8923 7.26929 10.6532 7.2678 9.36072Z" fill="#FFFFFF"/>
</svg>
