<svg width="627" height="474" viewBox="0 0 627 474" fill="none" xmlns="http://www.w3.org/2000/svg">
<g opacity="0.3">
<path d="M546.575 87.0911V458.627C546.575 466.361 541.56 472.629 535.38 472.629H103.34C97.1505 472.629 92.1348 466.361 92.1348 458.627V87.0911C92.1348 79.3566 97.1505 73.0884 103.34 73.0884H535.38C541.56 73.0884 546.575 79.3566 546.575 87.0911Z" fill="white"/>
<path d="M535.379 473.24H103.338C96.8903 473.24 91.6445 466.685 91.6445 458.627V87.0912C91.6445 79.0332 96.8903 72.4775 103.338 72.4775H535.379C541.821 72.4775 547.063 79.0332 547.063 87.0912V458.627C547.063 466.685 541.821 473.24 535.379 473.24ZM103.338 73.6994C97.4296 73.6994 92.6223 79.7071 92.6223 87.0912V458.627C92.6223 466.011 97.4296 472.019 103.338 472.019H535.379C541.282 472.019 546.085 466.011 546.085 458.627V87.0912C546.085 79.7071 541.282 73.6994 535.379 73.6994H103.338Z" fill="#9192FF"/>
<path d="M546.575 87.0911V109.134H92.1348V87.0911C92.1348 79.3566 97.1505 73.0884 103.34 73.0884H535.38C541.56 73.0884 546.575 79.3566 546.575 87.0911Z" fill="white"/>
<path d="M547.063 109.745H91.6445V87.0912C91.6445 79.0332 96.8903 72.4775 103.338 72.4775H535.379C541.821 72.4775 547.063 79.0332 547.063 87.0912V109.745ZM92.6223 108.523H546.085V87.0912C546.085 79.7071 541.282 73.6994 535.379 73.6994H103.338C97.4296 73.6994 92.6223 79.7071 92.6223 87.0912V108.523Z" fill="#9192FF"/>
<path d="M117.365 97.6277C120.245 97.6277 122.579 94.7102 122.579 91.1112C122.579 87.5122 120.245 84.5947 117.365 84.5947C114.485 84.5947 112.15 87.5122 112.15 91.1112C112.15 94.7102 114.485 97.6277 117.365 97.6277Z" fill="#3335CF"/>
<path d="M137.244 84.5947C134.369 84.5947 132.029 87.5179 132.029 91.1112C132.029 94.7045 134.368 97.6282 137.244 97.6282C140.12 97.6282 142.459 94.705 142.459 91.1112C142.459 87.5179 140.119 84.5947 137.244 84.5947Z" fill="#3335CF"/>
<path d="M157.127 97.6277C154.251 97.6277 151.912 94.7045 151.912 91.1112C151.912 87.5179 154.251 84.5947 157.127 84.5947C160.002 84.5947 162.341 87.5179 162.341 91.1112C162.341 94.7045 160.002 97.6277 157.127 97.6277ZM157.127 85.8166C154.79 85.8166 152.89 88.1919 152.89 91.1112C152.89 94.0305 154.791 96.4058 157.127 96.4058C159.463 96.4058 161.363 94.0305 161.363 91.1112C161.364 88.1919 159.463 85.8166 157.127 85.8166Z" fill="#9192FF"/>
<path d="M285.434 98.3665H188.516C185.315 98.3665 182.711 95.1119 182.711 91.1114C182.711 87.111 185.315 83.8564 188.516 83.8564H285.434C288.635 83.8564 291.24 87.111 291.24 91.1114C291.24 95.1119 288.635 98.3665 285.434 98.3665ZM188.516 85.0783C185.855 85.0783 183.689 87.785 183.689 91.1114C183.689 94.4379 185.855 97.1446 188.516 97.1446H285.434C288.096 97.1446 290.262 94.4379 290.262 91.1114C290.262 87.785 288.096 85.0783 285.434 85.0783H188.516Z" fill="#9192FF"/>
<path d="M408.68 282.029C408.68 340.533 370.734 387.966 323.92 387.966C277.106 387.966 239.15 340.533 239.15 282.029C239.15 227.143 272.56 182.007 315.345 176.63L318.171 211.393C289.504 214.997 267.123 245.251 267.123 282.029C267.123 321.239 292.554 353.02 323.92 353.02C355.286 353.02 380.707 321.239 380.707 282.029C380.707 275.187 379.934 268.576 378.487 262.32L405.365 252.619C407.526 261.954 408.68 271.827 408.68 282.029Z" fill="#9192FF"/>
<path d="M323.918 367.559C361.717 367.559 392.359 329.265 392.359 282.027C392.359 234.79 361.717 196.496 323.918 196.496C286.119 196.496 255.477 234.79 255.477 282.027C255.477 329.265 286.119 367.559 323.918 367.559Z" fill="white"/>
<path opacity="0.5" d="M323.918 367.559C361.717 367.559 392.359 329.265 392.359 282.027C392.359 234.79 361.717 196.496 323.918 196.496C286.119 196.496 255.477 234.79 255.477 282.027C255.477 329.265 286.119 367.559 323.918 367.559Z" fill="#D1D1FF"/>
<path d="M323.917 342.625C350.69 342.625 372.394 315.495 372.394 282.027C372.394 248.56 350.69 221.43 323.917 221.43C297.143 221.43 275.439 248.56 275.439 282.027C275.439 315.495 297.143 342.625 323.917 342.625Z" fill="white"/>
<path d="M329.448 311.827V321.039H320.084V312.242C313.444 311.746 307.004 309.502 303.02 306.433L308.064 292.155C312.449 295.393 318.289 297.467 323.403 297.467C327.853 297.467 329.448 296.305 329.448 294.311C329.448 287.008 303.749 292.902 303.749 271.237C303.749 261.855 309.194 253.971 320.083 252.062V243.015H329.448V251.896C334.357 252.477 339.142 254.056 342.927 256.712L338.213 270.905C333.628 267.999 329.313 266.59 325.263 266.59C320.678 266.59 319.219 268.249 319.219 270.239C319.219 277.214 344.917 271.402 344.917 292.817C344.917 301.783 339.738 309.586 329.448 311.827Z" fill="#9192FF"/>
<path d="M625.671 0.61084H441.266V141.523H625.671V0.61084Z" fill="white"/>
<path d="M626.159 142.134H440.775V0H626.159V142.134ZM441.754 140.912H625.181V1.22188H441.754V140.912Z" fill="#9192FF"/>
<path d="M475.096 96.6694H464.482V121.027H475.096V96.6694Z" fill="#D1D1FF"/>
<path d="M496.321 85.5396H485.707V121.027H496.321V85.5396Z" fill="#D1D1FF"/>
<path d="M517.549 94.6382H506.936V121.027H517.549V94.6382Z" fill="#D1D1FF"/>
<path d="M538.776 76.0698H528.162V121.027H538.776V76.0698Z" fill="#D1D1FF"/>
<path d="M560.004 64.1924H549.391V121.027H560.004V64.1924Z" fill="#D1D1FF"/>
<path d="M581.233 47.2295H570.619V121.027H581.233V47.2295Z" fill="#D1D1FF"/>
<path d="M602.457 21.1064H591.844V121.027H602.457V21.1064Z" fill="#D1D1FF"/>
<path d="M472.917 32.9639H464.482V44.8991H472.917V32.9639Z" fill="#D1D1FF"/>
<path d="M543.076 38.4868H485.953V41.5459H543.076V38.4868Z" fill="#D1D1FF"/>
<path d="M459.737 212.964L448.057 172.647C434.862 178.619 425.434 194.413 425.434 212.964C425.434 236.64 440.792 255.833 459.737 255.833C478.682 255.833 494.04 236.64 494.04 212.964C494.04 205.839 492.642 199.127 490.181 193.216L459.737 212.964Z" fill="#EBEBFF"/>
<path d="M494.745 177.943C489.028 164.208 477.545 154.822 464.301 154.822C460.199 154.822 456.267 155.725 452.621 157.375L464.301 197.691L494.745 177.943Z" fill="#9192FF"/>
<path d="M508.294 350.344H427.143V446.872H508.294V350.344Z" fill="#EBEBFF"/>
<path d="M485.318 376.004H439.854V380.08H485.318V376.004Z" fill="white"/>
<path d="M485.318 388.223H439.854V392.299H485.318V388.223Z" fill="white"/>
<path d="M198.522 165.841H127.955V314.91H198.522V165.841Z" fill="#EBEBFF"/>
<path d="M184.992 187.428H138.713V240.376H184.992V187.428Z" fill="white"/>
<path d="M139.057 186.989L138.396 187.891L184.677 240.842L185.337 239.941L139.057 186.989Z" fill="#EBEBFF"/>
<path d="M184.643 186.987L138.369 239.939L139.029 240.84L185.304 187.888L184.643 186.987Z" fill="#EBEBFF"/>
<path d="M161.874 226.725H0.464844V359.63H161.874V226.725Z" fill="white"/>
<path d="M162.342 360.214H0V226.142H162.342V360.214ZM0.933543 359.047H161.409V227.309H0.933543V359.047Z" fill="#9192FF"/>
<path d="M17.4707 327.536L27.9 303.098L49.4101 328.35L63.7499 276.217L90.4749 312.873L108.074 303.913L140.013 251.779" fill="white"/>
<path d="M49.6261 329.443L28.0303 304.09L17.9018 327.823L17.0391 327.248L27.7687 302.106L49.1932 327.258L63.5557 275.044L90.606 312.147L107.766 303.41L139.625 251.408L140.401 252.151L108.381 304.416L90.3428 313.6L90.1133 313.284L63.944 277.39L49.6261 329.443Z" fill="#9192FF"/>
<path d="M27.9837 306.357C29.4687 306.357 30.6725 304.852 30.6725 302.996C30.6725 301.141 29.4687 299.636 27.9837 299.636C26.4987 299.636 25.2949 301.141 25.2949 302.996C25.2949 304.852 26.4987 306.357 27.9837 306.357Z" fill="#9192FF"/>
<path d="M49.2493 331.1C50.7343 331.1 51.9381 329.595 51.9381 327.74C51.9381 325.884 50.7343 324.379 49.2493 324.379C47.7643 324.379 46.5605 325.884 46.5605 327.74C46.5605 329.595 47.7643 331.1 49.2493 331.1Z" fill="#9192FF"/>
<path d="M63.9153 279.781C65.4003 279.781 66.6041 278.277 66.6041 276.421C66.6041 274.565 65.4003 273.061 63.9153 273.061C62.4304 273.061 61.2266 274.565 61.2266 276.421C61.2266 278.277 62.4304 279.781 63.9153 279.781Z" fill="#9192FF"/>
<path d="M115.392 247.911H46.9512V249.133H115.392V247.911Z" fill="#9192FF"/>
</g>
</svg>
