<svg width="49" height="50" viewBox="0 0 49 50" fill="none" xmlns="http://www.w3.org/2000/svg">
<path d="M10.25 8.5C8.45979 8.5 6.7429 9.21116 5.47703 10.477C4.21116 11.7429 3.5 13.4598 3.5 15.25V17.5H45.5V15.25C45.5 13.4598 44.7888 11.7429 43.523 10.477C42.2571 9.21116 40.5402 8.5 38.75 8.5H10.25ZM3.5 34.75V20.5H45.5V34.75C45.5 36.5402 44.7888 38.2571 43.523 39.523C42.2571 40.7888 40.5402 41.5 38.75 41.5H10.25C8.45979 41.5 6.7429 40.7888 5.47703 39.523C4.21116 38.2571 3.5 36.5402 3.5 34.75ZM32 29.5C31.6022 29.5 31.2206 29.658 30.9393 29.9393C30.658 30.2206 30.5 30.6022 30.5 31C30.5 31.3978 30.658 31.7794 30.9393 32.0607C31.2206 32.342 31.6022 32.5 32 32.5H36.5C36.8978 32.5 37.2794 32.342 37.5607 32.0607C37.842 31.7794 38 31.3978 38 31C38 30.6022 37.842 30.2206 37.5607 29.9393C37.2794 29.658 36.8978 29.5 36.5 29.5H32Z" fill="#E64646"/>
</svg>
